<?xml version="1.0" encoding="UTF-8"?>
<svg id="_Layer_1" data-name="Layer_1" xmlns="http://www.w3.org/2000/svg" version="1.1" viewBox="0 0 360.2 380.4">
  <!-- Generator: Adobe Illustrator 29.3.0, SVG Export Plug-In . SVG Version: 2.1.0 Build 146)  -->
  <defs>
    <style>
      .st0 {
        fill: #6b6ead;
      }

      .st1, .st2, .st3, .st4, .st5, .st6 {
        stroke-miterlimit: 10;
      }

      .st1, .st2, .st4, .st5 {
        stroke: #304886;
        stroke-linecap: round;
      }

      .st1, .st2, .st4, .st5, .st6 {
        fill: none;
      }

      .st1, .st4 {
        stroke-width: 1.1px;
      }

      .st7 {
        fill: #fcf6e0;
      }

      .st8 {
        fill: #afbee2;
      }

      .st9 {
        fill: #ab3a4a;
      }

      .st10, .st11 {
        fill: #576daf;
      }

      .st12, .st13, .st14, .st15, .st16, .st11, .st17, .st18, .st19 {
        isolation: isolate;
      }

      .st12, .st14, .st11, .st18 {
        font-family: ArialMT, Arial;
        font-size: 103.7px;
      }

      .st12, .st20 {
        fill: #cd5b62;
      }

      .st21 {
        fill: #eecfc2;
      }

      .st22 {
        fill: #d89531;
      }

      .st23 {
        fill: #e3aead;
      }

      .st24 {
        fill: #f1d060;
      }

      .st2, .st5 {
        stroke-width: 1px;
      }

      .st25, .st17, .st19 {
        fill: #fff;
      }

      .st26, .st15, .st18 {
        fill: #394971;
      }

      .st13 {
        fill: #e6b6b3;
      }

      .st13, .st15, .st17, .st27 {
        mix-blend-mode: multiply;
      }

      .st3 {
        fill: #efc83e;
        stroke: #fff;
        stroke-width: 1.9px;
      }

      .st28 {
        fill: #c94b58;
      }

      .st14, .st29 {
        fill: #9d3b45;
      }

      .st30 {
        fill: #e0dcfd;
      }

      .st31 {
        fill: #dadbed;
      }

      .st15, .st17, .st27 {
        opacity: .3;
      }

      .st32 {
        fill: #f1f4f8;
      }

      .st33 {
        fill: #d06586;
      }

      .st34 {
        fill: #222941;
      }

      .st35 {
        fill: #5870bd;
      }

      .st36 {
        fill: #e5b155;
      }

      .st4 {
        stroke-dasharray: 6.1 6.1;
      }

      .st37 {
        fill: #304886;
      }

      .st5 {
        stroke-dasharray: 6.1 6.1;
      }

      .st6 {
        stroke: #394971;
        stroke-width: .2px;
      }

      .st38 {
        fill: #f3d837;
      }

      .st19 {
        mix-blend-mode: soft-light;
        opacity: .5;
      }
    </style>
  </defs>
  <g class="st16">
    <g id="OBJECTS">
      <g>
        <g>
          <path class="st1" d="M208.1,77.5c.2-1,.4-2,.7-3"/>
          <path class="st4" d="M210.7,68.6c3.9-10.8,10.8-20.5,19.6-27.7,11.2-9.2,25.7-14.4,40.2-14.5,15.8-.1,32.6,6.8,39.9,20.8,5.9,11.3,4.3,26-3.8,35.8-2.9,3.5-6.6,6.4-11,7.4s-9.5-.4-12.2-4c-4-5.3-.9-13.8,5.1-16.7s13.5-.7,18.3,3.8,7.3,11.1,8.5,17.7c2.5,14-.5,28.8-8.3,40.7-6.6,10.2-16.7,18.1-28,22.2"/>
          <path class="st1" d="M276,155.2c-1,.3-2,.6-2.9.8"/>
        </g>
        <g>
          <path class="st2" d="M226.2,238.1c-.9-.4-1.9-.8-2.8-1.2"/>
          <path class="st5" d="M217.7,235c-10.9-3.1-22.6-3.3-33.6-.4-13.9,3.6-26.5,12.1-35.1,23.7-9.3,12.6-13.6,30-6.6,44,5.6,11.3,18.3,18.6,30.9,17.8,4.5-.3,9-1.6,12.3-4.5,3.3-3,5.2-7.8,3.9-12-2-6.3-10.5-8.8-16.3-5.7-5.8,3.1-8.5,10.4-7.6,16.9.9,6.5,4.6,12.3,9.2,17.1,9.7,10.1,23.4,16.4,37.4,17.1,12,.6,24.2-2.8,34.1-9.5"/>
          <path class="st2" d="M248.8,337.7c.8-.6,1.6-1.2,2.4-1.9"/>
        </g>
        <g>
          <path class="st3" d="M243.2,86.8l-6.4-10.7c4.3-3.2,7.6-7.8,9.5-13.2,4.9-14.5-2.9-30.2-17.4-35-.4-.1-.8-.3-1.2-.4-.1,0-.2,0-.3,0-.4-.1-.8-.2-1.2-.3h0c-.4,0-.8-.2-1.2-.2-.1,0-.2,0-.3,0-.4,0-.8-.1-1.2-.2h0c-.4,0-.8,0-1.2-.1-.1,0-.2,0-.3,0-.4,0-.8,0-1.2,0h-1.5c-.4,0-.8,0-1.2,0,0,0,0,0-.1,0-.4,0-.7,0-1.1.1-.1,0-.2,0-.3,0-.4,0-.8.1-1.2.2,0,0,0,0-.1,0-.2,0-.5,0-.7.1h0c-9.3,2-17.4,8.7-20.6,18.4-4.9,14.5,2.9,30.2,17.4,35l29.2,9.8c2,.7,3.8-1.5,2.7-3.3h0Z"/>
          <g>
            <path class="st25" d="M229.6,49.8c.7,0,1.3-.6,1.3-1.3s-.6-1.3-1.3-1.3h-18.7c-.7,0-1.3.6-1.3,1.3s.6,1.3,1.3,1.3h18.7Z"/>
            <path class="st25" d="M225.6,60.1c.7,0,1.3-.6,1.3-1.3s-.6-1.3-1.3-1.3h-12.3c-.7,0-1.3.6-1.3,1.3s.6,1.3,1.3,1.3h12.3Z"/>
          </g>
        </g>
      </g>
      <g>
        <path class="st25" d="M59.8,40.2c2.5-.1,2.8-5.5-.8-7.2-3.5-1.7-6.9,1.5-6.9,1.5.9-3.6-2-8.4-8-7.9-2,.2-3.3,1.2-4.1,2.5,0-.1,0-.2-.1-.3-1.5,3-.8,6.7-.8,6.7-8.9-7.8-14.5,4.4-11.3,7.6,2.5.3,5.1.5,7.7.6,12-.2,24.3-3.5,24.3-3.5h0Z"/>
        <g>
          <polygon class="st10" points="26.9 119.4 22.3 119.4 25.5 116.2 24.6 115.2 21.3 118.4 21.3 113.9 20 113.9 20 118.4 16.7 115.2 15.8 116.2 19 119.4 14.4 119.4 14.4 120.8 19 120.8 15.8 124 16.7 125 20 121.7 20 126.3 21.3 126.3 21.3 121.7 24.6 125 25.5 124 22.3 120.8 26.9 120.8 26.9 119.4"/>
          <polygon class="st28" points="160.1 37.9 155.9 37.9 158.9 34.9 158 34 155 37 155 32.8 153.8 32.8 153.8 37 150.8 34 149.9 34.9 152.9 37.9 148.7 37.9 148.7 39.1 152.9 39.1 149.9 42.1 150.8 43 153.8 40 153.8 44.2 155 44.2 155 40 158 43 158.9 42.1 155.9 39.1 160.1 39.1 160.1 37.9"/>
          <path class="st10" d="M112.3,3.7l1.1,2.7c.4,1,1.2,1.8,2.2,2.2l2.7,1.1-2.7,1.1c-1,.4-1.8,1.2-2.2,2.2l-1.1,2.7-1.1-2.7c-.4-1-1.2-1.8-2.2-2.2l-2.7-1.1,2.7-1.1c1-.4,1.8-1.2,2.2-2.2l1.1-2.7Z"/>
          <path class="st28" d="M14,69l.7,1.8c.3.7.8,1.2,1.5,1.5l1.8.7-1.8.7c-.7.3-1.2.8-1.5,1.5l-.7,1.8-.7-1.8c-.3-.7-.8-1.2-1.5-1.5l-1.8-.7,1.8-.7c.7-.3,1.2-.8,1.5-1.5,0,0,.7-1.8.7-1.8Z"/>
          <path class="st37" d="M344.5,30.1l.7,1.7c.3.6.8,1.1,1.4,1.4l1.7.7-1.7.7c-.6.3-1.1.8-1.4,1.4l-.7,1.7-.7-1.7c-.3-.6-.8-1.1-1.4-1.4l-1.7-.7,1.7-.7c.6-.3,1.1-.8,1.4-1.4l.7-1.7Z"/>
          <circle class="st28" cx="85.3" cy="46.6" r="2.5"/>
          <path class="st28" d="M226.4,0l.7,1.8c.3.7.8,1.2,1.5,1.5l1.8.7-1.8.7c-.7.3-1.2.8-1.5,1.5l-.7,1.8-.7-1.8c-.3-.7-.8-1.2-1.5-1.5l-1.8-.7,1.8-.7c.7-.3,1.2-.8,1.5-1.5,0,0,.7-1.8.7-1.8Z"/>
        </g>
      </g>
      <g>
        <g>
          <path class="st34" d="M257.2,116.4c.1,9.2-5.5,18.5-16.8,18.3l-8,13.1-5.2-28.7c-.2-1.9,3.3-6.6,5-7.6,4.6-2.7,7.2-5,12.4-3.9,0,0,12.5-3,12.6,8.8Z"/>
          <path class="st34" d="M252.8,113.2c-1.4-3.5-.8-7.7,1.5-10.7.9-1.1,2-2.1,3.4-2.4,1.9-.4,3.9.5,5.4,1.8,1.6,1.4,2.8,3.3,3.2,5.4.4,2.1-.1,4.4-1.5,6-.7.8-1.6,1.4-2.6,1.9-1.5.7-3.1,1.2-4.8,1-1.6-.2-3.2-1.3-3.7-2.8l-.9-.2h0Z"/>
          <path class="st20" d="M232,132.6c0-2-1.6-3.6-3.6-3.6s-3.6,1.6-3.6,3.6,1.6,3.6,3.6,3.6,3.6-1.6,3.6-3.6Z"/>
          <path class="st21" d="M243.5,125.8c.2.2,2.5.2,2.7.2,1.1,0,3.6-.2,3.9,2.6.4,2.9-2.4,4.5-4,4.6-.5,0-1.6.1-1.9.5-1,1.1,0,9.4-.7,12.3-1.7,6.4,1.9,3.4,1.9,3.4,0,0-23.1,24.6-16.7,0,0,0,1.3-15.3,1.2-15.4-1.3-1.3-6.4-1.9-3.2-12.8,3-10.1,10.4-9.4,12.3-9,1.6.3-3.6,3.7,4.4,13.7h0Z"/>
          <path class="st34" d="M229.4,113.4c-.9,3.2,8.8,5.5,11.9-.4,0,0,.3-6.1-4.3-6.5-2.4-.2-5.8.4-7.6,6.9h0Z"/>
          <g>
            <path class="st13" d="M248.9,129.3s-1.7-3.6-3.9,1.2"/>
            <path class="st25" d="M228,126.7l4.6,2.3s-2.3,1.6-3.5.7c-1.2-.9-1.1-3-1.1-3Z"/>
            <path class="st38" d="M236.9,122.5c.4.6.2-1.4-.5-1.8s-1.5-.3-1.9.2c0,0,1.4.3,2.4,1.6Z"/>
            <path class="st38" d="M229.2,118.2c-.7.2.7-1.2,1.5-1.1.8,0,1.4.7,1.3,1.3,0,0-1.3-.7-2.9-.2Z"/>
            <path class="st34" d="M236.9,122.5c.4.6.2-1.4-.5-1.8s-1.5-.3-1.9.2c0,0,1.4.3,2.4,1.6Z"/>
            <path class="st34" d="M229.2,118.2c-.7.2.7-1.2,1.5-1.1.8,0,1.4.7,1.3,1.3,0,0-1.3-.7-2.9-.2Z"/>
            <path class="st34" d="M234.8,124.5c-.2.6-.6.9-.9.8s-.3-.6,0-1.2.6-.9.9-.8.3.6,0,1.2Z"/>
            <path class="st34" d="M230.5,122.5c-.2.5-.6.9-.9.8-.3,0-.3-.6,0-1.1.2-.5.6-.9.9-.8.3,0,.3.6,0,1.1Z"/>
            <path class="st13" d="M230,133.8s4.8.9,7.2.8c2.4-.2-7.8,6.6-7.2-.8Z"/>
            <path class="st34" d="M232.2,121.8c-.4.7-.9,1.3-1.5,1.8-.6.5-1.3.8-1.8,1.3-.7.7-.1,1.6.8,1.6.2,0,.3-.3.2-.4-.2-.2-.5-.4-.2-.8,0-.1.3-.2.4-.2.4-.2.7-.5,1.1-.8.7-.6,1.2-1.3,1.5-2.2.1-.3-.2-.5-.4-.2h0Z"/>
          </g>
          <path class="st20" d="M247.9,134.1c0-2-1.6-3.6-3.6-3.6s-3.6,1.6-3.6,3.6,1.6,3.6,3.6,3.6,3.6-1.6,3.6-3.6Z"/>
        </g>
        <g>
          <path class="st23" d="M232.6,356.3l-1.8,12.4s-2.8,8.2-5.4,5c-2.6-3.2-5.2-4.9-5.2-4.9l-.9-12.9,13.2.3h0Z"/>
          <path class="st13" d="M225.8,356.8l-1,20.5s8.2,1.2,5.2-4.3l2.3-15.3-6.5-.9h0Z"/>
          <path class="st26" d="M219.4,368.8l-10.4,8.4c-.5.4-.1,1.1.6,1.1,0,0,22.5-.1,22.5-.5.2-2-.8-9.2-1.1-11,0-.3-2.4,8.8-2.8,8s-7-5.5-7.5-5.9c-.3-.3-.9-.3-1.3,0h0Z"/>
        </g>
        <g>
          <path class="st23" d="M275.4,356.3l4.7,12.4s2.8,8.2,5.4,5c2.6-3.2,5.2-4.9,5.2-4.9l-2.1-12.9-13.2.3h0Z"/>
          <path class="st13" d="M282.3,356.8l4,20.5s-8.2,1.2-5.2-4.3l-5.3-15.3,6.5-.9h0Z"/>
          <path class="st26" d="M291.6,368.8l10.4,8.4c.5.4.1,1.1-.6,1.1,0,0-22.5-.1-22.5-.5-.2-2,0-10.8.2-10.8.9,0,1.9,8.3,3.7,7.7,1.2-.4,7-5.5,7.5-5.9.3-.3.9-.3,1.3,0Z"/>
        </g>
        <g>
          <path class="st20" d="M253.8,192c4.8,8.4,7.3,14.6,10,25.4,3.2,12.4,29.9,123.6,31.4,146.3-3.9,1-20.3,2.3-22.8,2.2-7.9-22.6-29.8-103.4-33.2-117.6-.5-2.2-3.9-1.7-3.6.5,1.9,16.2,2.5,87.5,3.2,115.3-2.1,1-21.8.3-24.2,0-2.6-27.9-10.6-138.2,10.1-172.4,9.5-1.3,19.4.1,29,.4h0Z"/>
          <path class="st6" d="M228,191.9s-9.8,24.1-9.8,53.5,1.8,105.9,1.8,105.9"/>
          <line class="st6" x1="282.8" y1="349.3" x2="248.8" y2="192.8"/>
          <path class="st15" d="M224.4,192.3l41.9,34.7s-6.1-22.4-13-35.4l-28.9.7Z"/>
        </g>
        <line class="st6" x1="238.9" y1="351.3" x2="213.9" y2="351.6"/>
        <line class="st6" x1="293.1" y1="349.5" x2="267.1" y2="349.5"/>
        <g>
          <path class="st21" d="M185.8,168.7s25.5,35.3,31.4,31.1c0,0,6.9-4.8,3.4-24.6,0-1.9,0-3.2,0-3.6,0,0,1.5-19.5,4.7-23.5.4-.4,1.4-1.3,1.3-1.3-9.8-2.4-13.5,22.1-16.2,33.5-.1.5-18.8-17.7-18.8-17.7,0,0-9.8-12.9-10.5-12.2-1,1.1,2.8,6.8,2.8,6.8,0,0-.2.7-1,1s-1.1.8-1.4,1.8c-.2,1-1.2,1.6-1.4,2.1-.2.6,3.5,4.9,5.6,6.4h0Z"/>
          <path class="st21" d="M191.4,162.6s-2-5.6-2.8-5.4-4.4,1.7-4.4,3.1c0,1.4,3.2.2,3.2.2,0,0-.6,3.1,1,3.5,1.6.4,3-1.5,3-1.5h0Z"/>
          <g>
            <path class="st13" d="M186.5,160.3s0,1.4-1.1,1.6c0,0-.2,1.5-1.7,1.1,0,0,.4.7-.5.8,0,0,3.9,4.2,3.3-3.6h0Z"/>
            <path class="st26" d="M187.2,157.6c-1,.7-2.1,1.2-3.2,1.9-1.1,1,1.3,1.3,2,1.3.2,0,.4,0,.7.1.1.1.1.3,0,.4,0,.2-.3,1.3-.4,1.5,0,0,.2-1.2.2-1.2,0-.2.1-.4,0-.6-.9-.2-2,.1-2.9-.7-.4-.3-.1-.9.2-1.1.7-.5,2.5-1.3,3.3-1.7h0s0,0,0,0Z"/>
            <path class="st26" d="M184,157.1c.6.2,1.1.7,1.3,1.3-.4-.3-.9-.9-1.3-1.3h0Z"/>
            <path class="st26" d="M182.3,159.2c.6.5,1.4,1.2,2,1.6.6.4,1.4,1.4,2.1.8-.2.4-.9.3-1.2.1-1.1-.7-2.2-1.6-2.9-2.5h0Z"/>
            <path class="st26" d="M185.5,161.9c-.1,2.6-2.3,1.6-3.3.1-.3-.4-.7-.8-.8-1.3.3.4.6.8,1,1.1,1.1,1.3,2.6,2.4,3.1,0h0Z"/>
            <path class="st26" d="M183.8,162.8c.2,1.7-1,2-2.3,1.2-.1,0-.3-.3-.3-.4.2.2.5.4.8.4.4.1.9.3,1.3,0,.3-.3.4-.9.5-1.3h0Z"/>
          </g>
        </g>
        <path class="st26" d="M229,146.5s-8.7-.5-11.2,4.7c-2.5,5.2-8.1,28.2-8.1,28.2l-4.7-4.2-6,11s11.3,17.3,17.7,15.3c6.4-2,12.5-47.9,12.4-54.9Z"/>
        <path class="st15" d="M208.6,184.6c-1.5,2.8-3.1,5.5-4.7,8.2,3.8,4.6,9.1,9.7,12.7,8.6,5.8-1.8,11.3-39.4,12.3-51.8-6.6,11.8-13.8,23.2-20.3,35h0Z"/>
        <path class="st26" d="M228.9,146.7c.3.7-11.1,21.2-10.8,27.8.3,6.6,4.7,16.6,4.3,17.6,0,0,19.6.1,31.8.3,8.7-7.6,4.8-36.7,1.9-44.9,0,0-9.6-4.4-12-4.6,0,0-18.4,29.9-15.1,3.7h0Z"/>
        <g class="st27">
          <path class="st26" d="M256.6,152.1s-2.2-1.9-4.7-4c-.2.3-.4.6-.6.9,1.2,1.6.8,3.4.1,6-3.5,13.7-5.1,21.7-10.9,37.6,7.1.2,5.2-.3,13.7-.2,8.7-7.6,5.2-32.1,2.3-40.3Z"/>
        </g>
        <g>
          <g>
            <polygon class="st25" points="252.2 235.2 277.8 222.6 261.1 188 235.4 200.6 252.2 235.2"/>
            <polygon class="st17" points="252.2 235.2 277.8 222.6 261.1 188 235.4 200.6 252.2 235.2"/>
            <g>
              <path class="st28" d="M255.5,191.8l-14.4,7-1-2c-.1-.3,0-.7.3-.8l13.3-6.5c.3-.1.7,0,.8.3l1,2h0Z"/>
              <path class="st28" d="M244.3,192.7c.5,1.1,2,1.5,3.2.9s1.7-2,1.2-3.1-2-1.5-3.2-.9-1.7,2-1.2,3.1ZM245.5,192.2c-.3-.5,0-1.2.6-1.5.6-.3,1.2,0,1.5.4.3.5,0,1.2-.6,1.5-.6.3-1.2,0-1.5-.4Z"/>
            </g>
          </g>
          <path class="st21" d="M286,179.8c-3.5,6-9.3,13.7-13.8,19.4,0,0,0,0,0,0-.2.3-1,1.4-1,1.4-2.1,2.7-4.5,6-6.8,8.9-1.1,1.5-2.2,2.9-3.2,4,0,0,0,0,0,0-1.9,2.4-3.3,4-3.5,3.8-.5-.3,1.2-3.2,2.2-4.7-.9,1.1-1.8,2.4-2.6,3.3-.9,1.1-1.6,1.8-1.9,1.7-.5-.3.9-3,2.2-4.9.1-.2.3-.4.4-.6-.1.1-.3.3-.4.5-1.5,1.9-4.1,5.6-4.6,5.3-.7-.4,2.2-5.4,2.7-6.2-.5.7-3.3,4.9-3.9,4.2-.2-.3.8-1.9,1.8-3.6,1-1.6,2-3.2,1.9-3.5,0-.4-.9.6-1.5,1.1-.3.3-.6.4-.7.2,0-.2.6-1.4,1.5-3.1,2.5-4.3,7.3-11.8,7.5-12.1h0c3.1-5.5,6.6-13.3,8.8-17.5-2.3-2.2-27.7-29.3-27.7-29.3,0,0,8.1-6.7,20.3,3.1,11.2,9,18.5,15.8,22.2,20.5,2.1,2.8,2,4.7.3,7.7h0Z"/>
          <path class="st26" d="M271,177.9c-.5,1-3.9,7-4.6,8.4,3.8,2.3,10.7,6.9,14.5,9.2,2.1-3,5-12.9,6.5-15.5,1.8-3,.6-5.1-1.6-7.8-3.7-4.7-11-11.5-22.2-20.5-12.2-9.8-20.3-3.1-20.3-3.1,0,0-10.8,6.9,27.7,29.3h0Z"/>
        </g>
        <g>
          <g class="st27">
            <path class="st0" d="M222.8,163.7c4.5,2.8,8.7,6.3,12.1,10.4,1.6,1.9,3,4.2,3.4,6.7.3,2-.3,5.6-3,5.5-3,0-3.7-3.6-3.7-5.9,0-2.5.5-5,1.4-7.4,1.8-4.9,4.9-9.1,8.3-13,4-4.6,8.5-8.9,13.4-12.7.3-.2-.1-.6-.4-.4-4.8,3.7-9.1,7.9-13.1,12.4-3.6,4.1-7,8.6-8.8,13.9-.9,2.5-1.4,5.2-1.2,7.9.1,2.3,1,5.1,3.6,5.7,2.2.4,3.8-1.5,4.1-3.5.5-2.5-.4-5.1-1.8-7.2-1.6-2.6-3.9-4.9-6.2-6.9-2.4-2.2-5.1-4.2-7.8-6-.3-.2-.6.3-.3.5h0Z"/>
          </g>
          <g class="st27">
            <path class="st0" d="M260.4,150.7c.3,5.6,2.2,11.1,5.4,15.7s7.6,8,12.7,10.1c2.9,1.2,6,1.9,9.1,2.1.4,0,.4-.5,0-.6-5.4-.4-10.7-2.4-15.1-5.6s-7.8-7.8-9.7-12.9c-1.1-2.9-1.7-5.9-1.9-8.9,0-.4-.6-.4-.5,0h0Z"/>
          </g>
          <g class="st27">
            <path class="st0" d="M278.7,165.4c-2.1,6.1-2,12.9.4,18.9.7,1.7,1.5,3.3,2.5,4.8.2.3.7,0,.5-.3-4.4-6.9-5.5-15.6-2.8-23.4.1-.3-.4-.5-.5-.1h0Z"/>
          </g>
          <g class="st27">
            <path class="st0" d="M220.6,149c.3,1.1.3,2.2.2,3.3,0,1.5-.3,3-.6,4.5-.6,3.2-1.3,6.4-2.2,9.6-.8,2.8-1.8,5.5-2.7,8.3-1,3-1.9,6-3.4,8.7-1.8,3.4-4.4,6.2-7.2,8.7-.3.2.1.6.4.4,2.6-2.3,4.9-4.9,6.7-7.9,1.5-2.6,2.5-5.5,3.5-8.4s2.1-5.8,2.9-8.8c.9-3.2,1.7-6.4,2.3-9.6.3-1.7.6-3.4.7-5.2,0-1.2.1-2.6-.2-3.8,0-.3-.6-.2-.5.1h0Z"/>
          </g>
          <g class="st27">
            <path class="st0" d="M201.3,186.2c2.4-1.4,5.4-1.1,7.9,0,2.7,1.3,4.6,3.6,6.2,6,.9,1.4,1.7,2.9,2.5,4.4.2.3.6,0,.5-.3-1.5-2.8-3-5.6-5.2-7.9-2-2.1-4.7-3.6-7.6-3.8-1.6-.1-3.2.2-4.5,1-.3.2,0,.6.3.5h0Z"/>
          </g>
        </g>
      </g>
      <g>
        <g>
          <g>
            <g>
              <rect class="st35" x="12.9" y="353.2" width="137.4" height="25.2"/>
              <polygon class="st37" points="150.3 353.2 12.9 353.2 28.5 344 161.2 344 150.3 353.2"/>
              <g>
                <polygon class="st8" points="150.3 353.2 150.3 378.4 161.2 369.4 161.2 366.8 152.7 373.8 152.7 354.2 161.2 347 161.2 344 150.3 353.2"/>
                <polygon class="st7" points="152.7 373.8 161.2 366.8 161.2 347 152.7 354.2 152.7 373.8"/>
              </g>
              <rect class="st8" x="33.8" y="358.5" width="100.2" height="16.8"/>
            </g>
            <g>
              <g>
                <rect class="st28" x="21.7" y="320.6" width="112.8" height="29.5"/>
                <polygon class="st9" points="134.5 320.6 21.7 320.6 34.5 309.8 143.6 309.8 134.5 320.6"/>
                <g>
                  <polygon class="st33" points="134.5 320.6 134.5 350 143.6 339.5 143.6 336.4 136.5 344.6 136.5 321.7 143.6 313.3 143.6 309.8 134.5 320.6"/>
                  <polygon class="st7" points="136.5 344.6 143.6 336.4 143.6 313.3 136.5 321.7 136.5 344.6"/>
                </g>
              </g>
              <g>
                <g>
                  <rect class="st36" x="29.6" y="321.4" width="4.6" height="28.6"/>
                  <rect class="st36" x="38.2" y="321.4" width="2.5" height="28.6"/>
                </g>
                <g>
                  <rect class="st36" x="119.7" y="321.4" width="4.6" height="28.6"/>
                  <rect class="st36" x="113.2" y="321.4" width="2.5" height="28.6"/>
                </g>
              </g>
              <g>
                <path class="st25" d="M48.7,339.6l-2.8-8.5h1.2l1.3,4.2c.4,1.1.7,2.2.9,3.2h0c.2-1,.6-2.1,1-3.2l1.4-4.2h1.2l-3,8.5h-1.2Z"/>
                <path class="st25" d="M58.9,336.5c0,2.3-1.6,3.2-3,3.2s-2.9-1.2-2.9-3.1,1.3-3.2,3-3.2,3,1.3,3,3.1h0ZM54.1,336.6c0,1.3.8,2.4,1.9,2.4s1.9-1,1.9-2.4-.5-2.4-1.8-2.4-1.9,1.2-1.9,2.4h0Z"/>
                <path class="st25" d="M64.7,339.4c-.3.1-.9.4-1.8.4-1.8,0-3-1.2-3-3.1s1.3-3.2,3.3-3.2,1.2.2,1.5.3l-.2.9c-.3-.1-.7-.3-1.3-.3-1.4,0-2.2,1-2.2,2.3s.9,2.3,2.1,2.3,1.1-.2,1.4-.3l.2.8h0Z"/>
                <path class="st25" d="M69.4,339.6v-.8h-.1c-.3.5-1,.9-1.9.9-1.2,0-1.9-.9-1.9-1.8,0-1.5,1.3-2.3,3.7-2.3h0c0-.6-.1-1.6-1.4-1.6s-1.2.2-1.6.5l-.2-.7c.5-.3,1.2-.5,2-.5,1.9,0,2.3,1.3,2.3,2.5v2.3c0,.5,0,1,0,1.5h-1ZM69.2,336.5c-1.2,0-2.6.2-2.6,1.4s.5,1.1,1.1,1.1,1.3-.5,1.5-1c0-.1,0-.2,0-.4v-1.1h0Z"/>
                <path class="st25" d="M72,339.6c0-.4,0-1,0-1.6v-7.4h1.1v3.9h0c.4-.7,1.1-1.1,2.1-1.1,1.5,0,2.6,1.3,2.6,3.1,0,2.2-1.4,3.3-2.8,3.3s-1.6-.3-2.1-1.1h0v1h-1,0ZM73.2,337.2c0,.1,0,.3,0,.4.2.8.9,1.3,1.7,1.3,1.2,0,1.9-1,1.9-2.4s-.6-2.3-1.8-2.3-1.5.5-1.7,1.4c0,.1,0,.3,0,.5v1.1h0Z"/>
                <path class="st25" d="M84.4,338c0,.6,0,1.2,0,1.7h-1v-1h0c-.3.5-.9,1.1-2,1.1s-2.1-.5-2.1-2.7v-3.6h1.1v3.4c0,1.2.3,2,1.4,2s1.3-.5,1.5-1c0-.2,0-.4,0-.6v-3.8h1.1v4.5h0Z"/>
                <path class="st25" d="M86.2,330.6h1.1v9h-1.1v-9Z"/>
                <path class="st25" d="M92.6,339.6v-.8h-.1c-.3.5-1,.9-1.9.9-1.2,0-1.9-.9-1.9-1.8,0-1.5,1.3-2.3,3.7-2.3h0c0-.6-.1-1.6-1.4-1.6s-1.2.2-1.6.5l-.2-.7c.5-.3,1.2-.5,2-.5,1.9,0,2.3,1.3,2.3,2.5v2.3c0,.5,0,1,0,1.5h-1ZM92.5,336.5c-1.2,0-2.6.2-2.6,1.4s.5,1.1,1.1,1.1,1.3-.5,1.5-1c0-.1,0-.2,0-.4v-1.1h0Z"/>
                <path class="st25" d="M95.3,335.4c0-.7,0-1.3,0-1.9h1v1.2h0c.3-.8.9-1.3,1.7-1.3s.2,0,.3,0v1c-.1,0-.2,0-.4,0-.8,0-1.3.6-1.5,1.4,0,.1,0,.3,0,.5v3.3h-1.1v-4.2h0Z"/>
                <path class="st25" d="M100.2,333.5l1.3,3.6c.1.4.3.9.4,1.2h0c.1-.4.2-.8.4-1.3l1.2-3.6h1.2l-1.7,4.4c-.8,2.1-1.3,3.2-2.1,3.8-.5.5-1.1.7-1.4.7l-.3-.9c.3,0,.7-.3,1-.5.3-.2.7-.7.9-1.2,0-.1,0-.2,0-.3s0-.1,0-.3l-2.3-5.6h1.2Z"/>
              </g>
            </g>
            <g>
              <rect class="st36" x="30.4" y="292.8" width="96.7" height="25.2"/>
              <polygon class="st22" points="127.1 292.8 30.4 292.8 41.4 283.5 134.8 283.5 127.1 292.8"/>
              <g>
                <polygon class="st24" points="127.1 292.8 127.1 318 134.8 309 134.8 306.3 128.8 313.4 128.8 293.7 134.8 286.5 134.8 283.5 127.1 292.8"/>
                <polygon class="st7" points="128.8 313.4 134.8 306.3 134.8 286.5 128.8 293.7 128.8 313.4"/>
              </g>
              <rect class="st28" x="45.2" y="298" width="70.5" height="16.8"/>
              <g>
                <path class="st25" d="M54.8,303c.6,0,1.4-.2,2.2-.2,1.5,0,2.5.3,3.2,1,.7.6,1.1,1.6,1.1,2.9s-.4,2.4-1.2,3.1c-.8.8-2,1.1-3.5,1.1s-1.3,0-1.9-.1v-7.9h0ZM55.8,310c.3,0,.6,0,1,0,2.2,0,3.4-1.2,3.4-3.4,0-1.9-1.1-3.1-3.2-3.1s-.9,0-1.2.1v6.3Z"/>
                <path class="st25" d="M63.8,303.5c0,.4-.2.6-.7.6s-.6-.3-.6-.6.3-.6.7-.6.6.3.6.6ZM62.6,310.9v-5.8h1v5.8h-1Z"/>
                <path class="st25" d="M69.5,310.6c-.3.1-.9.3-1.7.3-1.7,0-2.9-1.2-2.9-2.9s1.2-3,3.1-3,1.2.1,1.4.3l-.2.8c-.2-.1-.6-.3-1.2-.3-1.3,0-2,1-2,2.2s.8,2.1,2,2.1,1-.1,1.3-.3c0,0,.2.8.2.8Z"/>
                <path class="st25" d="M72.2,303.5v1.6h1.5v.8h-1.5v3.1c0,.7.2,1.1.8,1.1s.5,0,.6,0v.8c-.1,0-.5.1-.9.1s-.9-.1-1.1-.4c-.3-.3-.4-.8-.4-1.5v-3.1h-.9v-.8h.9v-1.4l1-.3Z"/>
                <path class="st25" d="M76,303.5c0,.4-.2.6-.7.6s-.6-.3-.6-.6.3-.6.7-.6.6.3.6.6ZM74.8,310.9v-5.8h1v5.8h-1Z"/>
                <path class="st25" d="M82.8,307.9c0,2.1-1.5,3-2.9,3s-2.8-1.1-2.8-3,1.3-3,2.8-3,2.8,1.2,2.8,3h0ZM78.2,308c0,1.3.7,2.2,1.8,2.2s1.8-.9,1.8-2.2-.5-2.2-1.7-2.2-1.8,1.1-1.8,2.2h0Z"/>
                <path class="st25" d="M84.1,306.7c0-.6,0-1.1,0-1.6h.9v1h0c.3-.5.9-1.1,1.9-1.1s2,.5,2,2.5v3.4h-1v-3.3c0-.9-.3-1.7-1.3-1.7s-1.2.5-1.4,1.1c0,.1,0,.3,0,.5v3.5h-1v-4.2h0Z"/>
                <path class="st25" d="M93.9,310.9v-.7h-.1c-.3.5-.9.9-1.8.9-1.2,0-1.8-.8-1.8-1.6,0-1.4,1.2-2.1,3.4-2.1h0c0-.6-.1-1.4-1.3-1.4s-1.1.2-1.5.4l-.2-.7c.5-.3,1.2-.5,1.9-.5,1.8,0,2.2,1.2,2.2,2.4v2.1c0,.5,0,1,0,1.4h-.9,0ZM93.7,307.9c-1.1,0-2.4.2-2.4,1.3s.4,1,1,1,1.2-.5,1.4-1c0-.1,0-.2,0-.3v-1h0Z"/>
                <path class="st25" d="M96.4,306.9c0-.7,0-1.3,0-1.8h.9v1.1h0c.3-.8.9-1.3,1.6-1.3s.2,0,.3,0v1c-.1,0-.2,0-.4,0-.7,0-1.3.6-1.4,1.3,0,.1,0,.3,0,.5v3.1h-1v-4h0Z"/>
                <path class="st25" d="M101,305.1l1.3,3.4c.1.4.3.8.4,1.2h0c.1-.3.2-.8.4-1.2l1.1-3.4h1.1l-1.6,4.1c-.8,2-1.3,3-2,3.6-.5.5-1,.6-1.3.7l-.3-.9c.3,0,.6-.2.9-.5.3-.2.6-.6.9-1.2,0-.1,0-.2,0-.2s0-.1,0-.3l-2.1-5.3h1.1Z"/>
              </g>
            </g>
          </g>
          <g>
            <path class="st31" d="M124.9,285.1h-38.3v2.4h40.5c0-1.4-1-2.4-2.2-2.4Z"/>
            <path class="st30" d="M39.8,287.7h53.9c0-.1-10.4-36.2-10.4-36.2-.5-1.9-2.1-3.1-3.9-3.1H30.7c-1.1.1-1.9,1.3-1.5,2.4l10.6,37Z"/>
            <path class="st32" d="M37.4,287.7h53.9c0-.1-10.4-36.2-10.4-36.2-.5-1.9-2.1-3.1-3.9-3.1H28.3c-1.1.1-1.9,1.3-1.5,2.4l10.6,37h0Z"/>
            <path class="st30" d="M53.3,266.4c.3,1.7,2.2,3,4.2,3,2,0,3.3-1.4,3-3.1-.3-1.7-2.2-3-4.2-3-2,0-3.3,1.4-3,3.1Z"/>
          </g>
        </g>
        <rect class="st34" x="5.8" y="378.1" width="354.5" height="2.3"/>
      </g>
      <g>
        <g>
          <path class="st34" d="M90.6,271.5l-5.6,6.6c.4,1.5,3.8,1.9,3.8,1.9l3.5-7.8-1.8-.7h0Z"/>
          <path class="st34" d="M118.7,228.4l5.6-6.6c-.4-1.5-3.8-1.9-3.8-1.9l-3.5,7.8,1.8.7h0Z"/>
          <path class="st34" d="M105.5,281.5c-6.2,0-12.5-1.7-18-5l1.6-2.7c7.3,4.4,16,5.7,23.8,3.6,6.7-1.8,12.1-5.9,15.6-11.9,4.4-7.7,5.7-16.6,3.5-24.4-1.8-6.5-5.8-11.7-11.7-14.9l1.6-2.8c6.6,3.7,11.2,9.5,13.2,16.8,2.4,8.6,1,18.4-3.8,26.9-3.9,6.7-9.9,11.4-17.5,13.4-2.7.7-5.4,1-8.2,1h0Z"/>
        </g>
        <path class="st34" d="M107.2,279.9h-6.7c0,2-2.4,5.3-2.4,5.3h11.3s-2.2-3.8-2.3-5.3h0Z"/>
        <path class="st34" d="M85.2,291h37.3s-.9-4.3-2.6-5.4c-1.6-1.1-29.6-1.4-31.8-.3s-3,5.8-3,5.8Z"/>
        <g>
          <path class="st20" d="M128.2,261.4s0,0,0,0c-1.3,2.7-3.2,5.1-5.4,7.1,0,0,0,0,0,0h0s0,0,0,0c-3.1,2.8-6.8,4.8-11,6,0,0-.1,0-.2,0-2.2.6-4.5,1-6.8,1.1-1.4,0-2.9,0-4.2-.2,0,0,0,0-.1,0-3.5-.5-6.7-1.7-9.5-3.5,0,0,0,0,0,0-1.1-.7-2.1-1.4-3-2.3-1.2-1.1-2.4-2.3-3.4-3.6,0,0,0,0,0-.1-1.7-2.2-3.1-4.8-4-7.6,0,0,0-.1,0-.2-.9-2.6-1.3-5.4-1.3-8.4s.2-4.1.7-6c0,0,0,0,0-.1.9-3.6,2.6-6.8,4.8-9.5,0,0,0,0,0,0,2.5-3.1,5.7-5.5,9.4-7.3,0,0,.1,0,.2,0,.9-.4,1.9-.8,2.9-1.2,2.5-.9,5.1-1.4,7.8-1.6,1.8-.1,3.5,0,5.2.2.1,0,.3,0,.4,0,.9.2,1.8.4,2.7.7,0,0,.1,0,.2,0,1.4.5,2.8,1.1,4,1.8s1,.6,1.4.9c0,0,0,0,0,0,1.9,1.3,3.7,2.9,5.2,4.7,0,0,0,0,0,.1.9,1.1,1.7,2.3,2.4,3.5,0,.1.2.3.2.4,1.6,2.8,2.7,5.9,3.4,9.1,0,0,0,.1,0,.2.2,1.3.4,2.7.5,4.1.2,4.2-.6,8-2.3,11.4h0Z"/>
          <g>
            <path class="st29" d="M111.1,246.1c-.6,1.5-2.6,1.7-4,2.5-2.5,1.3-3.5,4.9-2,7.3.7,1.2,1.9,2,2.7,3.1.8,1.1,1.2,2.8.2,3.8-.6.6-1.4.8-2.2.8-2.7,0-6.3-2.7-5.8-5.8.2-1,.7-1.9,1-3,.3-1,.1-2.3-.7-2.9-.9-.6-2.2-.2-3.2.2s-2.4,1.4-3.5,1.4c-.9,0-2.3-.4-2.9-1.2-.7-.9-.5-2.3.2-3.2.7-.9,1.7-1.6,2.7-2.3.9-.7,1.8-1.6,2-2.8.3-2.1-1.9-3.8-3.9-4-1.3-.2-2.9.2-3.3,1.4-.2.7,0,1.4,0,2.2,0,2.1-1.6,3.8-2.8,5.4s-2.3,4-1.2,5.7c.9,1.3,2.7,1.6,4.3,1.6,2.7,0,6.1-.4,7.9,2,.4.5.7,1.1.4,1.7-.3.7-1.1.9-1.8.9-1,0-2-.3-3-.2s-2,1-1.8,2c.3,1.3,2.3,1.5,2.8,2.7.4,1-.4,2-1.2,2.6-1.2.9-2.7,1.5-4.2,1.6-5.5-4.8-8.9-12-8.9-19.9,0-11.5,7.6-20.7,18-24.2.5.4,1,.8,1.7,1.1,2,1,4.4.6,6.6,1.1.8.2,1.6.5,2,1.2.5,1-.3,2.2-1.2,2.8-1,.5-2.1.6-3.2.8-1,.2-2,.6-2.5,1.4s-.5,2.1.4,2.6c1.1.6,3-.3,3.5.9.4,1-1,2-.9,3.1,0,.6.6,1.1,1.2,1.3.6.2,1.2.1,1.8.1,1.3,0,2.7,0,3.8.7,1.1.7,1.8,2.1,1.3,3.3h0Z"/>
            <path class="st29" d="M122.7,268.6h0c-1.2,0-2.4,0-3.7,0-.8,0-1.7,0-2.5-.2-.8-.2-1.6-.8-1.8-1.6-.7-2.1,2.2-4.1,1.6-6.3-.4-1.3-1.9-2.1-1.9-3.5,0-.7.5-1.2,1.1-1.6s1.2-.5,1.9-.6c2.4-.5,4.8-.9,7.2-1.4,1.1-.2,2.3-.7,2.4-1.8,0-1-1.2-1.6-2.2-1.5-2,.2-3.7,2.1-5.6,1.9-1.5-.2-2.6-1.8-2.2-3.3.3-1.4,1.8-2.7,1.2-4-.6-1.4-2.6-1.3-3.5-2.5-.7-1-.2-2.4.7-3.1.9-.8,2.1-1,3.3-1.2,1.2-.2,2.4-.5,3.2-1.3s1.3-2.2.6-3.1c-1-1.3-3.2-.6-4.7-1.3-1.4-.6-2.1-2.3-1.7-3.7.2-.6.6-1.1,1.1-1.6,7.8,4.4,12.8,13.3,13.3,23,.4,7.5-2.7,14-7.8,18.6h0Z"/>
          </g>
          <path class="st19" d="M110.1,229.2c1.9,3.4-1.8,9.1-8.4,12.9-6.6,3.8-13.4,4.1-15.4.8-1.9-3.4,1.8-9.1,8.4-12.9,6.6-3.8,13.4-4.1,15.4-.8Z"/>
        </g>
        <path class="st19" d="M123,239.8c2.4,1.9,4.8,4,7,6.1,0,0,0-.1,0-.2-2.2-2.1-4.5-4.2-6.9-6.1.4-2,.7-3.9.8-5.9,1,.9,1.9,1.9,2.8,2.9,0-.1-.2-.3-.2-.4-.8-.9-1.6-1.7-2.5-2.6,0-.3,0-.6,0-.9,0,0,0,0,0-.1,0,.3,0,.6,0,.9-1.8-1.7-3.8-3.3-5.9-4.8.3-.3.5-.6.8-.9,0,0,0,0,0,0-.3.3-.5.6-.8.9-1.8-1.2-3.6-2.3-5.5-3.3.3,0,.6-.2.8-.3,0,0-.1,0-.2,0-.3,0-.5.2-.8.2-.6-.3-1.2-.6-1.9-.9-.1,0-.3,0-.4,0,.7.3,1.4.7,2.2,1-2.8.9-5.4,2.2-8,3.9-3.3-1-6.7-1.8-10-2.4,0,0-.1,0-.2,0,3.4.6,6.8,1.4,10.1,2.4-.8.5-1.6,1.1-2.4,1.7-2.9,2.2-5.5,5-7.8,8-3.1-1.7-6.2-3.3-9.3-4.9,0,0,0,0,0,0,3.2,1.6,6.3,3.2,9.3,4.9-.9,1.2-1.7,2.4-2.4,3.7-1.4,2.5-2.7,5.1-3.7,8-2.8-2.2-5.5-4.5-8-7,0,0,0,0,0,.1,2.5,2.5,5.2,4.8,8,7-1.3,3.6-2.2,7.4-2.9,11.5-1.6-1.3-3.1-2.7-4.5-4.1,0,0,0,.1,0,.2,1.4,1.4,2.9,2.8,4.4,4-.2,1.1-.3,2.3-.4,3.5,0,0,0,0,0,.1.1-1.2.3-2.4.4-3.6,2.4,2,5,3.7,7.7,5.3-.6,1.4-1.2,2.8-1.7,4.2,0,.2-.2.4-.3.6h0c0-.2.2-.4.2-.6.6-1.4,1.1-2.8,1.7-4.2.5.3,1,.6,1.5.8,3,1.6,6.2,2.9,9.4,4-1,1-2.1,1.9-3.2,2.8,0,0,0,0,.1,0,1.1-.9,2.2-1.8,3.2-2.8,2.6.8,5.2,1.5,7.9,1.9,0,0,.1,0,.2,0-2.7-.4-5.4-1.1-8-1.9,2.7-2.5,5.2-5.2,7.5-8,3.8,1.5,7.6,2.9,11.5,3.9,0,0,0,0,0,0h0s0,0,0,0c-3.9-1.1-7.8-2.4-11.5-4,1.9-2.4,3.5-4.8,5-7.3.6-1.1,1.2-2.1,1.8-3.2,3.4,2.4,6.8,4.8,10.2,7.4,0,0,0,0,0,0-3.3-2.5-6.7-5-10.2-7.4,2.3-4.6,4-9.4,5-14.2h0ZM117.8,228.9c2.1,1.4,4.1,3.1,5.9,4.8-.2,2-.4,3.9-.8,5.9-2.9-2.3-5.9-4.4-9.1-6.2,1.3-1.6,2.6-3.1,4-4.6ZM112.1,225.5c1.9,1,3.8,2.1,5.6,3.3-1.4,1.5-2.7,3-4,4.6-1.7-.9-3.4-1.8-5.2-2.5-1.4-.6-2.9-1.1-4.3-1.6,2.5-1.6,5.2-2.9,7.9-3.8h0ZM104.1,229.4c1.5.5,3,1,4.4,1.6,1.8.7,3.5,1.6,5.1,2.5-3.2,3.8-6.2,7.8-8.9,11.9-3.6-2.2-7.2-4.2-10.8-6.2,2.9-3.9,6.4-7.2,10.2-9.8h0ZM91.3,243c.8-1.3,1.6-2.5,2.4-3.7,3.7,2,7.3,4.1,10.8,6.2-.5.8-1.1,1.6-1.6,2.4-2,3.2-3.9,6.4-5.7,9.7-3.4-2-6.6-4.3-9.7-6.7,1-2.8,2.3-5.5,3.7-8h0ZM92.4,267.9c-2.7-1.5-5.3-3.3-7.7-5.3.6-4.1,1.6-7.9,2.9-11.5,3.1,2.4,6.3,4.6,9.7,6.7-1.8,3.3-3.4,6.7-4.9,10.1h0ZM103.5,272.7c-3.8-1.2-7.5-2.8-11-4.8,1.5-3.4,3.1-6.8,4.9-10.1.6.4,1.2.7,1.8,1,3.8,2.2,7.8,4.2,11.8,5.8-2.2,2.8-4.7,5.5-7.5,8h0ZM116.1,257.3c-1.5,2.5-3.2,5-5,7.3-4.7-2-9.3-4.3-13.6-6.9,2.2-4.2,4.7-8.2,7.3-12.2,4.5,2.7,8.8,5.5,13.1,8.5-.6,1.1-1.1,2.2-1.8,3.2h0ZM117.9,254c-4.3-3-8.7-5.8-13.1-8.5,2.8-4.1,5.8-8.1,8.9-11.9,3.2,1.8,6.3,3.9,9.2,6.2-1,4.8-2.6,9.6-5,14.2h0Z"/>
      </g>
      <g class="st16">
        <text class="st14" transform="translate(35 156) rotate(-21.4)"><tspan x="0" y="0">4</tspan></text>
      </g>
      <g class="st16">
        <text class="st14" transform="translate(122.1 132.2) rotate(21.6)"><tspan x="0" y="0">4</tspan></text>
      </g>
      <g class="st16">
        <text class="st18" transform="translate(77.9 128.6)"><tspan x="0" y="0">0</tspan></text>
      </g>
      <g class="st16">
        <text class="st12" transform="translate(31.7 157.4) rotate(-21.4)"><tspan x="0" y="0">4</tspan></text>
      </g>
      <g class="st16">
        <text class="st12" transform="translate(119.1 131.2) rotate(21.6)"><tspan x="0" y="0">4</tspan></text>
      </g>
      <g class="st16">
        <text class="st11" transform="translate(74.2 126.6)"><tspan x="0" y="0">0</tspan></text>
      </g>
    </g>
  </g>
</svg>