<?xml version="1.0" encoding="UTF-8"?>
<svg id="_Layer_1" data-name="Layer_1" xmlns="http://www.w3.org/2000/svg" version="1.1" viewBox="0 0 387.3 321.4">
  <!-- Generator: Adobe Illustrator 29.3.0, SVG Export Plug-In . SVG Version: 2.1.0 Build 146)  -->
  <defs>
    <style>
      .st0 {
        fill: #13468a;
      }

      .st1, .st2, .st3, .st4, .st5, .st6, .st7, .st8, .st9, .st10, .st11, .st12 {
        stroke-width: .2px;
      }

      .st1, .st2, .st3, .st4, .st5, .st6, .st7, .st8, .st9, .st10, .st12 {
        stroke: #222221;
      }

      .st1, .st2, .st3, .st6 {
        stroke-linejoin: round;
      }

      .st1, .st2, .st4 {
        stroke-linecap: round;
      }

      .st1, .st4, .st10 {
        fill: none;
      }

      .st13 {
        fill: #fcfafb;
      }

      .st14, .st15 {
        fill: #f65c5b;
      }

      .st2, .st16, .st3, .st5, .st6, .st8, .st9, .st11, .st12 {
        fill-rule: evenodd;
      }

      .st2, .st6, .st7, .st12 {
        fill: #fff;
      }

      .st16 {
        fill: #222221;
      }

      .st3, .st8 {
        fill: #e8c12b;
      }

      .st15 {
        display: none;
      }

      .st4, .st5, .st7, .st8, .st9, .st10, .st11, .st12 {
        stroke-miterlimit: 22.9;
      }

      .st5, .st11 {
        fill: #b7343c;
      }

      .st17 {
        fill: #fefdfe;
      }

      .st9 {
        fill: #244484;
      }

      .st11 {
        stroke: #fff;
      }
    </style>
  </defs>
  <circle class="st15" cx="195.9" cy="160.4" r="145"/>
  <g id="_Слой_11" data-name="_Слой_1">
    <path d="M191.9,251.2c21.7-.1,33.8-15.6,33.9-35.4l-.9-133.5c0-27.2-15.5-36.6-45.4-36.5l-127-.3c-22.5-.6-34.6,14.6-34.5,35.1l-.6,143.1c0,13.8,17.8,28.1,33,28.4l-1.2,23c-.3,6.2,5.9,10.7,11.2,6.8l40.4-28.6,91.1-2.1Z"/>
    <path class="st0" d="M48.4,49.3c.7,1.1,95.5.2,141.4.6l11.9,2c6.4,1.5,10.7,6,13.8,10.8s6.2,14.3,6.3,22.1c1.9,133.4,13.9,163.8-43.5,164.4h-77.9c-13.2,8.6-25.7,18-38.7,27.1-1.7,1.2-2.3,2-3.5,2.9-2.9,2.2-6,1.2-6.4-2.6-.8-7.9.2-18.1.6-26.1-7.3-1.7-21-6.2-25.7-11.6-4.1-4.8-5.3-9.8-5.8-16.4V79.3l2.3-10.6,4.2-7.7c5.2-6.5,12.8-10.9,21.3-11.6h0Z"/>
  </g>
  <g id="_Слой_2">
    <path class="st13" d="M199.3,79.1c3.2,6.6,1.5,15.9,1.5,16.9.2,2.4-.5,4.4-.4,6.8l-6.8,7.5c-.2.2-.4.5-.6.6l-27.1,22.6,39.9.6c.1,2.1,0,4.3,0,6.5h-70.9l-.6-63.2c1.9,0,7.2-.4,8.4,0v40c.8,0,.9-1.1,1.3-1.3,10.2-6.7,20.4-17.1,30-25.1,3.2-2.6,17.4-15.1,20-15.5,3.7-.5,3.3,1.8,5.3,3.6h0Z"/>
    <path class="st13" d="M44.2,166.4l65.1-.6v66.4c-2.6,0-5.2,0-7.7,0l.6-44.5c-1.1-.3-1.3.5-1.9,1-15.3,11.8-29.8,28.1-45.8,39.3-1.5,1.1-3.9,3.1-5.6,2.1-.9-.5-5.5-26.4-5.2-29.4,10.6-8.2,20.9-16.9,30.8-25.9.1,0,2.2-.6,1.9-1.3h-32.2c-.4-1.1,0-5.4,0-7.1h0Z"/>
    <path class="st13" d="M98.3,115.4c1.1.9,2.1,1.8,3.2,2.6,0-5.1,0-10.3,0-15.5,0-8.4,0-16.7,0-25.1,2.4-.5,4.6-.6,7.1-.7l.6,63.8H44.2v-1.3c0-1.5,0-3,0-4.5,0-.2,0-.4,0-.6,2.1.7,5.3-.6,6.8-.6h26.1c0-1.9-3.6-3.1-5.1-4.5-.2-.2-.4-.4-.6-.6-1-1-1.9-1.9-3.2-2.6-.2-.2-.4-.4-.6-.6-3.3-3-6.8-5.6-10.3-8.4-.2-.2-.4-.4-.6-.6l-1.9-1.3c-3.3-3-6.5-6.2-10-9-.7-2.9-.3-6-.3-9,0,0,1.1-17.3,1.6-18,1.4-2.1,5.8-2.6,8-1.6,14.7,13,29.4,25.9,44.5,38.4h0Z"/>
    <path class="st13" d="M205.7,163.6l-76.8-2.9,6.2,70.7c2.6,0,5.5.4,8.1.4l-.8-43.9c1.1-.3,1.3.5,1.9,1,15.3,11.8,29.8,28.1,45.8,39.3,1.5,1.1,3.9,3.1,5.6,2.1.9-.5,2.8-3.5,3.4-4.4,2.1-10.6,3.9-21.5,3.6-24.4-10.6-8.2-22.7-17.5-32.6-26.5-.1,0-2.2-.6-1.9-1.3h37.4c.4-1.1.2-8.5.2-10.2h0Z"/>
  </g>
  <g id="_Слой_4">
    <path class="st14" d="M134.4,77.4l.6,63.2h70.9c.1,8.6.1,17.2,0,25.8l-70.9-.6v65.8c-8.6-.3-17.1.8-25.8.6v-66.4l-65,.6c-.1-8.6,0-17.2,0-25.8h65.1l-.6-63.8c8.6-.3,17.2.5,25.8.6h0Z"/>
    <path class="st14" d="M198.5,226.6c-17.6-14.9-34.7-28.3-51.8-43.8-3.1-2.8-7.8-6.1-9-10h17.7l46.6,38.9c.4.7-2.4,14.1-3.5,14.9Z"/>
    <path class="st14" d="M44.4,209.1c3-1.7,5.2-3.8,7.9-5.9,11.9-9.8,23.6-19.8,35.4-29.6h18.4c-.1,1.7-2.1,3.1-3.2,4.2-7.4,7.1-16.6,14.6-24.5,21.3-10.8,9.1-20.4,16.8-31.4,25.7-1.1-7-2.7-10-2.6-15.6Z"/>
    <path class="st14" d="M45.5,80.6c1.9.7,3.9,2.6,5.5,3.9,16.5,13.7,35.1,28.3,50.6,42.9.7.6,5.3,4.8,4.5,5.5-5.9.5-12,1.4-17.9.2l-44-36.3c-.1-5.2-.8-11.6,1.3-16.1h0Z"/>
    <path class="st14" d="M199.6,79.9c-1.9.7-3.9,2.6-5.5,3.9-16.5,13.7-35.1,28.3-50.6,42.9-.7.6-5.3,4.8-4.5,5.5,5.9.5,12,1.4,17.9.2l44-36.3c.1-5.2.8-11.6-1.3-16.1h0Z"/>
  </g>
  <g id="_Слой_21" data-name="Слой_2">
    <path d="M213.2,288.7c-20-.1-36.1-16.3-36.2-36.3l-.6-122.4c0-27.5,22.2-49.8,49.7-49.8l108.4.2c20.7-.7,37.8,16,37.7,36.8l-.8,145.6c0,14-11.3,25.4-25.2,25.7h0s.9,23.2.9,23.2c.2,6.3-7,9.9-11.9,5.9l-35.6-29.1-86.4.3Z"/>
    <path d="M364,95.6l.9,23.2c.2,6.3-7,9.9-11.9,5.9l-35.6-29.1"/>
  </g>
  <g id="_Слой_3">
    <path class="st17" d="M179.7,222.8c0-.2,0-.4,0-.7h189c0,12.6,1.9,39.7-3.2,50.1-4.2,8.5-12.3,14.1-21.9,14.2-.9,1.1,2.5,24.2-.4,27.7-1.3,1.6-4.6,2.7-6.2,1-12.4-9.8-24.3-20.8-37.3-29.4-27.4,1.6-56.9-2-84,0-16.2,1.2-35.1-11.7-36-29.1,0-.9-.7-27.1,0-33.7h0Z"/>
    <path class="st14" d="M368.8,158.6h-189c0-6.4,0-12.8,0-19.2,0-1.5,0-3.1,0-4.6,0-2.5.2-5.1,0-7.6,0-1-.4-5,0-6.9,1.2-7.7,5.7-15.8,11.2-21.2,8.4-8.2,25.7-15,37.4-15.9,35.4-2.6,74,2,109.7,0,15.1,1.2,29.6,14.9,30.7,30.1,1.1,14.2,0,30.9,0,45.4h0Z"/>
    <path class="st0" d="M179.7,158.6c62.6,0,126.5,0,189,0v63.5s-189,0-189,0c0,.2.1-36.9,0-45.6,0-2.2.1-4.4,0-6.6,0-.4,0-.9,0-1.3,0,0,0-16.3,0-9.9h0Z"/>
    <g>
      <g>
        <path class="st8" d="M254.7,138.3c.3-.7,0-1.7,0-2,0-.1.1-.4.2-.5,2.3-3.2,2.3-3.4.8-4.6-1.4-1.1-4.6-2.1-6.8-2.8-.5-.4-.8-.8-1.2-1.3,4.4.3,9.1,2.1,11.4,4.2,1.3,1.1-.3,3.3-2.2,6.6-1.2.8-1.7,1.2-2.2.4Z"/>
        <path class="st8" d="M255.3,138.5c.1-.3.2-.6.2-.8.1-.5,0-1,0-1.4.5-.7,1.1-1.5,1.5-2.3.3-.6.5-1.2.4-1.8-.2-.7-.8-1.2-1.3-1.6-.6-.5-1.5-.9-2.4-1.3-2-.8-3.5-1.2-4.6-1.3l.7.7c2.1.7,4.6,1.6,5.8,2.5,1.5,1.2,1.5,1.5-.8,4.6,0,.1-.2.4-.2.5.1.2.3,1.3,0,2,.2.4.5.2.8.2h0Z"/>
        <path class="st8" d="M236.4,124.3c0-.4,0-.3,0,.3,0-.1.2-.2.2-.2.2,0,.3.3.3.9v.5c5.7,0,9.2.8,10,2.5.7,1.4-.5,3.6-2.4,6.2-.2.3-.2.3,0,.5.3.4.6,1,.4,1.6,1.1.6,2.5.8,3.6.3.2-.5.6-.8,1-1,0,0,.3-.2.3-.2.6-2,1.3-3.8,1.8-5.5,1.7-5.3-13.1-5.9-15.4-5.9h0s0,0,0,0Z"/>
        <path class="st3" d="M251.5,147.3c.6-1.1,1.2-2.3,2-3.2-2.1,1.5-3.1,1.3-3.3-.7-.1,0-.3,0-.5,0-1.6,2.4-3.1,2.1-4.6-1-2,3.2-3.8,3.1-5.1-.2-2.3,2.9-4.3,2.9-5.9,0v-.4c0,0,0,0-.2,0h0c0,0-.1,0-.2,0,0,0-.1,0-.2,0h0c-.2.1-.3,0-.2,0v.4c-1.6,2.8-3.6,2.8-5.9,0-1.4,3.3-3.1,3.4-5.1.2-1.5,3.1-3,3.4-4.6,1-.2,0-.3,0-.5,0-.2,2-1.2,2.2-3.3.7.8,1,1.4,2.1,2,3.3,5.9-.2,11.8-.5,17.7-.8,5.9.3,11.8.7,17.7,1h0s0,0,0,0Z"/>
        <path class="st3" d="M253.9,142.5h-.6c-1.2,2.9-2.4,2.9-2.6,0,.3,0,.2-.6.5-.4.2.1.4-.2.2-.3-.4-.3-.7-.2-1,0-.1-.5-.5-.7-.9-.5-.2,0-.1.4,0,.4.3,0,.2.3.3.5-2.2,2.8-3.3,2.5-3-1.3-.5-.1-1.1-.2-1.7-.4-2,4-3.5,4.2-4.6.6.2-.2.2-.7.5-.5.2,0,.4-.3.2-.4-.4-.4-.9-.2-1.2.2-.2-.5-.7-.7-1.1-.4-.2.1,0,.5.1.5.4-.1.2.4.5.6-.9,3.4-5.4,3.6-4.7-1.4-.4,0-.8,0-1.1,0-.4,0-.7,0-1.2,0,.7,5.1-3.8,4.8-4.7,1.4.3-.2.1-.7.5-.6.2,0,.3-.3.1-.5-.5-.3-.9-.1-1.1.4-.3-.5-.8-.6-1.2-.2-.2.2,0,.5.2.4.4-.1.3.3.5.5-1.2,3.6-2.6,3.4-4.6-.6-.5.2-1.1.3-1.7.4.3,3.8-.9,4.1-3.1,1.2,0-.2,0-.5.3-.5.2,0,.3-.3,0-.4-.4-.2-.8,0-.9.5-.3-.3-.6-.3-1,0-.1.2,0,.4.2.3.3-.2.2.3.5.4-.2,2.9-1.3,2.8-2.5-.2h-.7c0,.8.2,1.6.7,2.1,1.8,2.4,3.2,1.8,3.3-.8,2.4,2.9,4.3,2.5,4.6-.5,2,3.8,5.3,2,5.4-.3.9,3.3,5.9,3.3,6.2-.5.3,3.8,5.3,3.9,6.2.6,0,2.3,3.3,4.1,5.4.4.3,3,2.1,3.4,4.6.5,0,2.6,1.4,3.2,3.3.8.4-.6.7-1.3.7-2h0,0Z"/>
        <g>
          <path class="st8" d="M238,138.6c-.3-.2-.3-.1-.4-.2-.1-.2-.1-.4,0-.6.1-.9-.4-.8-1-.4-.3.2-.6.7-.9.9-.3.2-.5.3-.6.4,0,.4,0,.7,0,.8h0v.8c0,0,.3.1.6.4s.6.7.9.9c.6.4,1.2.5,1-.4,0-.2,0-.5,0-.6,0-.1.1,0,.4-.2.2-.1.3-.2.4-.4s0-.3,0-.5,0-.3,0-.5c0-.2-.2-.3-.4-.4h0Z"/>
          <path class="st16" d="M235,139.6v.2c.7,0,1.2.4,1.7.8-.3-.5-1-.8-1.7-.9h0Z"/>
          <path class="st16" d="M235,139.3v-.2c.7,0,1.2-.3,1.7-.7-.3.5-1,.8-1.7.9Z"/>
          <path class="st8" d="M237.5,137.4c-.2,0-.4.2-.6.3-.3.3-.1.7.3,1.1.1.1.2.4.2.6s0,.5-.2.6c-.4.4-.5.9-.3,1.1.2.2.4.3.6.3,0-.1,0-.2,0-.4,0-.2,0-.5,0-.6,0-.1.1,0,.4-.2.2-.1.3-.2.4-.4s0-.3,0-.5,0-.3,0-.5c0-.2-.2-.3-.4-.4-.3-.2-.3-.1-.4-.2-.1-.2-.1-.4,0-.6,0-.2,0-.3,0-.4h0s0,0,0,0Z"/>
        </g>
        <path class="st8" d="M213,138.1c-.3-.7,0-1.7,0-1.9,0-.1-.1-.4-.2-.5-2.2-3.2-2.3-3.5-.7-4.6,1.4-1.1,4.6-2.1,6.8-2.8.5-.4.8-.8,1.2-1.2-4.3.3-9.1,2-11.5,4.1-1.3,1.1.2,3.3,2.1,6.6,1.1.8,1.7,1.2,2.1.4h0Z"/>
        <path class="st8" d="M212.4,138.3c0-.3-.2-.6-.2-.8,0-.5,0-.9.1-1.4-.5-.7-1.1-1.5-1.5-2.3-.3-.6-.5-1.2-.4-1.8.2-.7.8-1.1,1.3-1.6.7-.5,1.5-.9,2.4-1.3,2-.8,3.5-1.2,4.7-1.2l-.7.7c-2.1.7-4.6,1.6-5.8,2.5-1.6,1.2-1.5,1.5.7,4.6,0,0,.2.3.2.5-.1.2-.3,1.3,0,2-.2.4-.5.2-.7.2h0Z"/>
        <path class="st8" d="M231.5,124.3c0-.4,0-.3,0,.3,0-.1-.2-.2-.2-.2-.2,0-.3.3-.3.9,0,.2,0,.3,0,.5-5.8-.2-9.2.7-10.1,2.4-.7,1.4.5,3.6,2.3,6.3.2.3.2.3,0,.5-.3.4-.7,1-.4,1.6-1.1.6-2.5.8-3.6.2-.2-.5-.6-.8-1-1,0,0-.3-.2-.3-.2-.6-2-1.2-3.8-1.7-5.5-1.6-5.3,13.2-5.7,15.5-5.7h0Z"/>
        <path class="st8" d="M232.4,146.3l-.2,5.8c5.7.2,12.5.5,18.2.7l1.2-5.4c-13.7-.9-20.1-1.2-19.2-1.1h0Z"/>
        <path class="st8" d="M232.4,146.3h0c-3.1.2-8.5.4-16.3.9l1.1,5.4c5.2-.1,11.2-.3,16.6-.4,5.3.2,11.4.5,16.6.6l1.2-5.4c-7.8-.5-13.2-.9-16.2-1h0c.3,0-.2-.1-1.4,0-1.3,0-1.8,0-1.4,0h0Z"/>
        <path class="st8" d="M233.8,147h-4s0,0,0,0h-.2s0,0,0,0h0c-.2,0-.5,0-.7,0h-2c-.4,0-.7,0-1.1,0h0c-.5,0-1.1,0-1.6,0h-.1c-1.1,0-2.1.1-3.2.2h0c-1.6.1-3.1.2-4.6.4-.9,0-1-.9,0-1,1.5-.1,3.1-.3,4.6-.4h0c2.1-.2,4.3-.3,6.4-.3h.5c.9,0,1.8,0,2.7,0h4.4c.2,0,.4,0,.6,0h.4c.2,0,.4,0,.6,0h1s.1,0,.1,0c.9,0,1.8,0,2.7,0h.2s0,0,0,0h.2c2.2,0,4.3.2,6.4.4h0c1.6.1,3.1.3,4.6.4,1,.1.9,1.1,0,1-1.5-.2-3.1-.3-4.6-.4h0c-1.1,0-2.1-.2-3.2-.2h-.1c-.5,0-1.1,0-1.6,0h0c-.4,0-.7,0-1.1,0h-.3s-.1,0-.1,0h-.2s-.2,0-.2,0h0s-.2,0-.2,0h0s-.1,0-.1,0h-.2s-.2,0-.2,0h-.3s0,0,0,0c-.2,0-.5,0-.7,0h-.3s-.2,0-.2,0h-.2s0,0,0,0h-.1s0,0,0,0h-.5s0,0,0,0h-.2s0,0,0,0h-.7s-.2,0-.2,0h-.4s-.1,0-.1,0h-1.1c0,0,0,0,0,0Z"/>
        <path class="st12" d="M220.4,136.5c.6,0,1.1-.5,1.1-1.1s-.5-1.1-1.1-1.1-1.1.5-1.1,1.1.5,1.1,1.1,1.1Z"/>
        <circle class="st7" cx="210.9" cy="137.6" r="1"/>
        <path class="st12" d="M209.9,136.8c.6,0,1-.5,1-1s-.5-1-1-1-1,.5-1,1,.5,1,1,1Z"/>
        <path class="st12" d="M209,134.8c.6,0,1-.5,1-1s-.5-1-1-1-1,.5-1,1,.5,1,1,1Z"/>
        <path class="st8" d="M233.8,140.8c.7,0,1.4-.6,1.4-1.4s-.6-1.4-1.4-1.4-1.4.6-1.4,1.4.6,1.4,1.4,1.4Z"/>
        <g>
          <path class="st8" d="M227.2,136.4c.6,0,.4,1,.3,1.3-.2.3-.3.3-.5,0-.2-.2-.4-1.3.2-1.3h0Z"/>
          <path class="st12" d="M227.3,137c1.4,0,1,2.4.8,3-.4.7-.7.7-1.2,0-.3-.5-1-2.9.4-3h0Z"/>
        </g>
        <g>
          <path class="st8" d="M216,137.8c.6-.2.7.9.6,1.1,0,.3-.2.4-.5.1-.2-.2-.7-1.1-.2-1.3h0Z"/>
          <path class="st12" d="M216.1,138.4c1.4-.4,1.6,2.1,1.4,2.7-.2.8-.5.9-1.1.3-.5-.4-1.7-2.6-.3-3h0Z"/>
        </g>
        <path class="st3" d="M230.8,125.3c-3-.3-6.1,0-9.1,1.2-2.6,1-2.3,4,.8,8.1-.3.5-.5,1.2-.5,1.9.3,0,.6,0,.9,0-.2-.5,0-1.1.3-1.5.2-.3.2-.2,0-.5-1.9-2.6-3.1-4.9-2.3-6.3.9-1.7,4.3-2.5,10.1-2.4,0-.2,0-.3,0-.5h0c0,0,0,0,0,0h0Z"/>
        <path class="st12" d="M216.2,128.2c.6,0,1.1-.5,1.1-1.1s-.5-1.1-1.1-1.1-1.1.5-1.1,1.1.5,1.1,1.1,1.1Z"/>
        <path class="st12" d="M218.3,127.5c.6,0,1.1-.5,1.1-1.1s-.5-1.1-1.1-1.1-1.1.5-1.1,1.1.5,1.1,1.1,1.1Z"/>
        <path class="st8" d="M218.6,126.3c.1.1.2.3.3.4-1.7.9-2.4,1.9-2.3,2.9,0,.2.5,2,1.7,5.5.8.6,1.4,1,1.8,1.5,0,0,.1.2,0,.2.1.5-.5.4-.9.3-.2-.5-.8-1.1-1.1-1.3,0,0-.3-.2-.3-.2-.6-2-1.2-3.8-1.7-5.5-.5-1.7.6-2.9,2.5-3.7h0Z"/>
        <path class="st3" d="M211.8,138.9v.3c-.6.1-1,.1-1.3,0,.6-.6,1-.7,1.3-.4h0Z"/>
        <path class="st8" d="M211.8,138.1c.3,0,.3.1.5.2.2,0,.4,0,.6-.1.7-.4.7.3.4.9-.2.4,0,.8,0,1.2.2.4.2.6,0,.7,0,0-.2.1-.3.2-.2.2-.3.2-.3-.1-.7-.3-.9-.9-1.1-1.5-.3-.8-1.4-1,.2-1.3h0Z"/>
        <path class="st8" d="M212,138.1c.6.2.7-.1,1,0-.2.9-.3,1.4-1.2.9-.5-.3-1.2.1-1.3.4,0,.1-.3-.1-.5-.4-.5-1,1.2-1.1,2-.8h0Z"/>
        <path class="st12" d="M229.8,125.1c.6,0,1.1-.5,1.1-1.1s-.5-1.1-1.1-1.1-1.1.5-1.1,1.1.5,1.1,1.1,1.1Z"/>
        <path class="st12" d="M227.7,125.1c.6,0,1.1-.5,1.1-1.1s-.5-1.1-1.1-1.1-1.1.5-1.1,1.1.5,1.1,1.1,1.1Z"/>
        <path class="st12" d="M225.5,125.2c.6,0,1.1-.5,1.1-1.1s-.5-1.1-1.1-1.1-1.1.5-1.1,1.1.5,1.1,1.1,1.1Z"/>
        <path class="st12" d="M223.5,125.6c.6,0,1.1-.5,1.1-1.1s-.5-1.1-1.1-1.1-1.1.5-1.1,1.1.5,1.1,1.1,1.1Z"/>
        <path class="st12" d="M210.2,131.1c.6,0,1.1-.5,1.1-1.1s-.5-1.1-1.1-1.1-1.1.5-1.1,1.1.5,1.1,1.1,1.1Z"/>
        <path class="st12" d="M212,129.9c.6,0,1.1-.5,1.1-1.1s-.5-1.1-1.1-1.1-1.1.5-1.1,1.1.5,1.1,1.1,1.1Z"/>
        <path class="st12" d="M214.1,128.9c.6,0,1.1-.5,1.1-1.1s-.5-1.1-1.1-1.1-1.1.5-1.1,1.1.5,1.1,1.1,1.1Z"/>
        <path class="st12" d="M208.7,132.8c.6,0,1.1-.5,1.1-1.1s-.5-1.1-1.1-1.1-1.1.5-1.1,1.1.5,1.1,1.1,1.1Z"/>
        <polygon class="st8" points="229.8 149.3 233.8 147.3 237.8 149.3 233.8 151.3 229.8 149.3"/>
        <path class="st9" d="M233.8,150.4c1,0,1.8-.5,1.8-1.2s-.8-1.2-1.8-1.2-1.8.5-1.8,1.2.8,1.2,1.8,1.2Z"/>
        <polygon class="st8" points="221 149.7 224.9 147.5 228.9 149.3 225.1 151.5 221 149.7"/>
        <path class="st5" d="M224.9,148.3c1,0,1.8.4,1.8,1.1,0,.7-.7,1.2-1.7,1.3-1,0-1.8-.4-1.8-1.1,0-.7.7-1.2,1.7-1.3Z"/>
        <path class="st8" d="M216.4,148.1l4.1,1.6-3.4,2.3c-.9-.3-1.6-3.3-.7-3.9Z"/>
        <path class="st9" d="M216.4,148.8c1,0,1.8.4,1.9,1s-.7,1.3-1.7,1.4c-.6,0-1-.5-1.1-1.1s.2-1.2.9-1.3h0Z"/>
        <path class="st12" d="M229.5,151.1c.3,0,.6-.2.6-.6s-.2-.6-.6-.6-.6.2-.6.6.2.6.6.6Z"/>
        <path class="st12" d="M221,151.5c.3,0,.6-.2.6-.6s-.2-.6-.6-.6-.6.2-.6.6.2.6.6.6Z"/>
        <path class="st12" d="M220.7,149c.3,0,.6-.2.6-.6s-.2-.6-.6-.6-.6.2-.6.6.2.6.6.6Z"/>
        <path class="st12" d="M229.5,148.6c.3,0,.6-.2.6-.6s-.2-.6-.6-.6-.6.2-.6.6.2.6.6.6Z"/>
        <path class="st8" d="M214.4,142.5c.4-.1,1.1.8,1.2.8.2-.5-.2-1.8-.9-2.8-.5-.2-.5-.5-.7-1.3,0-.2-.5,0-.5.3,0,.4,0,.6,0,1,0,.1,0,.3-.1.4.8.3,1,.7.9,1.6h0Z"/>
        <path class="st3" d="M214,139.2c0,.2,0,.3-.1.6,0,.2,0,.4.2.6.1.2.3.3.5.4.1,0,.3.3.4.5s.2.5.2.7c0,.6.1,1.2.4,1.3.2,0,.3,0,.4,0,0-.1,0-.3-.1-.4-.1-.2-.2-.4-.2-.6,0-.2,0-.3,0-.6,0-.2.2-.3.2-.5,0-.4-.3-1-.7-1s-.6,0-.8-.6c0-.2-.2-.3-.2-.4h0Z"/>
        <g>
          <path class="st8" d="M212.5,140.7c.1,0,.2-.2.4-.2.2,0,.5,0,.7,0,1,.3,1.4,2,.3,2.4-.2,0-.4-.2-.6-.6-.2-.5-.5-.9-.7-1.2-.2-.2-.2-.4,0-.5h0Z"/>
          <path class="st8" d="M213,140.8c.9-.4,1.6,1.4.7,1.8-.5.2-.5-.4-.6-.7-.1-.4-1-.7-.1-1h0Z"/>
          <path class="st9" d="M213.1,141c.5-.2,1.1.9.5,1.1-.4.2-.7,0-.8-.4-.1-.3,0-.6.3-.8h0Z"/>
        </g>
        <polygon class="st8" points="246.6 149.9 242.8 147.6 238.7 149.3 242.5 151.6 246.6 149.9"/>
        <path class="st5" d="M242.7,148.4c-1,0-1.8.4-1.9,1.1s.7,1.2,1.7,1.3c1,0,1.8-.4,1.9-1.1s-.7-1.2-1.7-1.3Z"/>
        <path class="st8" d="M251.2,148.3l-4.2,1.6,3.4,2.3c.9-.3,1.6-3.3.7-3.9h0Z"/>
        <path class="st9" d="M251.1,149c-1-.1-1.8.3-1.9,1s.7,1.3,1.7,1.4c.6,0,1-.5,1.1-1.1,0-.6-.2-1.2-.9-1.3h0Z"/>
        <path class="st12" d="M238.1,151.2c.3,0,.6-.2.6-.6s-.2-.6-.6-.6-.6.2-.6.6.2.6.6.6Z"/>
        <path class="st12" d="M246.6,151.7c.3,0,.6-.2.6-.6s-.2-.6-.6-.6-.6.2-.6.6.2.6.6.6Z"/>
        <path class="st12" d="M246.9,149.1c.3,0,.6-.2.6-.6s-.2-.6-.6-.6-.6.2-.6.6.2.6.6.6Z"/>
        <path class="st12" d="M238.1,148.7c.3,0,.6-.2.6-.6s-.2-.6-.6-.6-.6.2-.6.6.2.6.6.6Z"/>
        <path class="st12" d="M219.5,134.7c.6,0,1.1-.5,1.1-1.1s-.5-1.1-1.1-1.1-1.1.5-1.1,1.1.5,1.1,1.1,1.1Z"/>
        <path class="st12" d="M218.7,132.8c.6,0,1.1-.5,1.1-1.1s-.5-1.1-1.1-1.1-1.1.5-1.1,1.1.5,1.1,1.1,1.1Z"/>
        <path class="st12" d="M221.4,126.3c.6,0,1.1-.5,1.1-1.1s-.5-1.1-1.1-1.1-1.1.5-1.1,1.1.5,1.1,1.1,1.1Z"/>
        <path class="st12" d="M219.6,127.2c.6,0,1.1-.5,1.1-1.1s-.5-1.1-1.1-1.1-1.1.5-1.1,1.1.5,1.1,1.1,1.1Z"/>
        <path class="st12" d="M218.3,128.7c.6,0,1.1-.5,1.1-1.1s-.5-1.1-1.1-1.1-1.1.5-1.1,1.1.5,1.1,1.1,1.1Z"/>
        <path class="st12" d="M218.1,130.7c.6,0,1.1-.5,1.1-1.1s-.5-1.1-1.1-1.1-1.1.5-1.1,1.1.5,1.1,1.1,1.1Z"/>
        <path class="st8" d="M234.5,116.1c.3,0,.5-.2.5-.5s-.2-.5-.5-.5c0-.3-.2-.5-.5-.5s-.5.2-.5.5c-.3,0-.5.2-.5.5s.2.5.5.5v1.1h-1c0-.3-.2-.5-.5-.5s-.5.2-.5.5c-.3,0-.5.2-.5.5s.2.5.5.5c0,.3.2.5.5.5s.5-.2.5-.5h1v3.7s1.1,0,1.1,0v-3.7h1c0,.3.2.5.5.5s.5-.2.5-.5c.3,0,.5-.2.5-.5s-.2-.5-.5-.5c0-.3-.2-.5-.5-.5s-.5.2-.5.5h-1v-1.1h0Z"/>
        <path class="st9" d="M233.9,125.6c1.6,0,3-1.3,3-3s-1.3-3-3-3-3,1.3-3,3c0,1.6,1.3,3,3,3Z"/>
        <path class="st8" d="M234,119.6c.2,0,.4,0,.5,0v2.4h-1.1v-2.4c.2,0,.4,0,.6,0h0Z"/>
        <path class="st8" d="M236.9,122c0,.2,0,.4,0,.6v.4c-1,0-2,0-3,0s-2,0-3,0c0-.1,0-.3,0-.4,0-.2,0-.4,0-.6,1,0,2,0,2.9,0s2,0,2.9,0h0Z"/>
        <path class="st3" d="M231.6,124.5c-.6-.4-.7.2-.7.8,0,2.3.5,4.5-.2,7.3-.2,1.1-.7,1.8-.3,2,1,.6,1.4,1.1,1.3,1.3.3.6,1,.5,2.1.3,1.1.2,1.9.3,2.1-.3-.2-.3.3-.8,1.3-1.3.4-.2,0-.8-.2-2-.6-2.8-.2-5,0-7.3,0-.6,0-1.2-.7-.8-1.3.8-3.4.8-4.7,0h0,0Z"/>
        <path class="st12" d="M233.9,135.5c.7,0,1.2-.5,1.2-1.2s-.5-1.2-1.2-1.2-1.2.5-1.2,1.2.5,1.2,1.2,1.2Z"/>
        <path class="st12" d="M233.9,133.4c.7,0,1.2-.5,1.2-1.2s-.5-1.2-1.2-1.2-1.2.5-1.2,1.2.5,1.2,1.2,1.2Z"/>
        <path class="st12" d="M233.9,131.5c.7,0,1.2-.5,1.2-1.2s-.5-1.2-1.2-1.2-1.2.5-1.2,1.2.5,1.2,1.2,1.2Z"/>
        <path class="st12" d="M233.9,125.8c.7,0,1.2-.5,1.2-1.2s-.5-1.2-1.2-1.2-1.2.5-1.2,1.2.5,1.2,1.2,1.2Z"/>
        <path class="st12" d="M233.9,127.6c.7,0,1.2-.5,1.2-1.2s-.5-1.2-1.2-1.2-1.2.5-1.2,1.2.5,1.2,1.2,1.2Z"/>
        <path class="st12" d="M233.9,129.5c.7,0,1.2-.5,1.2-1.2s-.5-1.2-1.2-1.2-1.2.5-1.2,1.2.5,1.2,1.2,1.2Z"/>
        <path class="st3" d="M232.5,135.7c-.5-.9-1-1.4-1.5-1.7.7-2.3.9-5.2.5-8.9,0-.5-.2-.8-.4-.8-.2,0-.3.3-.3.9.1,2,.3,3.7.2,5.2,0,1.3-.4,2.4-.8,3.7,0,.2,0,.3.7.7.5.3.7.6.8.9.1,0,.2,0,.3,0,.4.1.6.1.5,0h0Z"/>
        <path class="st3" d="M235.2,135.7c.5-.9,1-1.4,1.5-1.7-.7-2.3-.9-5.2-.4-8.9,0-.5.2-.8.4-.8.2,0,.3.3.3.9-.1,2-.3,3.7-.2,5.2,0,1.3.4,2.4.7,3.7,0,.2,0,.3-.7.6-.4.2-.7.6-.8.9-.1,0-.2,0-.3,0-.5.1-.6,0-.5,0h0Z"/>
        <g>
          <path class="st8" d="M234.7,135.3c.2.3.1.3.2.4.1.1.4.1.6,0,.9-.1.8.4.4,1-.2.3-.7.6-.9.9-.2.3-.3.5-.4.6h-1.6c-.1,0-.1-.3-.4-.6-.2-.3-.7-.6-.9-.9-.4-.6-.5-1.2.4-1,.2,0,.5,0,.6,0,.1,0,0-.1.2-.4.1-.2.2-.3.4-.4.2,0,.3,0,.5,0s.3,0,.5,0c.1,0,.3.2.4.4h0Z"/>
          <path class="st16" d="M233.7,138.3h-.2c0-.7-.3-1.2-.7-1.7.5.3.8,1,.9,1.7h0Z"/>
          <path class="st16" d="M234,138.3h.2c0-.7.4-1.2.8-1.7-.5.3-.8,1-.9,1.7h0Z"/>
          <path class="st8" d="M236,135.8c0,.2-.2.4-.3.6-.3.3-.7,0-1.1-.3-.1-.1-.4-.2-.6-.2s-.5,0-.6.2c-.4.4-.9.5-1.1.3-.2-.2-.3-.4-.3-.6.1,0,.2,0,.4,0,.2,0,.5,0,.6,0,.1,0,0-.1.2-.4.1-.2.2-.3.4-.4.2,0,.3,0,.5,0s.3,0,.5,0c.1,0,.3.2.4.4.2.3.1.3.2.4.1.1.4.1.6,0,.2,0,.3,0,.4,0h0Z"/>
        </g>
        <g>
          <path class="st8" d="M229.7,138.6c.3-.2.3-.1.4-.2.1-.1.1-.4,0-.6-.1-.9.4-.8,1-.4.3.2.6.7.9.9s.5.3.6.4v.8h0v.8c0,.1-.3.1-.6.4-.3.2-.6.7-.9.9-.6.4-1.2.5-1-.4,0-.2,0-.5,0-.6,0-.1-.1,0-.4-.2-.2-.1-.3-.2-.4-.4,0-.2,0-.3,0-.5s0-.3,0-.5c0-.1.2-.3.4-.4h0Z"/>
          <path class="st16" d="M232.7,139.6v.2c-.7,0-1.2.3-1.7.7.3-.5,1-.8,1.7-.9Z"/>
          <path class="st16" d="M232.7,139.3v-.2c-.7,0-1.2-.4-1.7-.8.3.5,1,.8,1.7.9h0Z"/>
          <path class="st8" d="M230.2,137.3c.2,0,.4.2.6.3.3.3,0,.7-.3,1.1-.1.1-.2.4-.2.6s0,.5.2.6c.4.4.5.9.3,1.1-.2.2-.4.3-.6.3,0-.1,0-.2,0-.4,0-.2,0-.5,0-.6,0-.1-.1,0-.4-.2-.2-.1-.3-.2-.4-.4,0-.2,0-.3,0-.5s0-.3,0-.5c0-.1.2-.3.4-.4.3-.2.3-.1.4-.2.1-.1.1-.4,0-.6,0-.2,0-.3,0-.4h0Z"/>
        </g>
        <g>
          <path class="st8" d="M238,140.3c-.3.2-.3.1-.4.2-.1.1-.1.4,0,.6.1.9-.4.8-1,.4-.3-.2-.6-.7-.9-.9s-.5-.3-.6-.4v-.8h0v-.8c0-.1.3-.1.6-.4.3-.2.6-.7.9-.9.6-.4,1.2-.5,1,.4,0,.2,0,.5,0,.6,0,.1.1,0,.4.2.2.1.3.2.4.4,0,.2,0,.3,0,.5s0,.3,0,.5c0,.1-.2.3-.4.4h0Z"/>
          <path class="st16" d="M235,139.3v-.2c.7,0,1.2-.3,1.7-.7-.3.5-1,.8-1.7.9Z"/>
          <path class="st16" d="M235,139.6v.2c.7,0,1.2.4,1.7.8-.3-.5-1-.8-1.7-.9h0Z"/>
          <path class="st8" d="M237.5,141.6c-.2,0-.4-.2-.6-.3-.3-.3,0-.7.3-1.1.1-.1.2-.4.2-.6s0-.5-.2-.6c-.4-.4-.5-.9-.3-1.1.2-.2.4-.3.6-.3,0,.1,0,.2,0,.4,0,.2,0,.5,0,.6,0,.1.1,0,.4.2.2.1.3.2.4.4,0,.2,0,.3,0,.5s0,.3,0,.5c0,.1-.2.3-.4.4-.3.2-.3.1-.4.2-.1.1-.1.4,0,.6,0,.2,0,.3,0,.4h0Z"/>
        </g>
        <g>
          <path class="st8" d="M233.8,140.8c.7,0,1.4-.6,1.4-1.4s-.6-1.4-1.4-1.4-1.4.6-1.4,1.4.6,1.4,1.4,1.4Z"/>
          <path class="st8" d="M233.8,140.4c.5,0,1-.4,1-1s-.4-1-1-1-1,.4-1,1,.4,1,1,1Z"/>
          <path class="st9" d="M233.8,140.1c.3,0,.6-.3.6-.6s-.3-.6-.6-.6-.6.3-.6.6.3.6.6.6Z"/>
        </g>
        <path class="st16" d="M212.7,140.5h.1c-.3-.4-.3-.8-.2-1.1-.2.3-.2.7.1,1.1h0Z"/>
        <path class="st8" d="M221.4,136c.2.3.2.4.3.5.2.1.4,0,.6,0,.9-.3.8.4.6,1.1-.1.4-.5.8-.6,1.1-.2.3-.1.5-.2.6-.3,0-.6,0-.7,0h0c-.1,0-.4,0-.7,0-.1,0-.2-.3-.5-.5s-.8-.5-1-.8c-.5-.6-.8-1.2,0-1.2.2,0,.4,0,.5-.2,0-.1,0-.2,0-.5,0-.2.1-.4.2-.5.1-.1.3,0,.4-.1s.3-.1.4,0,.3.2.5.4h0,0Z"/>
        <path class="st16" d="M221.3,139.4h-.1c-.2-.7-.6-1.2-1.1-1.7.5.3,1,.9,1.2,1.7h0Z"/>
        <path class="st16" d="M221.5,139.3s0,0,.1,0c0-.7,0-1.3.3-1.9-.3.4-.5,1.2-.4,1.9h0Z"/>
        <path class="st8" d="M222.7,136.4c0,.2,0,.5-.2.7-.2.4-.6.2-1.1-.1-.2-.1-.4-.1-.6,0-.2,0-.4.1-.5.3-.3.5-.6.7-.9.5-.2-.2-.3-.4-.5-.6,0,0,.2,0,.4,0,.2,0,.4,0,.5-.2,0-.1,0-.2,0-.5,0-.2.1-.4.2-.5.1-.1.3,0,.4-.1s.3-.1.4,0,.3.2.5.4c.2.3.2.4.3.5.2.1.4,0,.6,0,.2,0,.3,0,.4,0h0Z"/>
        <path class="st8" d="M218.1,139.7c.1-.2.2-.1.2-.2,0-.1,0-.3-.1-.5-.4-.8,0-.7.6-.4.2,0,.3.2.5.4s.3.3.5.4c.3.2.5.2.5.3.1.3.2.6.3.7q0,0,0,0c0,.1.2.4.3.7,0,0-.2.1-.3.3-.1.2-.2.6-.4.8-.2.3-.4.5-.6.4-.2,0-.3-.3-.3-.8,0-.2-.1-.4-.3-.5,0-.1-.1,0-.4-.2-.2,0-.3-.2-.4-.3s-.1-.3-.2-.4-.1-.3-.1-.4c0-.1,0-.2.2-.4h0Z"/>
        <path class="st16" d="M220.6,140.5s0,.1,0,.2c-.2,0-.5.2-.6.3s-.3.3-.4.5c0-.2.2-.5.3-.6s.4-.3.7-.4h0Z"/>
        <path class="st16" d="M220.5,140.2s0-.1,0-.2c-.3,0-.6,0-.8-.2s-.5-.3-.8-.5c.2.2.5.4.7.6.3.2.6.2.9.3h0Z"/>
        <path class="st3" d="M218,138.4c.2,0,.3.1.5.3.1.1.2.3.3.5,0,.2,0,.4,0,.7,0,.1,0,.4,0,.6s.2.5.3.6c.4.4.7.9.6,1.2,0,.2-.1.2-.3.3,0,0-.2-.2-.2-.4,0-.2-.1-.5-.3-.6,0-.1-.1-.2-.4-.4-.2-.1-.3,0-.4-.2-.2-.3-.5-.9-.2-1.2s.4-.5.2-1c0-.2,0-.3-.1-.4h0Z"/>
        <g>
          <path class="st8" d="M225.4,140.6c-.2.2-.3.1-.3.3,0,.2,0,.4,0,.6.3.8-.2.8-.9.4-.3-.2-.7-.6-.9-.8s-.5-.2-.5-.3c0-.3-.1-.6-.2-.7q0,0,0,0c0-.1,0-.4-.2-.8,0-.1.2-.2.4-.4.2-.3.4-.8.6-1.1.5-.5,1-.7,1,.3,0,.2,0,.5.2.6,0,.1.2,0,.4.2.2,0,.3.2.4.4s0,.3.1.5,0,.3,0,.5-.2.3-.3.4h0,0Z"/>
          <path class="st16" d="M222.6,139.9s0,0,0-.2c.6-.2,1-.5,1.4-.9-.2.5-.7.9-1.3,1.1h0Z"/>
          <path class="st16" d="M222.7,140.2s0,0,0,.1c.6,0,1.1.2,1.6.6-.4-.4-1-.7-1.6-.7h0Z"/>
          <path class="st8" d="M225.2,141.8c-.2,0-.4-.1-.6-.3-.3-.2-.2-.7,0-1.1,0-.1,0-.4,0-.6,0-.2-.1-.5-.3-.6-.4-.4-.7-.8-.5-1.1.1-.2.3-.3.5-.5,0,.1,0,.2,0,.4s0,.5.2.6c0,.1.2,0,.4.2.2,0,.3.2.4.4s0,.3.1.5,0,.3,0,.5-.2.3-.3.4c-.2.2-.3.1-.3.3,0,.2,0,.4,0,.6,0,.2,0,.3,0,.4h0Z"/>
        </g>
        <g>
          <path class="st8" d="M221.3,138.9c.7,0,1.4.6,1.5,1.3,0,.7-.4,1.3-1.1,1.3s-1.3-.5-1.4-1.3.3-1.4,1-1.4h0Z"/>
          <path class="st8" d="M221.4,139.2c.5,0,1,.4,1.1,1,0,.6-.3,1-.8,1s-1-.4-1.1-.9c0-.5.2-1,.8-1Z"/>
          <path class="st9" d="M221.5,139.6c.3,0,.6.3.7.6,0,.3-.2.6-.5.6s-.6-.3-.7-.6.2-.6.5-.6h0Z"/>
        </g>
        <path class="st12" d="M247.3,136.7c.6,0,1.1-.5,1.1-1.1s-.5-1.1-1.1-1.1-1.1.5-1.1,1.1.5,1.1,1.1,1.1Z"/>
        <path class="st12" d="M256.8,138.9c.6,0,1-.5,1-1s-.5-1-1-1-1,.5-1,1,.5,1,1,1Z"/>
        <path class="st12" d="M257.8,137c.6,0,1-.5,1-1s-.5-1-1-1-1,.5-1,1,.5,1,1,1Z"/>
        <path class="st12" d="M258.7,135.1c.6,0,1-.5,1-1s-.5-1-1-1-1,.5-1,1,.5,1,1,1Z"/>
        <g>
          <path class="st8" d="M240.5,136.5c-.6,0-.5,1-.3,1.3.2.3.3.3.5,0,.1-.2.4-1.3-.2-1.3Z"/>
          <path class="st12" d="M240.4,137.1c-1.4,0-1.1,2.4-.8,2.9.4.7.7.7,1.2,0,.4-.5,1-2.9-.4-3h0Z"/>
        </g>
        <g>
          <path class="st8" d="M251.7,138c-.6-.2-.7.9-.6,1.1,0,.3.2.4.5.2.2-.2.7-1.1.2-1.3h0Z"/>
          <path class="st12" d="M251.6,138.6c-1.3-.4-1.6,2.1-1.5,2.7.2.8.5.9,1.1.4.5-.4,1.7-2.6.4-3h0Z"/>
        </g>
        <path class="st3" d="M237.1,125.3c3-.3,6.1,0,9.1,1.3,2.6,1,2.3,4-.9,8.1.3.5.4,1.2.5,1.9-.3,0-.6,0-.9,0,.2-.5,0-1.1-.3-1.6-.2-.3-.2-.2,0-.5,1.9-2.6,3.1-4.9,2.4-6.2-.9-1.7-4.3-2.6-10.1-2.5v-.5s0,0,0,0h0Z"/>
        <path class="st12" d="M251.6,128.4c.6,0,1.1-.5,1.1-1.1s-.5-1.1-1.1-1.1-1.1.5-1.1,1.1.5,1.1,1.1,1.1Z"/>
        <path class="st12" d="M249.5,127.7c.6,0,1.1-.5,1.1-1.1s-.5-1.1-1.1-1.1-1.1.5-1.1,1.1.5,1.1,1.1,1.1Z"/>
        <path class="st8" d="M249.3,126.4c-.1.1-.2.3-.3.4,1.7.9,2.4,1.9,2.2,2.9,0,.2-.5,2-1.7,5.5-.8.5-1.4,1-1.8,1.4,0,0-.1.2,0,.2-.1.5.5.4.9.3.2-.5.8-1.1,1.1-1.3,0,0,.3-.2.3-.2.6-2,1.3-3.8,1.8-5.5.5-1.7-.6-2.9-2.5-3.8h0Z"/>
        <path class="st3" d="M255.9,139.1v.3c.5.1,1,.1,1.3,0-.6-.6-1-.7-1.3-.4h0Z"/>
        <path class="st8" d="M256,138.3c-.3,0-.3.1-.5.1-.2,0-.4,0-.6-.1-.7-.4-.7.3-.4.9.2.4,0,.8,0,1.2-.2.4-.2.6,0,.7.1,0,.2.1.3.2.2.2.3.2.3,0,.7-.3.9-.9,1.1-1.5.3-.8,1.4-1-.1-1.4h0Z"/>
        <path class="st8" d="M255.7,138.4c-.6.2-.6-.1-1-.1.2.9.3,1.4,1.2.9.5-.3,1.2.1,1.3.4,0,.1.3-.1.5-.4.5-1-1.2-1.1-2-.8h0Z"/>
        <path class="st12" d="M238,125.1c.6,0,1.1-.5,1.1-1.1s-.5-1.1-1.1-1.1-1.1.5-1.1,1.1.5,1.1,1.1,1.1Z"/>
        <path class="st12" d="M240.2,125.2c.6,0,1.1-.5,1.1-1.1s-.5-1.1-1.1-1.1-1.1.5-1.1,1.1.5,1.1,1.1,1.1Z"/>
        <path class="st12" d="M242.4,125.3c.6,0,1.1-.5,1.1-1.1s-.5-1.1-1.1-1.1-1.1.5-1.1,1.1.5,1.1,1.1,1.1Z"/>
        <path class="st12" d="M244.4,125.7c.6,0,1.1-.5,1.1-1.1s-.5-1.1-1.1-1.1-1.1.5-1.1,1.1.5,1.1,1.1,1.1Z"/>
        <path class="st12" d="M257.6,131.3c.6,0,1.1-.5,1.1-1.1s-.5-1.1-1.1-1.1-1.1.5-1.1,1.1.5,1.1,1.1,1.1Z"/>
        <path class="st12" d="M255.8,130.1c.6,0,1.1-.5,1.1-1.1s-.5-1.1-1.1-1.1-1.1.5-1.1,1.1.5,1.1,1.1,1.1Z"/>
        <path class="st12" d="M253.7,129.2c.6,0,1.1-.5,1.1-1.1s-.5-1.1-1.1-1.1-1.1.5-1.1,1.1.5,1.1,1.1,1.1Z"/>
        <path class="st12" d="M259,133.1c.6,0,1.1-.5,1.1-1.1s-.5-1.1-1.1-1.1-1.1.5-1.1,1.1.5,1.1,1.1,1.1Z"/>
        <path class="st8" d="M253.3,142.7c-.4-.1-1.1.8-1.2.8-.2-.5.2-1.8,1-2.8.5-.2.6-.5.7-1.2,0-.2.5,0,.5.3,0,.4,0,.6,0,1,0,.1,0,.3.1.4-.8.3-1,.7-1,1.6h0Z"/>
        <path class="st3" d="M253.6,139.4c0,.2,0,.3.1.6,0,.2,0,.4-.2.6s-.3.3-.5.4c-.1,0-.3.3-.4.5-.1.2-.2.5-.2.7,0,.6-.2,1.2-.4,1.3-.2,0-.3,0-.4,0,0-.1,0-.3.1-.4.1-.2.2-.4.3-.6,0-.2,0-.3,0-.6,0-.2-.2-.3-.1-.5,0-.4.3-1,.7-1s.6,0,.8-.6c0-.2.2-.3.2-.4h0,0Z"/>
        <g>
          <path class="st8" d="M255.2,140.9c-.1,0-.2-.1-.4-.2-.2,0-.5-.1-.7,0-1,.3-1.4,2-.4,2.4.2,0,.4-.2.6-.6.2-.6.5-.9.7-1.2.2-.2.2-.4,0-.5h0Z"/>
          <path class="st8" d="M254.7,141c-.9-.4-1.6,1.4-.8,1.8.5.2.5-.4.6-.7.1-.4,1.1-.7.2-1h0Z"/>
          <path class="st9" d="M254.6,141.3c-.5-.2-1.1.9-.5,1.1.4.2.7,0,.8-.4s0-.6-.3-.8h0Z"/>
        </g>
        <path class="st12" d="M248.2,134.8c.6,0,1.1-.5,1.1-1.1s-.5-1.1-1.1-1.1-1.1.5-1.1,1.1.5,1.1,1.1,1.1Z"/>
        <path class="st12" d="M249,133c.6,0,1.1-.5,1.1-1.1s-.5-1.1-1.1-1.1-1.1.5-1.1,1.1.5,1.1,1.1,1.1Z"/>
        <path class="st12" d="M246.4,126.4c.6,0,1.1-.5,1.1-1.1s-.5-1.1-1.1-1.1-1.1.5-1.1,1.1.5,1.1,1.1,1.1Z"/>
        <path class="st12" d="M248.2,127.3c.6,0,1.1-.5,1.1-1.1s-.5-1.1-1.1-1.1-1.1.5-1.1,1.1.5,1.1,1.1,1.1Z"/>
        <path class="st12" d="M249.5,128.9c.6,0,1.1-.5,1.1-1.1s-.5-1.1-1.1-1.1-1.1.5-1.1,1.1.5,1.1,1.1,1.1Z"/>
        <path class="st12" d="M249.7,130.9c.6,0,1.1-.5,1.1-1.1s-.5-1.1-1.1-1.1-1.1.5-1.1,1.1.5,1.1,1.1,1.1Z"/>
        <path class="st16" d="M255,140.7h-.1c.3-.4.3-.8.2-1.1.2.3.2.7-.1,1.1h0Z"/>
        <g>
          <path class="st8" d="M246.3,136.1c-.2.3-.2.4-.3.4-.2.1-.4,0-.6,0-.8-.3-.9.3-.6,1.1.1.4.5.8.6,1.1.2.3.1.5.2.6.3,0,.6,0,.7.1h0c.1,0,.4,0,.7,0,0,0,.2-.3.5-.5.3-.2.8-.5,1-.8.5-.6.8-1.2,0-1.2-.2,0-.4,0-.5-.2,0-.1,0-.2,0-.5,0-.2-.1-.4-.2-.5s-.3-.1-.4-.1c-.1,0-.3-.1-.4,0-.2,0-.3.2-.5.4h0Z"/>
          <path class="st16" d="M246.4,139.5h.1c.2-.7.6-1.2,1.1-1.6-.5.3-1,.9-1.3,1.6h0Z"/>
          <path class="st16" d="M246.2,139.5s0,0-.1,0c0-.7,0-1.3-.2-1.9.3.4.5,1.2.4,1.9h0Z"/>
          <path class="st8" d="M245,136.5c0,.2,0,.5.2.7.2.4.6.2,1.1-.1.2-.1.4-.1.6,0,.2,0,.4.1.5.3.3.5.6.7.9.5.2-.2.3-.4.5-.6,0,0-.2,0-.4,0-.2,0-.4,0-.5-.2,0-.1,0-.2,0-.5,0-.2-.1-.4-.2-.5s-.3-.1-.4-.1c-.1,0-.3-.1-.4,0-.2,0-.3.2-.5.4-.2.3-.2.4-.3.4-.2.1-.4,0-.6,0-.2,0-.3,0-.4,0h0Z"/>
        </g>
        <path class="st8" d="M249.6,139.8c-.1-.2-.2-.1-.2-.2,0-.1,0-.3.2-.5.4-.8,0-.7-.6-.4s-.3.2-.5.4-.4.3-.5.4c-.3.2-.5.2-.6.3-.1.3-.2.6-.3.7q0,0,0,0c0,.1-.2.4-.3.7,0,0,.2.1.3.3s.2.6.4.8c.2.3.4.5.6.4.2,0,.3-.3.3-.8,0-.2.1-.4.3-.5.1,0,.1,0,.4-.2.2,0,.3-.2.4-.3s.1-.2.2-.4c0-.1.1-.3.1-.4s0-.2-.1-.4h0s0,0,0,0Z"/>
        <path class="st16" d="M247,140.7s0,.1,0,.2c.3,0,.5.2.6.3s.3.3.4.5c0-.2-.2-.5-.3-.6-.2-.2-.4-.3-.7-.4h0Z"/>
        <path class="st16" d="M247.2,140.4s0-.1,0-.2c.3,0,.6,0,.8-.2.3-.1.5-.3.8-.5-.2.2-.5.4-.8.6s-.6.2-.9.3h0Z"/>
        <path class="st3" d="M249.7,138.5c-.2,0-.3.1-.5.3-.2.1-.2.3-.3.5,0,.2,0,.4,0,.7,0,.1,0,.4-.1.6,0,.2-.2.5-.4.6-.4.4-.7.9-.6,1.1,0,.2.1.2.2.3,0-.1.2-.2.2-.4,0-.2.1-.5.3-.6.1-.1.1-.2.4-.4.2-.1.3,0,.4-.2.2-.3.5-.9.2-1.2s-.4-.5-.1-1c0-.2,0-.3,0-.4h0Z"/>
        <g>
          <path class="st8" d="M242.2,140.7c.2.2.3.2.3.3,0,.1,0,.4,0,.6-.3.8.2.7.9.4.3-.2.7-.5.9-.8.3-.2.5-.2.5-.3,0-.3.1-.6.2-.7q0,0,0,0c0-.1,0-.4.2-.8,0,0-.2-.1-.4-.4s-.4-.8-.6-1.1c-.5-.5-1-.8-1,.2,0,.2,0,.5-.2.6-.1,0-.1,0-.4.2s-.3.2-.4.4c-.1.1,0,.3-.1.5,0,.2,0,.3,0,.5,0,.1.2.3.3.4h0Z"/>
          <path class="st16" d="M245.1,140v-.2c-.5-.2-1-.5-1.3-.9.2.5.7.9,1.3,1.1h0Z"/>
          <path class="st16" d="M245,140.3s0,0,0,.1c-.6,0-1.1.2-1.6.5.4-.4,1-.7,1.7-.7h0Z"/>
          <path class="st8" d="M242.5,141.9c.2,0,.4-.1.6-.3.3-.2.2-.7,0-1.1,0-.1,0-.4,0-.6,0-.2.1-.5.3-.6.4-.4.7-.8.5-1.1-.1-.2-.3-.3-.5-.5,0,.1,0,.3,0,.5,0,.2,0,.5-.2.6-.1,0-.1,0-.4.2s-.3.2-.4.4c-.1.1,0,.3-.1.5,0,.2,0,.3,0,.5,0,.1.2.3.3.4.2.2.3.2.3.3,0,.1,0,.4,0,.6,0,.2,0,.3,0,.4h0Z"/>
        </g>
        <g>
          <path class="st8" d="M246.3,139c-.7,0-1.4.6-1.5,1.3s.4,1.3,1.1,1.3,1.3-.5,1.4-1.3c.1-.7-.3-1.4-1-1.4h0Z"/>
          <path class="st8" d="M246.3,139.4c-.5,0-1,.4-1.1,1,0,.5.3,1,.8,1,.5,0,1-.4,1.1-.9,0-.5-.2-1-.7-1h0Z"/>
          <path class="st9" d="M246.2,139.7c-.3,0-.6.2-.7.6,0,.3.2.6.5.6.3,0,.6-.3.7-.6,0-.3-.1-.6-.5-.6h0Z"/>
        </g>
        <path class="st8" d="M250.3,152.4c.4,0,.5.3.5.5,0,.2-.2.4-.5.5,0,0-.2,0-.3,0-10.6.9-22,.8-32.6-.2,0,0-.2,0-.3,0-.4,0-.5-.3-.5-.5,0-.2.2-.4.5-.5,0,0,.2,0,.3,0,10.6-.9,22-.8,32.6.2,0,0,.2,0,.3,0h0Z"/>
        <path class="st4" d="M221.5,152.9c1.4,0,2.7-.1,4.1-.2s2.7,0,4.1-.1,2.7,0,4.1,0,2.7,0,4.1,0,2.7,0,4.1.1c1.4,0,2.7.1,4.1.2"/>
        <path class="st4" d="M221.5,153c1.4,0,2.7.2,4.1.2M241.9,153.3c1.4,0,2.7-.1,4.1-.2"/>
      </g>
      <g>
        <path class="st11" d="M204,153.3l-.3,48.1h0c0,8.6,3.3,16.5,8.6,22.1,5.4,5.7,12.8,9.3,21,9.3h0c8.2,0,15.7-3.4,21.1-9.1,5.4-5.6,8.8-13.4,8.9-22.1h0l.3-48.1-59.6-.3h0Z"/>
        <path class="st12" d="M233.6,230.4c.3,0,.7,0,1-.2.4-.3.3-1.7.2-2.6-.2-4.5-.3-12.1-.5-22.7-.4,0-.7,0-.9,0-.3,0-.5,0-.9,0-.3,10.6-.5,18.2-.7,22.7,0,.9-.2,2.3.2,2.6.3.3.8.2,1,.2h.5,0Z"/>
        <g>
          <path class="st12" d="M236.4,230.3c-.3,0-.7,0-1-.2-.5-.3-.5-1.7-.5-2.6-.2-4.5-.6-12-1.2-22.7.4,0,.7,0,.9,0,0,0,0,0,.1,0,1.6,10.5,2.2,18,3.4,22.5.2.6.5,2.2,0,2.7-.3.3-.7.3-1,.3h-.5s0,0,0,0Z"/>
          <path class="st12" d="M239.8,229.9c-.3,0-.7.1-1.1,0-.5-.3-.5-1.7-.7-2.5-1.1-4.5-1.7-12-3.4-22.5.4-.1.6-.1.9-.1h0c2.6,10.2,3.4,17.4,5.5,21.9.2.6.7,2.3.2,2.8-.3.3-.7.3-1,.4h-.5c0,0,0,0,0,0Z"/>
          <path class="st12" d="M243.1,228.9c-.3,0-.7.3-1.1.1-.5-.2-.6-1.7-1-2.5-2.1-4.5-2.8-11.7-5.5-22,.3-.2.6-.2.9-.2.2-.1.2-.2.6-.2,3.1,10.2,4.1,17.2,7.1,21.6.5.7.8,2.1.5,2.6-.2.3-.7.4-.9.5h-.5c0,.1,0,.2,0,.2Z"/>
        </g>
        <path class="st12" d="M230.3,230.3c.3,0,.7,0,1-.1.5-.3.5-1.7.6-2.6.2-4.5.7-12,1.5-22.6-.4,0-.7,0-.9,0,0,0,0,0-.1,0-1.8,10.5-2.4,17.9-3.6,22.4-.2.6-.5,2.2,0,2.7.3.3.7.3,1,.3h.5c0,0,0,0,0,0Z"/>
        <path class="st12" d="M226.9,229.8c.3,0,.7.1,1,0,.5-.2.5-1.7.7-2.5,1.2-4.5,1.9-11.9,3.6-22.4-.4-.1-.6-.2-.9-.2h0c-2.7,10.2-3.6,17.4-5.7,21.8-.2.6-.7,2.3-.2,2.8.3.3.7.3,1,.4h.5c0,0,0,0,0,0Z"/>
        <path class="st12" d="M223.6,228.8c.3,0,.7.3,1.1.1.5-.2.6-1.7,1-2.5,2.1-4.5,3-11.7,5.7-22-.3-.2-.6-.2-.9-.2-.2-.1-.2-.2-.6-.2-3.2,10.2-4.3,17.2-7.3,21.6-.5.7-.8,2.1-.5,2.6.2.3.7.4.9.5l.5.2h0Z"/>
        <g>
          <path class="st12" d="M241.4,221.3c-.2,0-.6.2-1,0-.5-.2-.8-1.6-1.1-2.5-2.1-4.2-4-11.6-7.1-21.9.3-.1.6-.2.8-.2.2,0,.4-.2.8-.2,3.4,10.2,4.9,17.6,8.2,21.7.5.7.9,2.1.7,2.6-.2.3-.6.4-.8.5h-.5c0,.1,0,0,0,0h0Z"/>
          <path class="st12" d="M238.7,221.8c-.2,0-.6.1-1-.1-.5-.3-.6-1.7-.8-2.5-.8-4.5-2.4-11.9-4.5-22.4.3,0,.6-.1.8-.1.2,0,.5-.1.8-.1,2.6,10.4,3.2,18.2,5.6,22.2.5.7.7,2.2.4,2.6-.2.3-.6.3-.9.4h-.5c0,0,0,0,0,0Z"/>
          <path class="st12" d="M235.9,222.1c-.2,0-.6,0-.9-.2-.4-.3-.4-1.7-.5-2.6-.3-4.5-1-12.1-1.9-22.7.3,0,.6,0,.8,0,.2,0,.5,0,.8,0,1.4,10.6,2.2,18.2,3,22.6.2.9.4,2.3,0,2.6-.3.3-.7.2-.9.3h-.5s0,0,0,0Z"/>
          <path class="st12" d="M225.4,221.2c.2,0,.6.2,1,0,.5-.2.8-1.6,1.1-2.5,2.1-4.2,4.1-11.6,7.3-21.9-.3-.1-.5-.2-.8-.2-.2,0-.4-.2-.8-.2-3.5,10.2-5,17.6-8.4,21.6-.6.7-1,2.1-.7,2.5.2.3.6.4.8.5h.5c0,.1,0,.1,0,.1Z"/>
          <path class="st12" d="M228.1,221.7c.2,0,.6.1,1,0,.5-.3.7-1.7.8-2.5.9-4.4,2.5-11.9,4.8-22.3-.3-.1-.6-.1-.8-.1-.2,0-.5-.1-.8-.2-2.7,10.4-3.4,18.2-5.9,22.2-.5.7-.7,2.2-.4,2.6.2.3.6.3.9.4h.5c0,0,0,0,0,0h0Z"/>
          <path class="st12" d="M230.9,222c.2,0,.6,0,.9-.2.4-.3.5-1.7.5-2.6.4-4.5,1.1-12,2.2-22.6-.3,0-.6,0-.8,0-.2,0-.5-.1-.8,0-1.5,10.6-2.4,18.2-3.3,22.6-.2.9-.5,2.3-.1,2.6.3.3.7.3.9.3h.5s0,0,0,0Z"/>
          <path class="st12" d="M233.6,222.2c.2,0,.6,0,.9-.2.4-.3.2-1.7.2-2.6-.2-4.5-.3-12.1-.4-22.7-.3,0-.6,0-.8,0-.2,0-.5,0-.8,0-.3,10.6-.5,18.2-.7,22.7,0,.9-.2,2.3.2,2.6.3.3.7.2.9.2h.5Z"/>
        </g>
        <g>
          <path class="st12" d="M239.5,215.1c-.2,0-.5.2-.7,0-.4-.2-.6-1.6-.8-2.5-1.6-4.2-3-11.6-5.4-21.9.2-.1.4-.2.6-.2.2,0,.3-.2.6-.2,2.6,10.2,3.7,17.6,6.2,21.7.4.7.7,2.1.5,2.6-.2.3-.5.4-.6.5h-.4c0,.1,0,0,0,0h0Z"/>
          <path class="st12" d="M237.5,215.6c-.2,0-.5.1-.7,0-.4-.3-.5-1.7-.6-2.5-.6-4.4-1.8-11.9-3.4-22.4.2-.1.4-.1.6-.1.2,0,.4-.1.6-.1,2,10.4,2.4,18.2,4.3,22.2.3.7.5,2.2.3,2.6-.2.3-.5.3-.7.4h-.4Z"/>
          <path class="st12" d="M235.4,215.9c-.2,0-.5,0-.7-.2-.3-.3-.3-1.7-.4-2.6-.2-4.5-.7-12-1.5-22.7.2,0,.4,0,.6,0,.2,0,.4-.1.6,0,1,10.6,1.6,18.2,2.3,22.6.1.9.3,2.3,0,2.6-.2.3-.5.2-.7.3h-.4s0,0,0,0Z"/>
          <path class="st12" d="M227.3,215c.2,0,.5.2.7,0,.4-.2.6-1.6.8-2.5,1.6-4.2,3.2-11.6,5.6-21.9-.2-.1-.4-.2-.6-.2-.2,0-.3-.2-.6-.2-2.7,10.2-3.9,17.6-6.5,21.6-.4.7-.7,2.1-.6,2.5.1.3.5.4.6.5h.4c0,.1,0,.1,0,.1Z"/>
          <path class="st12" d="M229.4,215.5c.2,0,.5.1.7,0,.4-.3.5-1.7.6-2.5.7-4.4,1.9-11.9,3.7-22.4-.2,0-.4-.1-.6-.1-.2,0-.3-.1-.6-.1-2.1,10.4-2.6,18.2-4.5,22.2-.4.7-.6,2.2-.3,2.6.2.3.5.3.7.4h.4c0,0,0,0,0,0Z"/>
          <path class="st12" d="M231.5,215.9c.2,0,.5,0,.7-.2.3-.3.3-1.7.4-2.6.3-4.5.9-12,1.7-22.6-.3,0-.5,0-.6,0-.2,0-.4-.1-.6,0-1.1,10.6-1.8,18.2-2.6,22.6-.1.9-.4,2.2,0,2.6.2.3.5.3.7.3h.4s0,0,0,0Z"/>
          <path class="st12" d="M233.6,216c.2,0,.5,0,.7-.2.3-.3.2-1.7.2-2.6-.1-4.5-.2-12.1-.3-22.7-.3,0-.5,0-.6,0-.2,0-.4,0-.6,0-.2,10.6-.4,18.2-.5,22.7,0,.9-.2,2.3.1,2.6.2.3.5.2.7.2h.4Z"/>
        </g>
        <g>
          <path class="st3" d="M221,203.7c-.6,0-1.3.3-3.3,2.1-.9,1.8-1.8,3.6-3.1,5.2-.4.3-.8.5-1.1.6-.4.1-2.9,0-3,0-.8-.7-2-.2-1.6.5-.3.3.4,1.4.9.9.5-.4,2.3,0,2.9-.2-.2.5-1.8.9-3,.9-1,0-1,1.1-.6,1.9.5.3,0,0,.3.2.5.7,1.5.6,1.5,0,0-.7,2.5-1.6,2.8-2.1-.5,1.1-1.5,2-2,3.1-.5.5-.9.7-.2,1.8.8,0,.8-.3,1.3.2,1.1-.1,1.2-.4,1.1-1.3-.2-.9.6-2.5.8-3,.2-.4.3-.9.5-1.1.4-.5,2.2-1.4,2.7-1.1.9.5,1.5.2,1.6-.7-.3-.2,0-1.4-.7-1.5-.5,0-.8.1-1.2.5-.7.6-1.1.9-1.3.8-.6-.2,1-.9,2.4-2.8,2-2.6,2.1-3.9,2-4.8h0s0,0,0,0Z"/>
          <path class="st8" d="M209.1,212.5c-.7-.4-1.1-.4-1.4,0-.2.2-.4,0-.2-.2.5-1.1,1.2-1.3,1.9-.7.2.2.3.3.5.5-.1.2-.7.4-.8.5h0Z"/>
          <path class="st8" d="M219.3,211.6c.8-.5,1.5-.6,1.9-.3.2.2.4,0,.2-.2-.8-1.1-1.7-1.2-2.4-.6-.2.2-.3.4-.5.5.2.3.8.6.8.5h0Z"/>
          <path class="st8" d="M213.3,217.9c-.5.9-.7,1.5-.5,2,.1.3,0,.6-.3.3-1.2-1-1.2-2.2-.4-3,.3-.3.5-.4.8-.6.3.3.5,1.2.5,1.3h0Z"/>
          <path class="st8" d="M210.4,215.4c-.7.3-.9.7-.9,1.1,0,.3-.2.4-.3,0-.9-2,0-2.4,1.3-2.3,0,.3-.1,1.1-.1,1.1h0Z"/>
          <path class="st10" d="M216.5,211c-.5-.3-.5-.6-.4-.8.2-.4.5-.2,1,.2"/>
          <path class="st10" d="M217.1,210.4c-.5-.3-.5-.6-.4-.8.2-.4.5-.2,1,.2"/>
          <path class="st10" d="M217.7,209.8c-.5-.4-.5-.7-.4-1,.3-.5.6-.3,1.1.2"/>
          <path class="st10" d="M218.5,209c-.5-.4-.6-.8-.4-1.1.3-.6.6-.3,1.2.3"/>
          <path class="st10" d="M219.2,208.2c-.5-.4-.7-.8-.4-1.2.4-.6.6-.3,1.2.3"/>
        </g>
        <path class="st3" d="M226.3,163.3c-.4.3-1.6.3-3.2.4-2.6,0-4.2-.7-4.5-2.4,1,1.2,2.2,1.8,3.5,1.4,1.8-.4,2.8-.8,3.2-.7.3.1.7.6.9,1.2h0Z"/>
        <g>
          <path class="st12" d="M232.2,199.3c0,.8,0,1.6,0,2.5h0l-1.9.4c0,.9,2.1,9.9,3.2,9.9s3.3-9,3.3-9.8l-1.9-.4h0v-2.5c-.4.3-.8.9-1.3,1.4-.5-.5-.9-1.1-1.3-1.4h0Z"/>
          <path class="st6" d="M230,203.1l-1.7-1c-.7.5-1.3,2.4,0,3.9,1.5,1.9,2.1,3.3,2.5,4.9,1.1-1.4,1.5-2.9.8-4.3-.9-2-1.5-3.1-1.5-3.5h0Z"/>
          <path class="st6" d="M231.4,201.7l-1.7-1c-.7.5-2.2,2.3-1,3.9,1.5,1.9,3.1,3.4,3.4,5,1.1-1.4,1.6-2.9.9-4.3-.9-2-1.6-3.1-1.6-3.5h0Z"/>
          <path class="st6" d="M237,203.1l1.7-.9c.7.5,1.2,2.4,0,3.9-1.5,1.9-2.1,3.3-2.5,4.9-1.1-1.4-1.5-2.9-.7-4.3.9-1.9,1.6-3,1.6-3.5h0Z"/>
          <path class="st6" d="M235.6,201.7l1.7-.9c.7.5,2.2,2.4,1,3.9-1.5,1.9-3.1,3.4-3.5,4.9-1.1-1.4-1.6-2.9-.9-4.3.9-1.9,1.7-3,1.7-3.5h0Z"/>
          <path class="st6" d="M227.7,201l-1.7-1c-.7.5-1.3,2.4,0,3.9,1.5,1.9,2.1,3.3,2.5,4.9,1.1-1.4,1.5-2.9.8-4.3-.9-2-1.5-3.1-1.5-3.5h0Z"/>
          <path class="st6" d="M239.3,201.1l1.7-.9c.7.5,1.2,2.4,0,3.9-1.5,1.9-2.1,3.3-2.5,4.9-1.1-1.4-1.5-2.9-.7-4.3.9-1.9,1.6-3,1.6-3.5h0Z"/>
        </g>
        <path class="st12" d="M220,183.2c0,1.5-.3,11.8-.4,13.3,0,1.4-.7,2.4-1.4,3-.6-.9-1-2-1.1-3.4,0-.7.1-10.4.2-12.4,1.2-3,2-3.2,2.7-.4h0Z"/>
        <path class="st12" d="M213.3,180.6l-.5,14.1c-.1,1.2,1.5,8.7,2.3,10.2,2.2-.9,2.7-6,2.3-10.9-.4-4.9.1-9.2.5-10.1,0-1.1-.1-2.3-.1-3.4-1.4,0-3,0-4.5.1h0Z"/>
        <path class="st12" d="M210.7,182.9l.2,14.1c0,1.3,1.9,8.6,2.9,10,2.3-1.7,1.8-8.8,1.5-11-.7-4.3-.5-9.3-.3-10.1,0-1.1,0-2.5-.1-3.6-1.4.2-2.8.3-4.2.5h0Z"/>
        <path class="st12" d="M208.7,186.3h3.7c-.3,1.5,0,6.3.5,9.9.6,3.4,1.4,12.3-2.2,14.4-2.2-4.7-.5-9.2-1.6-13.3-.9-4.3-1-7.9-.5-11h0Z"/>
        <path class="st12" d="M223,180.6c0,1.5-.7,11.8-.8,13.2-.1,1.4-.8,2.4-1.5,2.9-.6-.9-.9-2.1-1-3.4,0-.7.5-10.4.6-12.4,1.3-3,2.1-3.1,2.7-.3h0Z"/>
        <path class="st12" d="M216.4,172.2c-.1,3.3-.2,10.5-.2,11.1,0,1.4.6,3.1,1.2,4,.7-.5,1.4-1.5,1.5-2.9.1-1.2.2-7,.2-9.9-.7-.5-1.5-1.1-2.1-1.7,0,0-.5-.5-.6-.5h0Z"/>
        <path class="st12" d="M219,174.4c0,3.6,0,9.2,0,9.6,0,1.4.4,2.6,1,3.4.7-.5,1.4-1.5,1.6-3,0-.9.4-4.7.4-7.6-.9-.3-2.1-1.8-2.9-2.5h0Z"/>
        <path class="st12" d="M216.8,171.9l-2.5-3.7c-.5,1.8-1.2,14.7-.5,15.7,0,1.4.5,2.5,1.1,3.4.7-.5,1.8-1.5,1.5-3s0-11.1.4-12.5h0Z"/>
        <path class="st12" d="M211.5,180c-.1,2-.2,3.3-.2,4.1,0,1.4.4,2.6,1,3.4.7-.5,1.6-1.5,1.5-2.9-.3-5.6.3-10.8,1.1-15.9-.6-.4-1.6-.9-2.2-1.4-1.2,6.8-1.7,11-1.1,12.7h0Z"/>
        <path class="st6" d="M209,183.6l.7,2.6c0,1.4.9,2.5,1.5,3.4.7-.5,1.3-1.4,1.2-2.9-1-8.2-.6-13.7,1.2-20.4-3.9,2.6-5.8,8.3-4.5,17.3h0Z"/>
        <path class="st12" d="M209.2,186.2l-3.6-1.2c-.5,3.6.2,8.1,1.1,14,.8,5.1.3,9.1-.3,11.7,3.8-.5,5.5-5.4,3.6-14.7-.5-2.4-1-5.5-.9-9.8h0Z"/>
        <path class="st4" d="M209,203.6c.1-2.4-.3-5-.7-7.2-.6-3-.9-5.9-.9-8.9"/>
        <path class="st6" d="M209.1,165.1l2.4.4c-.1.5-.7,3.6-.9,4.1-.9,4.3-1.5,9.4-.9,14.9.2,2.1.7,3.8,1.3,5.1-2.6-.3-4.2-2.8-4-7.2-.4-5.1-.2-9.2.7-12.3.2-.9,1.1-4.3,1.4-5h0Z"/>
        <path class="st12" d="M207.7,165.6l1.1,1.3c-.3.2.2,1.3,0,3.2-.2,1.1-.9,2.4-1,3.8-.5,4.7-.5,10.6.9,14.4-2.6-.3-3.5-2.7-3.5-7.1,0-3.6,0-7.9.9-12.9.2-1.2.8-2.1,1.7-2.9h0Z"/>
        <path class="st12" d="M214.2,169.1l-2.4-.3c-.5,2.3-.8,3.8-.9,4.6-.2,1.6.3,3,.8,4.1.9-.5,1.3-1.7,1.7-3.3s.5-3.4.7-5.2h0Z"/>
        <path class="st12" d="M220.3,174.3h-2.1c0,2-.1,3.3-.1,4,0,1.4.4,2.5,1,3.3.6-.5,1.3-1.5,1.4-2.9,0-1.4,0-2.9,0-4.4h0Z"/>
        <path class="st12" d="M222.6,175.3h-2.1c0,2,0,3.3,0,4,.1,1.3.5,2.5,1.1,3.3.6-.6,1.2-1.5,1.3-2.9s-.2-2.9-.2-4.4h0Z"/>
        <path class="st12" d="M218.2,173.2l-2.1-.2c-.2,1.9-.4,3.2-.4,3.9,0,1.4.2,2.5.7,3.4.7-.5,1.4-1.4,1.6-2.8.2-1.4.2-2.9.3-4.4h0Z"/>
        <path class="st12" d="M216.2,170.9l-2.3-1c-.4,1.6-1,6.7,0,8.9.8-.5,1.6-1.5,1.8-3,.3-1.6.4-3.2.5-4.9h0Z"/>
        <path class="st2" d="M213.1,168.3l-3.7.3c-.9,2.1-1.4,4-1.7,5.7,1.7-.3,3-1.1,3.4-2.7.6-2.1,1.7-3,2-3.3h0Z"/>
        <g>
          <path class="st8" d="M216.6,224.4c1.4,1.1,2.7-1.4,1.5-4.9-.9-2.5-5.5-1.6-2.9,1.8.1.2.3,0,.3,0-.1-.7.3-1.1,1-1,1.9.4,1.9,3.9-.1,3.1-.4,0,0,.7.3,1h0Z"/>
          <path class="st8" d="M221.3,224.4c-1.4,1.1-2.7-1.5-1.4-4.9.9-2.5,5.5-1.5,2.9,1.9-.1.2-.3,0-.3-.1.1-.7-.3-1.1-1-1-1.9.3-2,3.9,0,3.1.4,0,0,.7-.3,1h0Z"/>
          <path class="st8" d="M218.8,213.4h0c-.2.6-.9,1.4-1.4,1.9-.8.9-.6,2.2,0,2.9.6.8.9,1.6,1,2.3,0,.4.3,1.3.1,2.7,0,.7-.5,1.1-.9,1.4-.2.2,0,.5.7,1,0,0,.3.2.4.5,0,0,.4,0,.4,0,0-.4.3-.5.4-.5.7-.5,1-.9.8-1-.4-.3-.8-.7-.9-1.4-.1-1.4,0-2.3.2-2.8.1-.7.4-1.5,1-2.3.6-.7.8-2,0-2.9-.5-.6-1.2-1.3-1.4-1.9h0c0-.1,0-.2-.1-.2s-.1,0-.1.2h0,0Z"/>
          <path class="st8" d="M217.9,221.6h2c.4,0,.6.3.6.6h0c0,.3-.3.6-.7.6h-2c-.4,0-.6-.3-.6-.6h0c0-.3.3-.6.7-.6Z"/>
        </g>
        <g>
          <path class="st8" d="M245.5,224.5c1.4,1.1,2.7-1.4,1.5-4.9-.9-2.5-5.5-1.6-2.9,1.8.1.2.3,0,.3,0-.1-.7.3-1.1,1-1,1.9.4,1.9,3.9-.1,3.1-.4,0,0,.7.3,1h0Z"/>
          <path class="st8" d="M250.2,224.6c-1.4,1.1-2.7-1.5-1.4-4.9.9-2.5,5.5-1.5,2.9,1.9-.1.2-.3,0-.3-.1.1-.7-.3-1.1-1-1-1.9.3-2,3.9,0,3.1.4,0,0,.7-.3,1h0Z"/>
          <path class="st8" d="M247.8,213.6h0c-.2.6-.9,1.4-1.4,1.9-.8.9-.6,2.2,0,2.9.6.8.9,1.6,1,2.3,0,.4.3,1.3.1,2.7,0,.7-.5,1.1-.9,1.4-.2.2,0,.5.7,1,0,0,.3.2.4.5,0,0,.4,0,.4,0,0-.4.3-.5.4-.5.7-.5,1-.9.8-1-.4-.3-.8-.7-.9-1.4-.1-1.4,0-2.3.2-2.8.1-.7.4-1.5,1-2.3.6-.7.8-2,0-2.9-.5-.6-1.2-1.3-1.4-1.9h0c0-.1,0-.2-.1-.2s-.1,0-.1.2h0,0Z"/>
          <path class="st8" d="M246.8,221.8h2c.4,0,.6.3.6.6h0c0,.3-.3.6-.7.6h-2c-.4,0-.6-.3-.6-.6h0c0-.3.3-.6.7-.6Z"/>
        </g>
        <path class="st12" d="M247.2,183.3c0,1.5.2,11.8.3,13.3,0,1.4.7,2.4,1.4,3,.6-.9,1-2,1.1-3.4,0-.7,0-10.4,0-12.4-1.1-3.1-2-3.2-2.7-.5h0Z"/>
        <path class="st12" d="M253.9,180.9l.4,14.1c.1,1.3-1.6,8.7-2.4,10.2-2.2-1-2.6-6-2.2-10.9.4-4.9,0-9.2-.4-10.1,0-1.1.2-2.3.2-3.4,1.4,0,3,0,4.5.2h0Z"/>
        <path class="st12" d="M256.5,183.2l-.4,14.1c0,1.3-2,8.6-3,10-2.2-1.8-1.7-8.8-1.4-11,.7-4.3.6-9.2.4-10,0-1.1,0-2.5.2-3.6,1.4.2,2.8.3,4.2.5h0Z"/>
        <path class="st12" d="M258.5,186.5h-3.7c.3,1.4,0,6.2-.6,9.9-.6,3.4-1.5,12.3,2,14.4,2.2-4.7.6-9.2,1.7-13.3.9-4.3,1.1-7.9.6-11h0Z"/>
        <path class="st12" d="M244.3,180.7c0,1.5.5,11.8.7,13.2.1,1.4.8,2.4,1.5,3,.6-.9.9-2,1-3.4,0-.7-.3-10.4-.5-12.4-1.2-3-2.1-3.1-2.7-.4h0Z"/>
        <path class="st12" d="M250.9,172.4c0,3.3,0,10.5,0,11.1,0,1.4-.6,3.1-1.2,4-.7-.5-1.4-1.5-1.5-3,0-1.2-.1-7-.1-9.9.8-.5,1.5-1.1,2.2-1.7,0,0,.6-.5.6-.5h0Z"/>
        <path class="st12" d="M248.3,174.5c0,3.6,0,9.2,0,9.6,0,1.4-.4,2.5-1,3.4-.7-.5-1.4-1.5-1.6-3,0-.9-.3-4.7-.3-7.6.9-.3,2.1-1.8,2.9-2.5h0Z"/>
        <path class="st12" d="M250.6,172.1l2.5-3.6c.5,1.8,1.1,14.7.3,15.8,0,1.4-.6,2.5-1.2,3.4-.7-.5-1.7-1.5-1.4-3,.3-1.5,0-11.1-.3-12.6h0Z"/>
        <path class="st12" d="M255.7,180.2c.1,2,.2,3.4.2,4.1,0,1.4-.4,2.5-1,3.4-.7-.5-1.6-1.5-1.5-3,.4-5.6-.2-10.8-.9-15.9.6-.4,1.6-.9,2.2-1.4,1.2,6.8,1.6,11,1,12.7h0Z"/>
        <path class="st6" d="M258.2,183.9l-.7,2.6c0,1.4-.9,2.5-1.5,3.4-.7-.5-1.3-1.4-1.1-2.9,1.1-8.2.7-13.7-1-20.4,3.9,2.7,5.7,8.3,4.3,17.3h0Z"/>
        <path class="st12" d="M258,186.5l3.6-1.2c.4,3.6-.3,8.1-1.3,14-.9,5.1-.4,9.1.2,11.7-3.8-.5-5.4-5.5-3.5-14.8.5-2.4,1-5.5,1-9.8h0Z"/>
        <path class="st4" d="M258,203.8c0-2.4.3-5,.8-7.2.6-3,1-5.9,1-8.9"/>
        <path class="st6" d="M258.3,165.3l-2.4.4c.1.5.7,3.6.8,4.1.9,4.3,1.4,9.4.7,15-.3,2.1-.7,3.8-1.4,5,2.6-.3,4.3-2.8,4.1-7.2.5-5.1.3-9.2-.5-12.3-.2-.9-1-4.3-1.4-5h0,0Z"/>
        <path class="st12" d="M259.7,165.9l-1.2,1.3c.3.2-.2,1.2,0,3.2.2,1.1.8,2.4,1,3.9.4,4.7.4,10.6-1,14.4,2.6-.3,3.5-2.6,3.6-7,0-3.6.1-7.9-.8-12.9-.2-1.2-.7-2.1-1.7-2.9h0Z"/>
        <path class="st12" d="M253.2,169.4l2.4-.3c.4,2.3.7,3.8.8,4.7.2,1.6-.3,3-.9,4.1-.9-.5-1.3-1.7-1.6-3.3-.4-1.6-.5-3.4-.7-5.2h0Z"/>
        <path class="st12" d="M247,174.4h2.1c0,2,.1,3.3,0,4,0,1.4-.4,2.5-1,3.3-.6-.5-1.2-1.5-1.3-2.9s.1-2.9.1-4.4h0Z"/>
        <path class="st12" d="M244.7,175.4h2.1c0,2,0,3.4,0,4.1-.1,1.4-.5,2.5-1.1,3.3-.6-.6-1.2-1.5-1.2-2.9s.2-2.9.3-4.4h0Z"/>
        <path class="st12" d="M249.2,173.3h2.1c.2,1.8.4,3.1.4,3.8,0,1.3-.2,2.5-.7,3.4-.7-.5-1.4-1.4-1.6-2.8-.2-1.4-.1-2.9-.2-4.4h0Z"/>
        <path class="st12" d="M251.1,171.1l2.3-.9c.4,1.6.9,6.7,0,8.9-.8-.5-1.6-1.5-1.8-3.1-.2-1.6-.3-3.2-.5-4.9h0Z"/>
        <path class="st2" d="M254.2,168.5l3.7.3c.8,2.1,1.4,4,1.7,5.7-1.7-.3-3-1.2-3.4-2.7-.6-2.1-1.6-3-2-3.4h0Z"/>
        <path class="st6" d="M243.3,173.7c.3,0,.6-.1.9-.2-1.4-.9-2.5-1.9-3.8-3.9-1.4-2.1.6-5.9,1.5-7.8,1.7-1.2,3.3-3.1,3.8-5.5.2-1.3-3.4-.8-5.9.3-3,1.4-3.4,1-4.5,1.3-.4,1.8.4,2,1.2,1.9-1.7,2.7-2.4,5.3-2.7,9.1-.3-3.8-1-6.5-2.6-9.2.8,0,1.6,0,1.2-1.9-1.1-.2-1.5.2-4.5-1.3-2.5-1.2-6.1-1.7-5.9-.4.5,2.4,2.1,4.3,3.8,5.5.8,2,2.7,5.8,1.4,7.8-1.4,2-2.5,3.1-3.8,3.9.3.1.6.2.9.2-.2.3-2,.8-2.2.7-1.3-1-2.6-3.2-3.8-4.5-3.2-3.7-4.8-6.5-4.2-8.8.8-2.5,3.7-5.2-.1-4.8s-7.1,5.7-8.1,12.1c-.4,2.3-.6,4.3-.9,5.9,2.1-.7,3-1.5,3.6-2.4-.3.9-.5,1.7-.6,2.5,1.7-.3,3-1.1,3.4-2.7.2-.6.4-1.1.6-1.6.5.2,1.2.2,2,0,.3.8,2.7,3.4,3.9,5.3,1.4,2.2,3.6,3.9,4.3,4,.4,0,.5-.7.4-1.8,3.8,0,7.5,0,11.2,0,3.7.1,7.4.1,11.2.1,0,1.1,0,1.9.4,1.8.7,0,2.9-1.8,4.3-3.9,1.3-1.9,3.7-4.5,4-5.3.8.2,1.5.2,2,0,.2.4.5,1,.6,1.6.4,1.5,1.7,2.4,3.4,2.7-.1-.8-.3-1.6-.6-2.5.6.9,1.5,1.7,3.6,2.4-.2-1.6-.5-3.6-.8-5.9-1-6.4-4.2-11.6-8-12.2-3.8-.5-1,2.3-.2,4.7.6,2.3-1.1,5.1-4.3,8.8-1.2,1.3-2.5,3.5-3.8,4.5-.2.1-2-.4-2.2-.7h0Z"/>
        <path class="st3" d="M241.1,163.4c.4.3,1.6.3,3.2.4,2.6.1,4.2-.7,4.5-2.4-1,1.2-2.2,1.7-3.5,1.4-1.8-.5-2.8-.8-3.3-.7-.3,0-.7.6-.9,1.2h0Z"/>
        <path class="st8" d="M247.3,156.5c3,.3,2.8,2.3,0,5-.5.5-.7.5-.8,0-.2-.9-1.2-1.5-1.8-.8-.4.5-.3.8-1.6.6-1.6,1.3-2.9,2.2-.8,2.2.9,0,1.6.5,2.8.5-.4.7-.4.8-.6.8-1.1.2-2.4-.5-3.5-.3-2.5.5,4.1-6.8,4-7.1-.2-.7,1.6-2,2.3-.8h0Z"/>
        <path class="st4" d="M247.2,156.5c-.2.7-.7,1.3-1.4,1.9"/>
        <path class="st16" d="M247.9,157.9c0-.1-.1-.2-.3-.2-.1,0-.2.1-.2.3,0,.1.1.2.3.2.1,0,.2-.1.2-.3Z"/>
        <path class="st4" d="M222.6,157.1c.8,0,1.6.3,2.7.7.3.1,1.3.5,1.6.5"/>
        <path class="st4" d="M231.1,159.7c-.9-.1-1.3-.3-1.7-.4"/>
        <path class="st10" d="M223.3,157.2c.3.6.7,1.4,1.4,1.8.5.3,1.1-.2,1.6-1"/>
        <path class="st16" d="M224.4,158.7l-.4-.4c-.2-.2,0-.6.3-.9.3.1.5.2.8.3-.2.5-.4.9-.7,1h0Z"/>
        <path class="st10" d="M244.3,157.3c-.3.6-.7,1.4-1.4,1.8-.5.3-1.1-.2-1.5-1"/>
        <path class="st16" d="M243.1,158.8l.4-.4c.2-.2,0-.6-.3-1-.3.1-.5.2-.8.3.2.5.4.9.7,1h0Z"/>
        <path class="st4" d="M244.9,157.2c-.8,0-1.6.3-2.7.7-.3.1-1.3.5-1.6.5"/>
        <path class="st4" d="M236.4,159.7c.9-.1,1.3-.2,1.7-.4"/>
        <g>
          <path class="st1" d="M223.2,173.4c1.7.6,3.2.5,4.3-.6.2-.2.4-.3.5-.5"/>
          <path class="st1" d="M228.2,171.2c-.2,1.1-.5,2-.9,2.9,1.2-.3,2.1-.8,2.7-1.7"/>
          <path class="st1" d="M233.6,174.7c-.9-1.1-1.5-2.4-1.5-3.9"/>
          <path class="st1" d="M229.9,171.1c.1,1.1.4,2.1.9,2.9.6-.4,1.1-1.1,1.4-2.1"/>
          <path class="st1" d="M244.2,173.5c-1.7.6-3.2.5-4.3-.7l-.5-.5"/>
          <path class="st1" d="M239.1,171.3c.2,1.1.4,2,.8,2.9-1.2-.3-2.1-.9-2.7-1.7"/>
          <path class="st1" d="M237.5,171.1c-.1,1.1-.4,2.1-1,2.9-.6-.4-1.1-1.1-1.4-2.2"/>
          <path class="st1" d="M233.7,174.7c.9-1.1,1.5-2.4,1.6-3.9"/>
        </g>
        <path class="st4" d="M211.8,164.4c-1.4.9-3.8,7.8-4,9.9-.5,4.7-.5,10.5.9,14.2"/>
        <path class="st4" d="M255.6,164.6c1.3,1,3.8,7.9,3.9,9.9.4,4.7.4,10.5-1.1,14.2"/>
        <path class="st3" d="M220.2,156.4c-2.9.3-2.8,2.2,0,5,.5.5.7.5.8,0,.2-.9,1.3-1.5,1.8-.8.4.5.3.8,1.5.6,1.6,1.3,2.9,2.3.8,2.2-.9,0-1.6.5-2.8.4.3.7.4.8.6.8,1.1.2,2.4-.5,3.5-.3,2.5.5-4-6.9-3.9-7.2.2-.7-1.6-2.1-2.3-.8h0Z"/>
        <path class="st4" d="M220.3,156.3c.2.7.7,1.3,1.4,1.9"/>
        <path class="st16" d="M219.6,157.7c0-.1.1-.2.3-.2s.2.1.2.3c0,.1-.1.2-.3.2s-.2-.1-.2-.3Z"/>
        <g>
          <path class="st6" d="M221.9,202.8v-1.9c-.7-.4-2.6,0-3.4,1.8-1,2.2-2,3.4-3.2,4.5,1.8.3,3.2,0,4.2-1.3,1.3-1.7,2-2.8,2.4-3h0Z"/>
          <path class="st12" d="M223.4,203l-2.1-.9c-.9,1.7-1.5,2.9-1.7,3.6-.5,1.3-.6,2.4-.4,3.5.9-.2,1.8-.8,2.5-2,.7-1.2,1.1-2.7,1.7-4.1h0Z"/>
          <path class="st12" d="M224,203l-2.2-.4c-.4,1.9-.7,3.2-.8,3.9-.2,1.3,0,2.5.5,3.5.8-.4,1.6-1.2,1.9-2.6.4-1.4.4-2.9.7-4.4h0Z"/>
          <path class="st6" d="M224.3,200h1.3c.8.4,1.6,2.2.6,3.9-1.2,2.1-1.6,3.6-1.7,5.2-1.3-1.2-1.9-2.6-1.4-4.2.6-2.1,1.2-4.5,1.2-4.9h0Z"/>
          <path class="st12" d="M224.9,199l-2.1-.8c-.8,1.8-1.3,3-1.5,3.6-.4,1.3-.5,2.5-.2,3.5.8-.3,1.9-.8,2.5-2.1.6-1.3.8-2.9,1.4-4.3h0Z"/>
          <path class="st6" d="M223.5,197.5l-.5-2.9c-.5-.1-1.1,1-1.8,1.7-.2.2-.3.3-.5.5-.3.4-.5.9-.6,1.4-.6,2.4-1.3,3.6-2.3,4.9,1.8,0,3.2-.7,3.9-2.1.9-2,1.4-3.1,1.8-3.4h0Z"/>
        </g>
        <g>
          <path class="st3" d="M245.9,203.8c.6,0,1.3.4,3.3,2.1.9,1.8,1.8,3.7,3,5.2.4.3.7.5,1.1.6.3.1,2.9,0,3,0,.8-.7,2-.2,1.6.6.3.3-.4,1.4-.9.9-.5-.4-2.3,0-2.9-.3.2.5,1.8.9,3,1,1,0,1,1.1.5,1.9-.5.3,0,0-.3.2-.5.7-1.5.6-1.5,0,0-.7-2.4-1.6-2.8-2.1.4,1.1,1.5,2,2,3.1.5.5.9.7.2,1.8-.8,0-.8-.3-1.3.2-1.1-.1-1.2-.4-1.1-1.3.2-.9-.6-2.5-.8-3-.2-.4-.3-.9-.5-1.1-.4-.5-2.2-1.4-2.7-1.1-.9.5-1.5.2-1.6-.7.3-.2,0-1.4.7-1.5.5,0,.8.1,1.2.5.7.6,1.1.9,1.3.8.6-.2-1-.9-2.4-2.8-2-2.6-2.1-3.9-2-4.8h0,0Z"/>
          <path class="st8" d="M257.8,212.8c.7-.4,1.1-.4,1.4,0,.2.2.4,0,.2-.2-.5-1.1-1.2-1.3-1.9-.7-.2.2-.3.3-.5.5.1.2.7.4.8.5h0Z"/>
          <path class="st8" d="M247.6,211.7c-.7-.5-1.5-.6-1.8-.3-.2.2-.4,0-.2-.2.8-1.1,1.7-1.1,2.4-.5.2.2.3.4.5.6-.2.3-.8.6-.8.5h0Z"/>
          <path class="st8" d="M253.5,218.1c.5.9.7,1.6.5,2-.1.3,0,.5.3.3,1.2-1,1.2-2.2.5-3-.3-.3-.5-.4-.8-.6-.3.3-.5,1.2-.5,1.2h0Z"/>
          <path class="st8" d="M256.5,215.7c.7.3.9.7.9,1.1,0,.3.2.4.3,0,.9-2,0-2.4-1.3-2.3,0,.4.1,1.1.1,1.1h0Z"/>
          <path class="st10" d="M250.4,211.2c.5-.3.5-.6.4-.8-.3-.4-.5-.2-1,.2"/>
          <path class="st10" d="M249.9,210.6c.5-.3.5-.6.4-.8-.3-.4-.5-.2-1,.2"/>
          <path class="st10" d="M249.2,209.9c.5-.3.5-.7.4-1-.3-.6-.6-.3-1.1.2"/>
          <path class="st10" d="M248.5,209.2c.5-.4.6-.8.5-1.1-.3-.6-.6-.3-1.2.2"/>
          <path class="st10" d="M247.7,208.3c.5-.4.7-.8.4-1.2-.4-.6-.6-.4-1.2.3"/>
        </g>
        <g>
          <path class="st6" d="M245.1,202.9v-1.9c.7-.4,2.6,0,3.4,1.8,1,2.2,1.9,3.4,3.2,4.5-1.8.3-3.2,0-4.2-1.3-1.3-1.7-2-2.8-2.4-3h0Z"/>
          <path class="st12" d="M243.6,203.1l2.1-.9c.9,1.8,1.4,2.9,1.7,3.6.5,1.3.6,2.5.4,3.5-.9-.2-1.8-.8-2.5-2.1-.7-1.3-1.1-2.7-1.6-4.1h0Z"/>
          <path class="st12" d="M243,203.1l2.3-.3c.4,1.9.7,3.2.7,3.9.1,1.3,0,2.5-.5,3.5-.8-.4-1.6-1.3-1.9-2.6-.3-1.4-.4-2.9-.6-4.4h0Z"/>
          <path class="st6" d="M242.7,200.1h-1.3c-.8.4-1.6,2.1-.7,3.9,1.2,2.1,1.6,3.6,1.7,5.2,1.3-1.2,1.9-2.6,1.5-4.1-.6-2.1-1.2-4.5-1.1-4.9h0Z"/>
          <path class="st12" d="M242.1,199.1l2.2-.7c.7,1.8,1.3,3,1.5,3.7.4,1.3.5,2.5.2,3.5-.8-.3-1.9-.8-2.5-2.1s-.8-2.9-1.3-4.3h0Z"/>
          <path class="st6" d="M243.6,197.7l.5-2.9c.5-.1,1.1,1,1.8,1.7.1.2.3.3.4.5.3.4.5.9.6,1.4.5,2.4,1.3,3.6,2.3,4.9-1.8,0-3.2-.7-3.8-2.2-.9-2-1.4-3.1-1.7-3.4h0Z"/>
        </g>
        <g>
          <path class="st5" d="M245.6,175v19.3h-.1c0,3.4-1.4,6.6-3.5,8.8-2.2,2.3-5.2,3.6-8.4,3.6h0c-3.3,0-6.3-1.4-8.4-3.7-2.1-2.3-3.5-5.4-3.4-8.9h0v-19.3c.1,0,23.9.1,23.9.1h0Z"/>
          <path class="st12" d="M245.5,186.8v5s-9.5,0-9.5,0v14.7c-.9.2-1.7.3-2.6.3h0c-.9,0-1.7-.1-2.5-.3v-14.7c0,0-9.3,0-9.3,0v-5s9.5,0,9.5,0v-11.8c0,0,5,0,5,0v11.8c0,0,9.4,0,9.4,0h0Z"/>
          <path class="st6" d="M229.6,177.7v7c-1.6.4-5.3,1.9-5.5-1.4,0-1.5,1.9-2.5,2.4-1.1.2.6,0,1.1-.4,1.2-.4.2-.8-.2-.7-.6-1.6.8,1.4,2.6,2.8.3.4-.7-.7-1.4-.7-1.8s1-1.2.7-1.8c-1.4-2.3-4.3-.6-2.7.3,0-.5.3-.8.7-.6.4.1.6.6.4,1.2-.5,1.3-2.5.3-2.4-1.2.2-3.2,3.9-1.7,5.4-1.3h0Z"/>
          <path class="st6" d="M237.7,177.8v7c1.5.4,5.2,1.9,5.4-1.3,0-1.5-1.8-2.5-2.4-1.2-.3.6,0,1.1.4,1.2.4.2.8-.2.7-.6,1.6.8-1.4,2.6-2.7.3-.4-.7.7-1.3.7-1.8s-1-1.2-.7-1.8c1.4-2.3,4.3-.5,2.8.3.1-.5-.3-.8-.7-.6-.4.1-.6.6-.4,1.2.5,1.3,2.5.3,2.4-1.1-.2-3.2-3.9-1.8-5.4-1.4h0Z"/>
          <path class="st6" d="M229.4,200.7v-7c-1.5-.4-5.2-1.9-5.4,1.3,0,1.5,1.8,2.5,2.4,1.2.3-.6,0-1.1-.4-1.2-.4-.2-.8.2-.7.6-1.6-.8,1.4-2.6,2.7-.3.4.7-.7,1.3-.7,1.8s1,1.2.7,1.8c-1.4,2.3-4.3.5-2.8-.3-.1.5.3.8.7.6.4-.1.6-.6.4-1.2-.5-1.3-2.5-.3-2.4,1.1.2,3.2,3.9,1.8,5.4,1.4h0Z"/>
          <path class="st6" d="M237.6,200.7v-7c1.6-.4,5.3-1.9,5.5,1.4,0,1.5-1.9,2.5-2.4,1.1-.2-.6,0-1.1.4-1.2.4-.2.8.2.7.6,1.6-.8-1.4-2.6-2.8-.3-.4.7.7,1.4.7,1.8s-1,1.2-.7,1.8c1.4,2.3,4.3.6,2.7-.3,0,.5-.3.8-.7.6-.4-.1-.6-.6-.4-1.2.5-1.3,2.5-.3,2.4,1.2-.2,3.2-3.9,1.7-5.4,1.3h0Z"/>
          <path class="st10" d="M245.6,175v19.3h-.1c0,3.4-1.4,6.6-3.5,8.8-2.2,2.3-5.2,3.6-8.4,3.6h0c-3.3,0-6.3-1.4-8.4-3.7-2.1-2.3-3.5-5.4-3.4-8.9h0v-19.3c.1,0,23.9.1,23.9.1h0Z"/>
        </g>
      </g>
    </g>
  </g>
</svg>