<?xml version="1.0" encoding="UTF-8"?>
<svg xmlns="http://www.w3.org/2000/svg" version="1.1" viewBox="0 0 500 437.84">
  <!-- Generator: Adobe Illustrator 29.3.0, SVG Export Plug-In . SVG Version: 2.1.0 Build 146)  -->
  <defs>
    <style>
      .st0 {
        fill: #6b6ead;
      }

      .st1 {
        fill: #576daf;
      }

      .st2, .st3 {
        fill: #efc83e;
      }

      .st4 {
        fill: #eecfc2;
      }

      .st5, .st6, .st7, .st8, .st9 {
        fill: #fff;
      }

      .st3 {
        stroke-width: 1.98px;
      }

      .st3, .st10, .st11, .st12, .st13 {
        stroke-miterlimit: 10;
      }

      .st3, .st13 {
        stroke: #fff;
      }

      .st14, .st15 {
        fill: #394971;
      }

      .st16 {
        fill: #c94b58;
      }

      .st10, .st11 {
        stroke: #304886;
        stroke-linecap: round;
        stroke-width: 1.26px;
      }

      .st10, .st11, .st12, .st13 {
        fill: none;
      }

      .st6 {
        font-size: 15.47px;
      }

      .st6, .st7, .st9 {
        font-family: Nunito-Bold, Nunito;
        font-weight: 700;
      }

      .st11 {
        stroke-dasharray: 7.18 7.18;
      }

      .st17 {
        fill: #cd5b62;
      }

      .st18 {
        fill: #e6b6b3;
      }

      .st18, .st19, .st15 {
        mix-blend-mode: multiply;
      }

      .st20 {
        fill: #9d3b45;
      }

      .st7 {
        font-size: 7.89px;
      }

      .st21 {
        isolation: isolate;
      }

      .st22 {
        fill: #213a63;
      }

      .st23 {
        fill: #222941;
      }

      .st12 {
        stroke: #394971;
      }

      .st12, .st13 {
        stroke-width: .8px;
      }

      .st24 {
        fill: #213a8d;
      }

      .st8 {
        mix-blend-mode: soft-light;
        opacity: .5;
      }

      .st25 {
        fill: #49578c;
      }

      .st26 {
        fill: #d8ab1d;
      }

      .st9 {
        font-size: 10.1px;
      }

      .st27 {
        fill: #304886;
      }

      .st19, .st15 {
        opacity: .3;
      }

      .st28 {
        fill: #f3d837;
      }
    </style>
  </defs>
  <g class="st21">
    <g id="OBJECTS">
      <g>
        <g>
          <path class="st10" d="M379.36,238.53c1.18-.21,2.36-.43,3.54-.69"/>
          <path class="st11" d="M389.86,236.05c16.3-4.9,31.22-14.4,42.46-27.19,13.61-15.5,21.73-35.73,22.59-56.34.94-22.39-8.02-46.6-27.51-57.66-15.73-8.92-36.75-7.42-51.05,3.66-5.06,3.92-9.41,9.12-11,15.32-1.59,6.2.04,13.46,5.04,17.46,7.37,5.89,19.58,2.03,23.92-6.35,4.33-8.38,1.7-19.16-4.55-26.22-6.25-7.06-15.43-10.9-24.65-12.87-19.7-4.21-40.95-.65-58.19,9.76-15.19,9.17-27.13,23.56-33.48,40.11"/>
          <path class="st10" d="M272.22,139.1c-.38,1.14-.73,2.29-1.06,3.45"/>
        </g>
        <g>
          <polygon class="st16" points="151.02 201.04 157.59 201.04 152.94 196.39 154.32 195.01 158.97 199.66 158.97 193.09 160.92 193.09 160.92 199.66 165.57 195.01 166.95 196.39 162.3 201.04 168.88 201.04 168.88 202.99 162.3 202.99 166.95 207.64 165.57 209.02 160.92 204.37 160.92 210.95 158.97 210.95 158.97 204.37 154.32 209.02 152.94 207.64 157.59 202.99 151.02 202.99 151.02 201.04"/>
          <polygon class="st1" points="460.23 225.78 465.76 225.78 461.85 221.88 463.01 220.72 466.92 224.63 466.92 219.1 468.55 219.1 468.55 224.63 472.46 220.72 473.62 221.88 469.71 225.78 475.24 225.78 475.24 227.42 469.71 227.42 473.62 231.33 472.46 232.49 468.55 228.58 468.55 234.1 466.92 234.1 466.92 228.58 463.01 232.49 461.85 231.33 465.76 227.42 460.23 227.42 460.23 225.78"/>
          <polygon class="st16" points="189.3 78.49 194.33 78.49 190.77 74.93 191.83 73.87 195.39 77.43 195.39 72.4 196.88 72.4 196.88 77.43 200.43 73.87 201.49 74.93 197.93 78.49 202.96 78.49 202.96 79.98 197.93 79.98 201.49 83.53 200.43 84.59 196.88 81.03 196.88 86.06 195.39 86.06 195.39 81.03 191.83 84.59 190.77 83.53 194.33 79.98 189.3 79.98 189.3 78.49"/>
          <path class="st1" d="M369.68,1.89l-1.31,3.22c-.49,1.19-1.43,2.14-2.63,2.63l-3.22,1.31,3.22,1.31c1.19.49,2.14,1.43,2.63,2.63l1.31,3.22,1.31-3.22c.49-1.19,1.43-2.14,2.63-2.63l3.22-1.31-3.22-1.31c-1.19-.49-2.14-1.43-2.63-2.63l-1.31-3.22Z"/>
          <path class="st16" d="M466.7,73.37l-.88,2.17c-.33.8-.96,1.44-1.77,1.77l-2.17.88,2.17.88c.8.33,1.44.96,1.77,1.77l.88,2.17.88-2.17c.33-.8.96-1.44,1.77-1.77l2.17-.88-2.17-.88c-.8-.33-1.44-.96-1.77-1.77l-.88-2.17Z"/>
          <path class="st27" d="M143.41,150.82l-.83,2.04c-.31.75-.91,1.35-1.66,1.66l-2.04.83,2.04.83c.76.31,1.35.91,1.66,1.66l.83,2.04.83-2.04c.31-.76.91-1.35,1.66-1.66l2.04-.83-2.04-.83c-.75-.31-1.35-.91-1.66-1.66l-.83-2.04Z"/>
          <path class="st16" d="M406.25,166.93c0,1.64,1.33,2.96,2.96,2.96s2.96-1.33,2.96-2.96-1.33-2.96-2.96-2.96-2.96,1.33-2.96,2.96Z"/>
          <path class="st16" d="M292.6,60.07l-.88,2.17c-.33.8-.96,1.44-1.77,1.77l-2.17.88,2.17.88c.8.33,1.44.96,1.77,1.77l.88,2.17.88-2.17c.33-.8.96-1.44,1.77-1.77l2.17-.88-2.17-.88c-.8-.33-1.44-.96-1.77-1.77l-.88-2.17Z"/>
        </g>
      </g>
      <g>
        <g>
          <path class="st23" d="M299.95,389.34c.41,2.05,12.28,16.98-10.03,25.99-22.3,9-28.65,13.5-28.65,13.5l113.36.2s-28.03-13.5-35.4-22.92c-6.39-8.17,2.66-16.37,2.66-16.37l-41.95-.41Z"/>
          <g>
            <path class="st5" d="M227.49,349.13c25.07-7.58,41.67-16.15,55.38-29.79,14.56-14.5,19.71-28.59,23.66-48.32,5.5-27.5,11.47-71.36,41.23-81.85,27.67-9.76,52.31,12.24,66.42,34.82,18.14,29.02,23.63,58.08,23.66,92.19.02,27.6-7.08,78.24-94.32,78.24,0,0-59.57,0-103.67,0-57.29,0-48.36-34.4-12.35-45.29Z"/>
            <g>
              <path class="st5" d="M235.21,347.27c5.14-10.54,26.93-7.38,50.46-32.03,13.63-14.28,19.29-26.61,23.15-45.19,3.27-15.71,15.5-68.21,37.26-70.28,8.76-.83,17.72.27,25.44,4.5,10.7,5.88,20.91,17.54,26.8,28.23,5.88,10.69,9.73,20.33,12.43,32.23,3.84,16.88,4.91,31.77,3.38,46.19-3.59,33.71-21.85,52.4-49.73,59.07-28.1,6.72-53.49,4.4-86.74,4.09-12.72-.12-53.06-5.03-42.45-26.81Z"/>
              <path class="st14" d="M235.54,347.46c.27-.55.58-1.07.95-1.55.02-.03.05-.06.07-.09.01-.01.02-.03.03-.04.03-.04-.05.06-.04.05,0-.01.02-.02.03-.03.05-.06.09-.12.14-.17.1-.12.19-.23.29-.35.2-.23.42-.45.64-.66s.46-.42.7-.62c.06-.05.13-.1.19-.15.03-.02.06-.05.09-.07.01-.01.03-.02.04-.03,0,0,.02-.01.03-.02.04-.03-.08.06-.04.03.13-.1.26-.19.39-.29.55-.39,1.12-.75,1.7-1.09.63-.36,1.27-.69,1.92-1.01.7-.34,1.42-.66,2.13-.96.05-.02.1-.04.14-.06.03-.01.06-.03-.05.02.01,0,.03-.01.04-.02.03-.01.05-.02.08-.03.09-.04.19-.08.28-.12.19-.08.38-.16.58-.24.4-.16.79-.32,1.19-.48.84-.33,1.68-.65,2.52-.98.9-.35,1.79-.69,2.69-1.04.95-.37,1.9-.75,2.85-1.14,1.03-.42,2.05-.86,3.07-1.31s2.09-.95,3.13-1.45c1.09-.53,2.18-1.08,3.25-1.65,1.13-.61,2.25-1.24,3.35-1.9,1.17-.7,2.32-1.42,3.45-2.18,1.2-.8,2.37-1.63,3.53-2.49,1.24-.93,2.46-1.89,3.65-2.89,1.25-1.05,2.47-2.13,3.66-3.24,1.27-1.18,2.5-2.4,3.69-3.66,1.04-1.08,2.05-2.19,3.05-3.31s1.87-2.15,2.77-3.25,1.73-2.17,2.56-3.29c.79-1.06,1.55-2.13,2.28-3.23s1.4-2.15,2.06-3.25,1.27-2.18,1.86-3.29,1.14-2.23,1.67-3.36,1.05-2.34,1.54-3.52.93-2.37,1.36-3.56.84-2.46,1.22-3.7.76-2.57,1.11-3.86.69-2.69,1.01-4.04.59-2.61.86-3.93c.11-.54.23-1.08.34-1.62.13-.61.26-1.21.4-1.82.15-.67.3-1.34.45-2,.16-.72.33-1.45.5-2.17.18-.78.37-1.55.56-2.32.2-.82.4-1.64.61-2.46.22-.86.44-1.72.66-2.58s.47-1.79.72-2.68.51-1.85.77-2.77.55-1.89.83-2.84.58-1.93.88-2.89.62-1.95.94-2.93.65-1.97.99-2.95.69-1.97,1.05-2.95.73-1.96,1.1-2.94.76-1.95,1.16-2.91c.1-.24.2-.48.3-.72.05-.12.1-.24.15-.36.02-.06.05-.11.07-.17.01-.03.03-.06.04-.09.01-.03.03-.08-.01.03,0-.02.02-.04.02-.06.2-.48.41-.95.61-1.43.41-.94.83-1.88,1.27-2.81s.87-1.82,1.32-2.73.9-1.76,1.38-2.63.94-1.7,1.44-2.53.98-1.61,1.49-2.4,1.01-1.51,1.55-2.25c.26-.36.52-.72.79-1.07.03-.04.06-.08.09-.12.02-.02.08-.11,0,0,.02-.02.04-.05.06-.07.07-.09.14-.18.21-.26.13-.17.27-.34.41-.51.53-.66,1.08-1.3,1.66-1.92s1.12-1.17,1.71-1.72,1.16-1.04,1.77-1.51c.02-.01.03-.03.05-.04,0,0,.01-.01.02-.02.05-.04-.08.06-.04.03.04-.03.08-.06.12-.09.08-.06.15-.12.23-.17.15-.11.3-.22.45-.33.3-.21.61-.42.92-.61.61-.38,1.24-.73,1.88-1.05.16-.08.32-.15.48-.22.08-.03.16-.07.24-.1.01,0,.02,0,.03-.01,0,0-.1.04-.06.02.02,0,.04-.02.06-.02.04-.02.09-.04.14-.06.32-.13.65-.25.98-.36.65-.22,1.32-.39,2-.51.17-.03.34-.06.51-.08.04,0,.08-.01.12-.02-.17.02,0,0,.04,0,.09-.01.17-.02.26-.03.72-.08,1.45-.13,2.17-.17,1.59-.1,3.17-.13,4.76-.08s3.16.16,4.73.36c.09.01.18.02.27.04.02,0,.05,0,.07,0,.06,0-.1-.01,0,0,.05,0,.11.01.16.02.2.03.4.06.6.09.39.06.78.12,1.16.19.77.14,1.54.3,2.31.48,1.53.37,3.03.82,4.5,1.37.37.14.73.28,1.1.43.08.03.17.07.25.1.02,0,.16.07.06.03.05.02.1.04.15.06.19.08.37.16.55.24.72.32,1.43.67,2.13,1.04,1.26.67,2.48,1.41,3.67,2.19.6.4,1.2.81,1.78,1.23.3.21.59.43.88.65.14.11.29.22.43.33.03.03.07.05.1.08.02.02.04.03.06.05.07.05-.05-.04,0,0,.08.06.16.12.23.18,1.18.92,2.33,1.89,3.44,2.89s2.24,2.08,3.31,3.17,2.13,2.23,3.14,3.38,1.99,2.33,2.94,3.54c.12.15.23.29.34.44.03.03.05.07.08.1.06.07-.05-.07,0,0,.01.02.03.04.04.05.06.08.12.16.19.24.23.3.46.6.68.91.45.6.89,1.21,1.32,1.83.84,1.2,1.66,2.43,2.44,3.67s1.48,2.45,2.16,3.7c.77,1.41,1.53,2.84,2.26,4.27s1.39,2.8,2.05,4.21c.32.7.64,1.4.95,2.1.15.35.31.7.46,1.05.07.17.15.34.22.51.02.04.03.08.05.12,0,.02.04.1,0,0,0,.02.02.04.03.06.04.09.08.19.12.28.59,1.4,1.14,2.81,1.67,4.23s1.03,2.87,1.5,4.32.93,2.96,1.35,4.45.83,3.08,1.2,4.63c.4,1.68.77,3.37,1.13,5.06s.68,3.39.98,5.1.56,3.32.81,4.99c.06.41.12.82.17,1.23.01.1.03.19.04.29,0,.05.01.1.02.14,0,.02.01.12,0,.01,0,.03,0,.06.01.09.03.21.06.42.08.63.1.81.2,1.62.29,2.43.18,1.6.33,3.19.46,4.79s.22,3.14.29,4.71.1,3.1.11,4.64,0,3.06-.06,4.58-.12,3.02-.23,4.53-.23,3-.39,4.49c-.07.68-.15,1.37-.24,2.05-.02.17-.04.33-.06.49,0,.04-.01.08-.02.12,0,.02,0,.05,0,.07.01-.11,0-.05,0-.02-.01.09-.02.18-.04.27-.05.33-.09.67-.14,1-.19,1.31-.41,2.61-.66,3.91s-.51,2.52-.81,3.76-.6,2.42-.95,3.62-.7,2.32-1.09,3.47-.79,2.23-1.22,3.33c-.11.27-.22.54-.33.81-.05.13-.11.26-.16.39-.01.03-.03.06-.04.09-.03.07.04-.09,0-.02,0,.02-.02.04-.02.06-.03.07-.06.14-.09.2-.23.53-.46,1.05-.7,1.57-.47,1.03-.97,2.04-1.49,3.04s-1.06,1.95-1.62,2.9-1.14,1.86-1.75,2.76-1.23,1.76-1.88,2.62c-.04.05-.08.1-.11.15-.02.02-.04.05-.06.07-.01.01-.02.03-.03.04-.04.06.06-.08.01-.02-.08.11-.17.22-.25.32-.16.21-.33.42-.5.62-.33.41-.67.82-1.02,1.22-.69.8-1.4,1.58-2.13,2.34s-1.48,1.49-2.25,2.21-1.56,1.41-2.37,2.08c-.4.34-.81.66-1.23.99-.05.04-.1.08-.14.11-.02.02-.05.04-.07.06-.01.01-.03.02-.04.03.09-.07.04-.03.02-.01-.11.08-.21.16-.32.25-.21.16-.42.32-.63.47-.85.63-1.72,1.23-2.6,1.81s-1.79,1.14-2.71,1.68-1.87,1.06-2.82,1.55-1.94.97-2.93,1.42c-.5.23-1,.45-1.5.66-.06.03-.12.05-.18.08-.03.01-.06.02-.09.04-.02.01-.09.04.02,0-.02,0-.04.01-.05.02-.13.05-.26.11-.39.16-.26.11-.51.21-.77.31-1.04.41-2.08.81-3.14,1.17s-2.15.72-3.24,1.05-2.22.64-3.34.93c-1.35.34-2.7.66-4.06.95-1.47.32-2.93.62-4.41.9s-2.92.53-4.38.77c-.73.12-1.45.23-2.18.34-.36.05-.73.11-1.09.16-.18.02-.35.05-.53.07-.09.01-.19.03-.28.04-.02,0-.03,0-.05,0-.09.01.09-.01,0,0-.05,0-.1.01-.15.02-1.45.19-2.9.37-4.35.52s-2.89.29-4.34.42-2.9.23-4.35.32-2.91.17-4.37.23-2.93.12-4.39.16-2.95.07-4.43.09-2.98.03-4.47.03-3.02,0-4.53-.01-3.06-.03-4.59-.05-3.11-.05-4.66-.08-3.16-.06-4.75-.1-3.22-.07-4.84-.11-3.29-.07-4.94-.1-3.36-.07-5.05-.09-3.44-.05-5.17-.07c-.89,0-1.78-.01-2.67-.04-.59-.02-1.18-.04-1.77-.07-.66-.03-1.32-.07-1.98-.12-.72-.05-1.44-.11-2.16-.18-.77-.07-1.54-.15-2.3-.24-.4-.05-.8-.09-1.2-.14-.2-.03-.41-.05-.61-.08-.1-.01-.2-.03-.31-.04-.05,0-.1-.01-.15-.02-.02,0-.05,0-.07,0,.15.02.03,0,0,0-.84-.11-1.68-.24-2.52-.37s-1.72-.28-2.58-.44-1.75-.33-2.62-.52-1.75-.39-2.63-.6-1.74-.44-2.61-.69-1.71-.5-2.56-.78-1.66-.56-2.48-.87c-.4-.15-.8-.31-1.2-.47-.1-.04-.2-.08-.3-.12-.05-.02-.1-.04-.14-.06-.02,0-.05-.02-.07-.03.14.06.03.01,0,0-.19-.08-.39-.17-.58-.25-.76-.34-1.51-.69-2.25-1.07s-1.41-.76-2.08-1.18-1.28-.83-1.9-1.29c-.03-.03-.07-.05-.1-.08-.02-.01-.04-.03-.06-.04,0,0-.02-.01-.03-.02-.05-.04.09.07.03.02-.07-.06-.15-.11-.22-.17-.14-.11-.29-.23-.43-.35-.28-.23-.55-.47-.81-.72-.51-.48-.99-.99-1.43-1.53-.05-.07-.11-.13-.16-.2-.02-.03-.12-.16-.02-.03-.03-.03-.05-.07-.08-.1-.1-.13-.2-.27-.3-.41-.19-.27-.37-.56-.54-.84s-.32-.58-.47-.88c-.07-.15-.14-.3-.2-.45,0-.01,0-.02-.01-.03,0,0,.04.11.02.06,0-.02-.01-.04-.02-.05-.02-.04-.03-.08-.05-.12-.03-.08-.06-.15-.09-.23-.23-.62-.41-1.27-.52-1.92-.01-.08-.03-.17-.04-.25,0-.04-.01-.08-.02-.12,0-.04-.02-.12,0,.03,0-.02,0-.05,0-.07-.02-.17-.04-.34-.05-.51-.03-.35-.04-.7-.03-1.05s.03-.72.06-1.08c0-.09.02-.18.03-.28,0-.05.01-.09.02-.14-.02.17,0-.01,0-.05.03-.19.06-.38.09-.56.15-.8.37-1.58.64-2.35.12-.35.26-.69.4-1.03.02-.05-.04.1,0,.01,0-.02.02-.04.03-.07.02-.04.04-.09.06-.13.04-.09.08-.18.12-.26.08-.18.17-.36.26-.55s.05-.42-.14-.52c-.17-.09-.43-.05-.52.14-.4.83-.76,1.69-1.05,2.57-.25.76-.45,1.54-.58,2.33s-.19,1.51-.18,2.27c0,.72.09,1.43.23,2.14.13.65.32,1.29.57,1.91s.57,1.26.93,1.85.79,1.17,1.25,1.71.95,1.05,1.47,1.52c.56.52,1.16,1,1.77,1.45s1.26.88,1.92,1.28c.69.42,1.4.81,2.12,1.18s1.5.73,2.26,1.06c.81.35,1.64.68,2.47.99s1.66.6,2.5.86,1.71.53,2.57.77,1.74.47,2.61.68,1.75.41,2.63.59,1.75.35,2.63.51,1.72.3,2.58.43,1.73.26,2.6.37c.81.11,1.62.21,2.43.3.76.08,1.53.16,2.29.23.71.06,1.43.12,2.14.17.65.05,1.31.08,1.96.12.58.03,1.17.05,1.75.06,1.02.03,2.04.03,3.06.04,1.72.02,3.44.05,5.15.08s3.38.06,5.06.1,3.28.07,4.93.11,3.22.07,4.83.11,3.17.07,4.75.1,3.11.06,4.67.08,3.06.04,4.58.05,3.02.01,4.53,0,2.99-.02,4.48-.04,2.95-.05,4.42-.1,2.93-.1,4.39-.17,2.93-.15,4.39-.25,2.9-.21,4.35-.33,2.9-.27,4.34-.43,2.96-.35,4.44-.55,2.92-.42,4.37-.66,2.92-.5,4.38-.78,2.95-.59,4.41-.92c1.32-.29,2.63-.6,3.94-.94,1.12-.29,2.22-.6,3.33-.94s2.16-.69,3.23-1.06,2.1-.77,3.14-1.2,2.07-.87,3.09-1.35,1.96-.94,2.91-1.44,1.89-1.02,2.81-1.57,1.82-1.11,2.7-1.7,1.74-1.2,2.58-1.83,1.71-1.31,2.53-2.01,1.6-1.38,2.37-2.1,1.51-1.46,2.23-2.23,1.43-1.55,2.11-2.36,1.39-1.7,2.05-2.58,1.27-1.74,1.86-2.64,1.18-1.83,1.74-2.77,1.1-1.93,1.61-2.92,1.01-2.03,1.48-3.07.94-2.17,1.37-3.27.83-2.22,1.21-3.34.75-2.33,1.08-3.51.65-2.42.93-3.63.55-2.52.79-3.78.46-2.62.65-3.94c.2-1.4.37-2.8.51-4.2.15-1.5.28-3,.38-4.5s.17-3.03.21-4.55.05-3.07.04-4.6-.06-3.1-.13-4.65-.18-3.15-.31-4.72-.29-3.23-.48-4.83-.42-3.32-.66-4.97-.53-3.34-.83-5-.65-3.42-1.01-5.13-.73-3.36-1.14-5.02c-.38-1.54-.78-3.08-1.22-4.61s-.88-2.96-1.36-4.43-.99-2.9-1.53-4.33-1.12-2.87-1.72-4.29-1.22-2.81-1.88-4.2-1.37-2.84-2.08-4.24-1.49-2.85-2.27-4.25c-.69-1.24-1.41-2.46-2.17-3.66s-1.62-2.48-2.48-3.68-1.83-2.49-2.79-3.69-1.95-2.38-2.97-3.52-2.08-2.27-3.16-3.36-2.2-2.14-3.35-3.16-2.31-1.97-3.51-2.9-2.34-1.73-3.55-2.52-2.47-1.53-3.76-2.19c-1.42-.73-2.9-1.36-4.41-1.9s-2.99-.96-4.52-1.31-3.15-.62-4.74-.8-3.16-.28-4.75-.31-3.18.01-4.76.12c-1.01.07-2.02.14-3.01.34-.68.13-1.35.31-2,.54-.69.24-1.36.52-2.01.84s-1.27.68-1.88,1.07c-.65.42-1.28.88-1.89,1.36s-1.2,1-1.77,1.53-1.16,1.14-1.71,1.74-1.13,1.27-1.66,1.94c-.57.71-1.12,1.44-1.65,2.18s-1.05,1.5-1.54,2.26-1.01,1.59-1.49,2.41-.97,1.69-1.44,2.55-.93,1.75-1.37,2.64-.89,1.82-1.32,2.73-.86,1.87-1.27,2.82-.84,1.96-1.24,2.95-.78,1.94-1.15,2.91-.74,1.96-1.1,2.94-.71,1.98-1.05,2.97-.67,1.96-.99,2.95-.63,1.95-.93,2.92-.6,1.93-.88,2.9-.55,1.89-.82,2.83-.52,1.84-.77,2.76-.48,1.79-.72,2.68-.45,1.72-.66,2.58c-.21.81-.41,1.63-.61,2.45-.19.77-.37,1.54-.55,2.31-.17.72-.34,1.45-.5,2.17-.15.66-.3,1.32-.44,1.99-.13.6-.26,1.2-.39,1.8-.11.53-.23,1.07-.34,1.6-.29,1.4-.6,2.79-.93,4.18s-.66,2.69-1.02,4.02-.72,2.58-1.12,3.85-.8,2.47-1.24,3.7-.89,2.38-1.37,3.55c-.06.15-.12.3-.19.45,0,.01-.01.03-.02.04-.03.07.04-.08,0,0-.01.03-.03.07-.04.1-.03.07-.06.15-.09.22-.12.29-.25.58-.38.86-.25.57-.51,1.14-.78,1.71-.54,1.14-1.11,2.26-1.7,3.37s-1.23,2.21-1.88,3.29-1.36,2.18-2.09,3.24-1.52,2.18-2.31,3.23c-.21.27-.41.54-.62.82-.02.02-.1.13-.03.04-.02.03-.05.06-.07.09-.05.07-.11.14-.16.21-.11.14-.22.28-.32.41-.43.54-.86,1.08-1.31,1.62-.91,1.11-1.85,2.19-2.81,3.26-1.03,1.15-2.08,2.28-3.16,3.39-1.2,1.24-2.44,2.45-3.71,3.62-1.19,1.09-2.4,2.15-3.64,3.17-.59.49-1.19.97-1.8,1.44-.03.03-.07.05-.1.08-.02.02-.04.03-.06.05-.07.05.05-.04,0,0-.08.06-.16.12-.24.18-.15.11-.29.22-.44.33-.3.22-.59.44-.89.66-1.16.85-2.34,1.67-3.54,2.46-1.13.74-2.27,1.45-3.43,2.13-1.1.64-2.21,1.26-3.34,1.86-1.07.56-2.15,1.1-3.24,1.62-1.03.49-2.07.96-3.12,1.42-.25.11-.5.22-.76.33-.12.05-.24.1-.37.16-.03.01-.07.03-.1.04-.03.01-.14.06-.01,0-.06.03-.13.05-.19.08-.49.2-.98.41-1.47.61-.94.38-1.88.75-2.82,1.12-.89.35-1.78.69-2.68,1.03-.83.32-1.66.64-2.49.97s-1.59.64-2.38.98c-.71.31-1.42.63-2.11.97-.64.32-1.27.65-1.89,1.02-.57.34-1.13.71-1.66,1.11s-1.03.82-1.49,1.29-.86.94-1.22,1.46c-.29.42-.55.86-.78,1.32-.09.18-.05.42.14.52.17.09.43.05.52-.14Z"/>
            </g>
            <path class="st14" d="M379.81,210.19c.48.42.96.85,1.43,1.28s.94.88,1.41,1.33.93.92,1.38,1.39.91.95,1.36,1.44.9.99,1.34,1.49.88,1.02,1.31,1.54.86,1.05,1.29,1.59c.21.27.42.54.63.81-.05-.06,0,0,0,0,.01.02.03.03.04.05.03.04.06.07.09.11.05.07.1.13.15.2.1.14.21.28.31.41.42.55.83,1.11,1.23,1.68s.81,1.14,1.21,1.72.79,1.17,1.18,1.76.78,1.2,1.16,1.8.76,1.22,1.13,1.84.74,1.25,1.1,1.87.72,1.27,1.07,1.91.7,1.29,1.04,1.94.68,1.31,1.01,1.98.66,1.34.98,2.01.64,1.36.95,2.04.62,1.37.92,2.07c.15.35.3.69.44,1.04.03.07-.03-.06,0,0,0,.02.02.04.03.06.02.05.04.09.06.14.04.09.07.18.11.26.07.18.15.35.22.53.29.7.57,1.41.85,2.12s.55,1.43.82,2.14.53,1.44.78,2.16.5,1.45.75,2.18.48,1.47.72,2.21.46,1.47.68,2.21.44,1.5.64,2.25.41,1.49.6,2.24.39,1.52.57,2.28.36,1.51.53,2.27.34,1.53.49,2.3.31,1.52.45,2.29.28,1.54.42,2.31.25,1.53.37,2.3.23,1.54.33,2.32c0,.02,0,.05,0,.07,0,.05-.01-.09,0-.05,0,.01,0,.02,0,.04,0,.05.01.1.02.15.01.1.03.19.04.29.03.19.05.39.07.58.05.38.1.77.14,1.16.09.77.17,1.55.25,2.32s.15,1.55.21,2.32.12,1.55.17,2.32.09,1.54.12,2.32.06,1.54.08,2.31.03,1.54.04,2.31,0,1.53,0,2.3-.03,1.53-.05,2.29-.06,1.52-.1,2.28-.09,1.51-.15,2.27-.12,1.5-.19,2.26-.15,1.49-.24,2.24c-.04.37-.09.75-.14,1.12-.01.09-.02.18-.04.27,0,.05-.01.09-.02.14,0,.01,0,.02,0,.03,0,.06,0-.07,0-.06,0,.03,0,.05-.01.08-.03.19-.05.37-.08.56-.1.74-.22,1.47-.34,2.21s-.25,1.46-.39,2.19-.28,1.45-.44,2.17-.31,1.43-.49,2.14-.35,1.42-.54,2.12-.38,1.4-.59,2.1-.42,1.38-.64,2.07-.45,1.36-.69,2.04-.49,1.35-.74,2.01-.52,1.32-.79,1.97c-.02.04-.03.08-.05.12-.02.05.05-.12.01-.03-.01.02-.02.05-.03.07-.03.08-.07.16-.1.24-.07.16-.14.33-.21.49-.14.33-.29.65-.43.97-.29.64-.59,1.28-.9,1.91s-.63,1.26-.96,1.89-.67,1.23-1.01,1.84-.71,1.21-1.08,1.81-.74,1.18-1.12,1.76-.78,1.16-1.19,1.73-.82,1.12-1.24,1.68c-.03.03-.05.07-.08.1-.01.02-.03.03-.04.05,0,0-.01.02-.02.03-.04.06.07-.08.04-.05-.05.07-.11.14-.16.21-.11.14-.22.28-.32.41-.22.27-.44.55-.66.82-.44.54-.89,1.07-1.35,1.59s-.94,1.04-1.42,1.55-.97,1-1.47,1.49-1.02.97-1.54,1.45-1.06.94-1.6,1.4-1.1.91-1.66,1.34c-.03.03-.07.05-.1.08-.04.03.09-.07.05-.04,0,0-.02.01-.03.02-.02.01-.04.03-.06.04-.07.05-.14.11-.21.16-.14.11-.29.22-.43.32-.29.21-.58.43-.87.63-.59.42-1.18.83-1.79,1.23s-1.23.79-1.85,1.17-1.27.76-1.91,1.11-1.31.72-1.98,1.05-1.36.67-2.04.99c-.84.39-1.68.76-2.53,1.12l.11-.05c-.91.39-1.83.76-2.76,1.11s-1.87.7-2.81,1.03-1.89.64-2.84.94-1.92.59-2.89.87-1.94.54-2.91.79-1.97.49-2.96.72-1.98.44-2.97.65-2.01.4-3.01.58-2.01.35-3.02.52-2.03.31-3.05.46c-.25.03-.5.07-.75.1l.13-.02c-1.11.15-2.23.29-3.34.41s-2.23.24-3.35.35-2.25.2-3.38.29-2.25.16-3.38.23-2.27.13-3.4.18-2.26.09-3.39.13-2.27.06-3.41.08-2.26.03-3.39.04-2.26,0-3.39.01-2.26,0-3.4-.02-2.26-.03-3.39-.05-2.24-.05-3.36-.08-2.23-.07-3.34-.11-2.22-.08-3.33-.13-2.21-.09-3.31-.14-2.18-.1-3.27-.16-2.16-.12-3.24-.16c-.54-.02-1.08-.04-1.62-.06-.13,0-.27,0-.4-.01-.06,0-.13,0-.19,0-.03,0-.07,0-.1,0-.02,0-.03,0-.05,0h-.09s.06,0,.03,0c-.06-.02-.13,0-.19-.01-.07,0-.14,0-.21-.01-.13,0-.27-.01-.4-.02-1.06-.05-2.12-.1-3.18-.16s-2.09-.1-3.13-.14c-.25-.01-.5-.02-.75-.03-.12,0-.24,0-.36-.01-.03,0-.07,0-.1,0h-.03s-.04.01-.01,0c-.02,0-.03,0-.05,0-.06,0-.13,0-.19-.01-.13,0-.25.12-.25.25,0,.14.11.24.25.25.05,0,.1,0,.14,0,.02,0,.03,0,.05,0,0,0,.08,0,.03,0,.11.01.22.02.33.03.18.01.35.03.53.04.36.03.73.05,1.09.08.18.01.36.03.54.04.09,0,.18.01.27.02.02,0,.03,0,.05,0-.09,0,.04,0,.07,0,.05,0,.1,0,.15,0,.37.02.74.05,1.1.07.73.05,1.46.1,2.2.14.37.02.75.05,1.12.07.18.01.37.02.55.04.09,0,.18.01.27.02.03,0,.1,0,.12,0h-.04s.08,0,.12.01c.03,0,.06,0,.09,0,.75.06,1.5.11,2.25.17s1.5.09,2.25.13c1.52.08,3.04.17,4.56.24s3.07.15,4.61.22,3.11.13,4.66.18,3.11.1,4.67.14,3.15.07,4.72.08c.78,0,1.57.02,2.36.03s1.57,0,2.36,0c1.58-.01,3.17-.03,4.75-.07s3.15-.09,4.72-.16,3.16-.15,4.74-.25,3.13-.22,4.69-.36,3.13-.29,4.69-.47,3.15-.38,4.73-.61,3.08-.46,4.61-.73,3.02-.56,4.53-.87,3-.66,4.49-1.03,2.94-.77,4.4-1.19,2.89-.88,4.32-1.37,2.83-1,4.23-1.55,2.81-1.15,4.2-1.77c.94-.43,1.87-.87,2.79-1.35s1.78-.95,2.65-1.45,1.71-1.03,2.55-1.57,1.63-1.09,2.42-1.67,1.61-1.21,2.4-1.84,1.48-1.23,2.19-1.87,1.41-1.3,2.09-1.97,1.33-1.35,1.97-2.05,1.26-1.42,1.87-2.15,1.23-1.52,1.81-2.31,1.12-1.53,1.65-2.32,1.04-1.58,1.54-2.38.98-1.64,1.44-2.47.9-1.67,1.33-2.53.84-1.73,1.24-2.61.8-1.83,1.17-2.75.71-1.81,1.03-2.72.64-1.85.94-2.78.57-1.87.84-2.82.51-1.91.75-2.88.45-1.93.65-2.91.39-1.97.56-2.96.33-1.99.47-2.98.28-2.08.39-3.13.21-2.03.29-3.04.15-2.06.2-3.08.09-2.06.12-3.09.04-2.08.03-3.12-.02-2.08-.05-3.12-.08-2.1-.13-3.15-.13-2.09-.21-3.14-.18-2.11-.29-3.16-.23-2.1-.37-3.15-.29-2.15-.46-3.23-.33-2.1-.52-3.14-.38-2.08-.59-3.11-.43-2.08-.67-3.12-.48-2.06-.73-3.08-.53-2.05-.81-3.07-.57-2.02-.87-3.03-.62-2.02-.94-3.02-.66-1.98-1-2.97-.7-1.97-1.07-2.95-.74-1.93-1.13-2.89-.8-1.95-1.22-2.92-.82-1.87-1.25-2.79-.86-1.84-1.31-2.76-.9-1.8-1.36-2.69-.94-1.77-1.42-2.64-.97-1.72-1.48-2.57-1.01-1.68-1.53-2.5-1.04-1.63-1.58-2.43c-.27-.4-.54-.8-.81-1.19-.13-.19-.27-.39-.4-.58-.03-.05-.07-.1-.1-.14-.02-.03-.04-.05-.06-.08.05.06.02.03,0,.01-.02-.03-.04-.06-.06-.08-.07-.1-.14-.19-.2-.29-.55-.77-1.11-1.53-1.69-2.28s-1.16-1.5-1.76-2.23-1.17-1.42-1.78-2.12-1.2-1.35-1.81-2.02-1.23-1.3-1.87-1.93-1.26-1.23-1.9-1.83c-.59-.55-1.19-1.08-1.8-1.6-.09-.08-.22-.09-.31,0-.08.08-.09.23,0,.31h0Z"/>
          </g>
        </g>
        <g>
          <g>
            <g>
              <path class="st4" d="M136.36,363.95l-45.08,42.91-7.58,15.41-57.57-29.84c-1.41-.73-1.95-2.46-1.23-3.86h0c.55-1.05,1.68-1.66,2.86-1.53l30.75,1.29,44.22-46.46"/>
              <path class="st5" d="M21.38,389.22c1.54-1.55,3.68-3.07,5.01-2.98l32.21,2.14c11.53,13.34,32.67,18.48,32.67,18.48l-6.81,21.59c-.34.66-1.15.91-1.8.57l-64.26-32.89c-1.29-.67,2.93-6.86,2.98-6.91Z"/>
              <path class="st12" d="M52.31,386.59c.49,2.68.67,5.43.52,8.15"/>
              <path class="st12" d="M47.97,386.88c.45,2.91.43,4.44.34,6.88"/>
              <path class="st12" d="M44.42,386.89c.32,1.93.36,4.39.37,6.34"/>
            </g>
            <line class="st12" x1="85.72" y1="425.17" x2="20.06" y2="391.13"/>
            <path class="st12" d="M88.86,414.51s-15.63-7.6-21.73,1.03"/>
            <path class="st12" d="M33,386.68s1.16,8.24.57,11.47"/>
          </g>
          <g>
            <g>
              <path class="st4" d="M209.19,343.55l-14.96,54.13,2.33,17.02-64.41,7.44c-1.57.18-2.99-.95-3.18-2.52h0c-.14-1.18.47-2.32,1.52-2.87l26.22-16.12,12.26-56.59"/>
              <path class="st5" d="M126.42,422.12c.41-2.14,1.34-4.6,2.49-5.27l27.91-16.23c17.02,4.62,37.42-2.94,37.42-2.94l6.42,21.71c.08.73-.44,1.4-1.18,1.48l-71.67,8.65c-1.44.17-1.41-7.33-1.39-7.4Z"/>
              <path class="st12" d="M150.6,402.66c1.91,1.95,3.59,4.13,4.99,6.47"/>
              <path class="st12" d="M147.16,405.32c1.99,2.16,2.84,3.44,4.13,5.51"/>
              <path class="st12" d="M144.22,407.32c1.35,1.42,2.75,3.44,3.86,5.05"/>
            </g>
            <line class="st12" x1="198.22" y1="415.15" x2="124.76" y2="423.64"/>
            <path class="st12" d="M194.88,404.56s-17.21,2.43-17.44,13"/>
            <path class="st12" d="M132.99,412.71s5.57,6.18,6.89,9.19"/>
          </g>
          <g>
            <path class="st23" d="M336.29,164.15c7.89-.03,15.87,3.19,21.08,9.11,7.11,8.09,8.42,19.88,14.72,28.62,6.07,8.41,15.99,13,25.44,17.3,2.73,1.24,5.52,2.53,7.68,4.61,2.34,2.24,5.48,4.26,6.87,7.18,2.08,4.38,2.51,9.98,2.26,14.82-.22,4.43-2.43,8.62-2.38,13.06.04,3.5,1.49,6.85,1.71,10.35.32,5.03-2,10-5.52,13.6-3.52,3.61-8.13,5.98-12.91,7.61-4.34,1.48-8.87,2.39-13.44,2.7-6.79.46-13.91-.33-20.13,2.42-2.03.89-3.88,2.14-5.9,3.05-6.72,3.06-14.79,2.17-21.4-1.12-6.61-3.29-11.92-8.75-16.28-14.71-2.55-3.47-4.84-7.18-6.29-11.24-3.92-11-1.26-23.15,1.7-34.45,2.97-11.3,6.24-23.15,3.42-34.48-1.07-4.32-2.99-8.38-4.33-12.62-1.42-4.47-2.18-9.15-2.27-13.84-.05-2.43.51-4.55,3.1-5.07.92-.18,1.79.15,2.75-.16,1.29-.42,2.49-1.54,3.67-2.2,5-2.82,10.69-4.5,16.45-4.53Z"/>
            <path class="st23" d="M354.26,179.69c.51,15.03-8.36,30.64-26.86,30.65l-12.69,21.73-9.58-46.96c-.47-3.18,5.11-10.91,7.86-12.58,7.54-4.54,11.63-8.42,20.29-6.82,0,0,20.33-5.44,20.99,13.98Z"/>
            <path class="st16" d="M313.55,207.24c-.07-3.28-2.79-5.87-6.07-5.8-3.28.07-5.87,2.79-5.8,6.07.07,3.28,2.79,5.87,6.07,5.8,3.28-.07,5.87-2.79,5.8-6.07Z"/>
            <path class="st4" d="M332.13,195.54c.27.32,4.07.18,4.5.17,1.77-.05,5.85-.52,6.53,4.1.69,4.67-3.71,7.4-6.39,7.61-.77.06-2.56.26-3.07.84-1.57,1.79.44,15.39-.69,20.21-2.5,10.63,3.22,5.52,3.22,5.52,0,0-36.95,41.24-27.42.59,0,0,1.62-25.14,1.49-25.27-2.21-2.11-10.62-2.85-5.75-20.85,4.51-16.68,16.69-15.77,19.79-15.3,2.62.4-5.7,6.26,7.8,22.38Z"/>
            <path class="st23" d="M308.56,175.77c-1.33,5.24,14.69,8.77,19.54-1.06,0,0,.34-9.94-7.36-10.52-3.97-.3-9.48.96-12.18,11.58Z"/>
            <g>
              <path class="st18" d="M341.17,201.2s-2.92-5.81-6.27,2.14"/>
              <path class="st5" d="M306.7,197.62l7.65,3.6s-3.64,2.78-5.68,1.35c-2.03-1.43-1.98-4.95-1.98-4.95Z"/>
              <path class="st28" d="M321.21,190.48c.68.9.22-2.29-.87-3-1.1-.71-2.48-.52-3.1.42,0,0,2.34.41,3.97,2.58Z"/>
              <path class="st28" d="M308.36,183.65c-1.08.33,1.17-1.98,2.47-1.91,1.3.07,2.31,1.04,2.25,2.17,0,0-2.13-1.05-4.72-.26Z"/>
              <path class="st23" d="M321.21,190.48c.68.9.22-2.29-.87-3-1.1-.71-2.48-.52-3.1.42,0,0,2.34.41,3.97,2.58Z"/>
              <path class="st23" d="M308.36,183.65c-1.08.33,1.17-1.98,2.47-1.91,1.3.07,2.31,1.04,2.25,2.17,0,0-2.13-1.05-4.72-.26Z"/>
              <path class="st23" d="M317.76,193.82c-.34.91-.98,1.52-1.43,1.35-.44-.17-.52-1.04-.18-1.96.35-.91.98-1.52,1.43-1.35.44.17.52,1.04.18,1.96Z"/>
              <path class="st23" d="M310.67,190.64c-.33.87-.94,1.45-1.36,1.29-.42-.16-.5-1-.17-1.87.33-.87.94-1.45,1.36-1.29.42.16.5,1,.17,1.87Z"/>
              <path class="st18" d="M310.28,209.31s7.93,1.33,11.92.98c3.98-.35-12.61,11.1-11.92-.98Z"/>
              <path class="st23" d="M313.45,189.53c-.64,1.13-1.5,2.18-2.45,3.07-.89.83-2.14,1.29-2.96,2.15-1.06,1.12-.18,2.7,1.29,2.64.36-.01.53-.46.28-.71-.34-.35-.89-.66-.38-1.37.13-.18.53-.31.71-.43.61-.39,1.19-.84,1.72-1.34,1.12-1.04,1.85-2.25,2.45-3.65.19-.44-.41-.79-.66-.36Z"/>
            </g>
            <path class="st16" d="M339.7,209.02c-.07-3.28-2.79-5.87-6.07-5.8-3.28.07-5.87,2.79-5.8,6.07.07,3.28,2.79,5.87,6.07,5.8,3.28-.07,5.87-2.79,5.8-6.07Z"/>
          </g>
        </g>
      </g>
      <g>
        <g>
          <g>
            <path class="st23" d="M471.98,396.03l9.35,11.04c-.72,2.45-6.39,3.09-6.39,3.09l-5.88-12.95,2.92-1.18Z"/>
            <path class="st23" d="M425.28,324.2l-9.35-11.04c.72-2.45,6.39-3.09,6.39-3.09l5.88,12.95-2.92,1.18Z"/>
            <path class="st23" d="M447.22,412.65c10.29,0,20.76-2.86,30.05-8.37l-2.7-4.56c-12.24,7.26-26.67,9.47-39.58,6.07-11.22-2.96-20.17-9.78-25.89-19.75-7.34-12.79-9.47-27.62-5.83-40.67,3.02-10.84,9.75-19.42,19.46-24.81l-2.57-4.64c-10.98,6.1-18.58,15.79-21.99,28.02-4.01,14.41-1.7,30.71,6.34,44.73,6.44,11.22,16.51,18.91,29.14,22.24,4.41,1.16,8.98,1.73,13.58,1.73Z"/>
          </g>
          <path class="st23" d="M444.35,409.91h11.09c-.08,3.39,3.98,8.89,3.98,8.89h-18.87s3.65-6.25,3.81-8.89Z"/>
          <path class="st23" d="M480.93,428.38h-62.17s1.58-7.11,4.29-9.03c2.71-1.92,49.33-2.26,52.87-.56,3.55,1.69,5.01,9.59,5.01,9.59Z"/>
          <g>
            <path class="st17" d="M409.46,379.1c.03.05.05.1.07.15,2.23,4.48,5.32,8.48,9.04,11.86.02.02.05.04.07.06h0s.05.05.08.07c5.1,4.57,11.37,8.01,18.25,9.99.12.04.24.07.36.11,3.64,1.02,7.44,1.64,11.33,1.8,2.41.1,4.77,0,7.07-.3.07,0,.15-.02.23-.03,5.77-.79,11.1-2.8,15.78-5.75.05-.03.1-.06.15-.09,1.76-1.13,3.44-2.38,5.01-3.76,2.07-1.81,3.96-3.83,5.64-6.02.05-.07.1-.13.15-.2,2.86-3.75,5.12-8.01,6.66-12.59.04-.11.07-.23.11-.34,1.43-4.4,2.2-9.08,2.2-13.91,0-3.47-.41-6.81-1.19-9.99-.01-.07-.03-.13-.05-.19-1.48-5.93-4.24-11.29-7.98-15.88-.03-.05-.07-.09-.11-.13-4.16-5.08-9.51-9.21-15.65-12.12-.09-.05-.18-.09-.27-.13-1.54-.72-3.14-1.37-4.77-1.93-4.1-1.41-8.47-2.31-12.99-2.63-2.99-.21-5.88-.07-8.64.38-.23.03-.44.07-.67.12-1.53.27-3.02.64-4.47,1.1-.1.03-.19.06-.29.09-2.34.76-4.57,1.75-6.68,2.95-.82.46-1.62.95-2.41,1.48-.05.03-.09.06-.15.09-3.2,2.16-6.08,4.8-8.58,7.82-.06.06-.11.13-.15.19-1.5,1.81-2.86,3.76-4.06,5.81-.15.23-.29.46-.41.7-2.63,4.63-4.53,9.78-5.59,15.19-.02.09-.04.18-.05.27-.42,2.23-.71,4.49-.84,6.79-.39,6.92,1.02,13.32,3.79,18.95Z"/>
            <g>
              <path class="st20" d="M437.81,353.64c1.07,2.46,4.28,2.89,6.64,4.15,4.16,2.23,5.79,8.17,3.33,12.2-1.19,1.96-3.1,3.37-4.43,5.23-1.33,1.87-1.92,4.65-.36,6.33.93.99,2.38,1.33,3.75,1.31,4.57-.04,10.51-4.54,9.58-9.65-.31-1.71-1.22-3.25-1.65-4.94-.43-1.68-.23-3.76,1.21-4.74,1.56-1.07,3.67-.34,5.4.42,1.72.75,4.02,2.32,5.9,2.27,1.58-.05,3.84-.74,4.88-1.98,1.21-1.52.76-3.86-.4-5.42-1.17-1.56-2.88-2.59-4.43-3.79-1.54-1.19-3.02-2.72-3.29-4.65-.5-3.45,3.1-6.25,6.55-6.7,2.13-.28,4.77.36,5.42,2.41.37,1.15,0,2.39-.05,3.6-.09,3.47,2.59,6.3,4.75,9.03,2.15,2.74,3.91,6.66,1.96,9.53-1.48,2.19-4.48,2.72-7.13,2.63-4.49-.15-10.1-.73-13.23,3.31-.61.8-1.09,1.85-.72,2.78.44,1.13,1.85,1.51,3.06,1.49,1.68-.03,3.36-.53,5.03-.28,1.66.25,3.36,1.71,3,3.35-.49,2.19-3.89,2.47-4.72,4.57-.64,1.6.62,3.33,1.99,4.38,2.03,1.56,4.51,2.41,7.06,2.68,9.12-7.99,14.76-19.99,14.76-33.05,0-19.21-12.64-34.4-30-40.37-.82.75-1.74,1.39-2.78,1.9-3.4,1.64-7.37,1.05-10.98,1.84-1.31.29-2.7.86-3.29,2.06-.8,1.66.43,3.71,2.06,4.58,1.64.88,3.55.95,5.38,1.32,1.6.31,3.26.93,4.22,2.26.95,1.33.83,3.51-.6,4.3-1.86,1.03-5.01-.45-5.86,1.49-.74,1.67,1.64,3.27,1.48,5.08-.09,1.01-.99,1.8-1.97,2.09-.97.3-2.02.22-3.03.18-2.17-.09-4.45.06-6.28,1.21-1.84,1.15-3.04,3.57-2.17,5.56Z"/>
              <path class="st20" d="M418.64,391.17h0c2.04.03,4.07.06,6.11.09,1.42.02,2.86.04,4.2-.38,1.35-.42,2.62-1.37,3.06-2.7,1.15-3.51-3.67-6.88-2.65-10.43.62-2.13,3.23-3.54,3.1-5.76-.07-1.11-.87-2.07-1.84-2.64-.96-.56-2.08-.78-3.18-1-3.99-.78-7.98-1.57-11.96-2.36-1.74-.34-3.89-1.14-3.94-2.91-.06-1.69,2.01-2.7,3.69-2.51,3.31.38,6.07,3.56,9.38,3.09,2.45-.34,4.29-3.03,3.73-5.44-.54-2.33-2.92-4.47-2-6.68.93-2.24,4.4-2.17,5.78-4.17,1.11-1.61.32-3.97-1.19-5.22-1.52-1.25-3.53-1.67-5.45-2.07-1.92-.39-3.93-.84-5.41-2.13-1.48-1.28-2.19-3.69-1-5.24,1.69-2.21,5.28-1.06,7.85-2.12,2.29-.95,3.48-3.83,2.74-6.2-.32-1.03-.95-1.92-1.77-2.6-12.93,7.3-21.33,22.19-22.23,38.36-.7,12.54,4.49,23.36,12.97,31.02Z"/>
            </g>
            <path class="st8" d="M439.64,325.54c-3.22,5.58,3.02,15.22,13.94,21.52,10.92,6.3,22.39,6.89,25.61,1.31,3.22-5.58-3.02-15.22-13.94-21.52-10.92-6.3-22.39-6.89-25.61-1.31Z"/>
          </g>
          <path class="st8" d="M426.41,366.83c-5.75,3.96-11.4,8.05-16.95,12.27.03.05.05.1.07.15,5.56-4.22,11.21-8.31,16.96-12.28.91,1.81,1.9,3.6,2.94,5.37,2.47,4.2,5.25,8.27,8.35,12.18-6.27,2.59-12.68,4.8-19.2,6.58.02.02.05.04.07.06h0s.05.05.08.07c6.5-1.78,12.91-3.98,19.17-6.56,3.71,4.68,7.86,9.15,12.42,13.4-4.36,1.38-8.82,2.44-13.34,3.16.12.04.24.07.36.11,4.41-.72,8.8-1.78,13.11-3.15,1.7,1.58,3.47,3.13,5.29,4.64.07,0,.15-.02.23-.03-1.84-1.52-3.61-3.08-5.33-4.67,5.4-1.73,10.69-3.94,15.74-6.63.84-.45,1.68-.91,2.5-1.39.99,2.3,1.96,4.61,2.88,6.93.14.35.28.7.42,1.05l.16-.06c-.14-.36-.29-.72-.43-1.09-.91-2.32-1.88-4.63-2.88-6.93,4.51-2.58,8.79-5.53,12.79-8.78.29,1.94.54,3.92.74,5.93.05-.07.1-.13.15-.2-.2-1.99-.44-3.94-.74-5.86,2.59-2.11,5.06-4.36,7.39-6.73.04-.11.07-.23.11-.34-2.38,2.44-4.9,4.74-7.53,6.9-1.04-6.81-2.64-13.21-4.78-19.15,4.65-3.65,9.1-7.53,13.32-11.65-.01-.07-.03-.13-.05-.19-4.22,4.12-8.68,8.01-13.34,11.65-1.71-4.71-3.76-9.15-6.16-13.28-1.24-2.13-2.59-4.18-4.04-6.16,5.14-2.8,10.32-5.5,15.57-8.09-.03-.05-.07-.09-.11-.13-5.24,2.6-10.43,5.3-15.57,8.09-3.73-5.08-8.1-9.65-12.91-13.4-1.31-1.02-2.64-1.98-3.98-2.87,5.51-1.69,11.16-2.91,16.81-3.94-.09-.05-.18-.09-.27-.13-5.62,1.03-11.24,2.26-16.72,3.95-4.24-2.78-8.68-4.93-13.27-6.43,1.18-.6,2.38-1.17,3.59-1.7-.23.03-.44.07-.67.12-1.06.48-2.11.99-3.14,1.51-.44-.14-.88-.28-1.33-.41-.1.03-.19.06-.29.09.46.14.93.29,1.39.43-3.16,1.62-6.22,3.43-9.15,5.45-.44-.48-.88-.97-1.33-1.45-.05.03-.09.06-.15.09.46.48.89.97,1.34,1.45-3.47,2.39-6.76,5.05-9.82,7.95-.04-.53-.07-1.06-.11-1.58-.06.06-.11.13-.15.19.03.51.07,1.03.11,1.54-1.45,1.38-2.84,2.8-4.16,4.28-.15.23-.29.46-.41.7,1.45-1.65,2.99-3.24,4.59-4.77.26,3.28.71,6.56,1.36,9.83-4.02,3.2-7.85,6.62-11.53,10.13-.02.09-.04.18-.05.27,3.71-3.53,7.58-6.98,11.62-10.22,1.62,8.04,4.4,16.02,8.28,23.69ZM433.44,332.56c-5.36,2.97-10.4,6.47-15.19,10.28-.64-3.28-1.09-6.58-1.35-9.86,3.08-2.92,6.4-5.62,9.91-8.03,2.26,2.49,4.47,5.03,6.63,7.62ZM449.45,325.74c-2.45.76-4.87,1.61-7.25,2.59-2.96,1.21-5.83,2.61-8.61,4.15-2.16-2.59-4.38-5.14-6.64-7.63,2.96-2.04,6.06-3.88,9.26-5.5,4.58,1.49,9.04,3.65,13.24,6.39ZM466.64,342.12c-6.1,3.32-12.12,6.78-18.06,10.38-4.61-6.89-9.58-13.54-14.88-19.89,2.77-1.52,5.62-2.92,8.57-4.12,2.41-.99,4.87-1.86,7.36-2.63,6.4,4.2,12.21,9.73,17.01,16.26ZM476.94,361.73c-5.16,4.03-10.57,7.76-16.17,11.16-2.93-5.51-6.07-10.91-9.43-16.17-.88-1.37-1.77-2.72-2.67-4.08,5.94-3.6,11.97-7.07,18.06-10.39,1.44,1.97,2.78,4.02,4.03,6.17,2.4,4.14,4.45,8.58,6.17,13.31ZM460.85,373.05c5.62-3.41,11.01-7.13,16.15-11.14,2.14,5.95,3.73,12.34,4.77,19.17-4.02,3.29-8.31,6.24-12.81,8.82-2.47-5.71-5.17-11.34-8.1-16.85ZM438.06,384.62c6.74-2.79,13.33-6.03,19.71-9.73.99-.57,1.96-1.15,2.94-1.74,2.93,5.51,5.63,11.13,8.11,16.84-5.8,3.31-11.95,6.01-18.3,8.03-4.58-4.24-8.74-8.72-12.45-13.4ZM426.63,366.88c7.15-4.93,14.45-9.65,21.88-14.15,4.37,6.54,8.41,13.3,12.11,20.25-7.26,4.4-14.85,8.24-22.68,11.48-3.1-3.92-5.89-7.99-8.37-12.2-1.04-1.77-2.02-3.57-2.94-5.38ZM418.28,343.02c4.81-3.84,9.88-7.36,15.26-10.34,5.29,6.35,10.26,13.01,14.87,19.91-7.42,4.5-14.72,9.21-21.86,14.14-3.89-7.68-6.66-15.66-8.27-23.71Z"/>
        </g>
        <g>
          <g>
            <g>
              <rect class="st16" x="310.57" y="422.24" width="106.2" height="6.23"/>
              <g>
                <g>
                  <rect class="st2" x="404.96" y="422.41" width="4.35" height="6.05"/>
                  <rect class="st2" x="398.84" y="422.41" width="2.38" height="6.05"/>
                </g>
                <g>
                  <rect class="st2" x="320.19" y="422.41" width="4.35" height="6.05"/>
                  <rect class="st2" x="328.28" y="422.41" width="2.38" height="6.05"/>
                </g>
              </g>
            </g>
            <g>
              <rect class="st27" x="309.82" y="398.16" width="90.95" height="23.73"/>
              <rect class="st1" x="320.53" y="403.1" width="66.35" height="15.85" transform="translate(707.42 822.05) rotate(-180)"/>
            </g>
          </g>
          <g>
            <path class="st23" d="M357.61,396.11l-6.76,1.92-.06-4.97,6.8,1.76c.29.08.5.34.5.64h0c0,.3-.2.57-.49.65Z"/>
            <path class="st2" d="M322.15,399.95l-.09-8.16-13.87.16c-2.25.03-4.06,1.87-4.03,4.13h0c.03,2.25,1.87,4.06,4.13,4.03l13.87-.16Z"/>
            <path class="st26" d="M304.16,396.07c0-.19.01-.38.04-.57.3,1.98,2.01,3.49,4.08,3.47l13.87-.16v1.13s-13.86.16-13.86.16c-2.25.03-4.1-1.78-4.13-4.03Z"/>
            <line class="st25" x1="309.55" y1="400.09" x2="308.29" y2="400.11"/>
            <polygon class="st16" points="322.07 392.4 333.31 392.27 348.08 392.11 348.16 399.04 333.39 399.21 322.15 399.34 322.07 392.4"/>
            <path class="st23" d="M345.39,392.44c.08-.08.12-.19.12-.3,0-.24-.2-.43-.43-.42l-14.97.17c-.24,0-.43.2-.42.43,0,.24.2.43.43.42l14.97-.17c.12,0,.22-.05.3-.13Z"/>
            <path class="st23" d="M349.8,399.02l-1.64.02-.08-6.93,1.64-.02c.65,0,1.18.51,1.19,1.16l.05,4.59c0,.65-.51,1.18-1.16,1.19Z"/>
            <path class="st2" d="M309.55,400.09l.02,1.99c0,.37.31.67.68.67l5.47-.06.76-.53c.48-.34,1.05-.52,1.63-.53l5.32-.06c.64,0,1.16.5,1.16,1.14h0c0,.64-.5,1.16-1.14,1.16l-14.03.16c-.61,0-1.12-.48-1.12-1.1l-.03-2.82h1.27Z"/>
          </g>
          <g>
            <g>
              <path class="st23" d="M380.18,366.59c-1.51.9-3.16,1.35-4.95,1.13-.11-.01-.26,0-.34.08-.27.23-.52.47-.76.72-.06.06-.1.19-.08.27.18.61.37,1.21.57,1.84-.28.17-.64.17-.95.08-.06-.22-.12-.44-.19-.65-.39-1.17-.89-2.25-1.95-2.99-.22-.16-.39-.45-.49-.72-.14-.36.08-.7.47-.68.32.02.67.12.95.28.52.3.75.85,1,1.37.12.24.22.49.35.77.22-.24.41-.44.58-.65.05-.06.06-.2.03-.27-.36-.83-.19-1.58.34-2.27.46-.58,1.05-.99,1.69-1.34,1.44-.78,3.01-1.23,4.59-1.6.42-.1.84-.18,1.35-.29-.07.62-.09,1.17-.2,1.71-.26,1.32-.83,2.49-2.02,3.19Z"/>
              <path class="st16" d="M357.24,379.82c.07-1.75.4-3.46,1.07-5.09.67-1.63,1.62-3.06,3.15-3.99,1.7-1.04,3.6-1.44,5.57-1.48,1.86-.03,3.62.41,5.36,1.01.31.11.63.21.96.31,0,.04,1.06.21,1.42-.11.72-.24,1.42-.48,2.12-.7,2.02-.61,4.06-.81,6.14-.35,2.52.56,4.54,1.8,5.84,4.1,1.25,2.22,1.71,4.63,1.75,7.14.05,3.14-.58,6.15-1.77,9.04-1.24,3-3.16,5.43-6.01,7.06-2.16,1.23-4.44,1.81-6.92,1.21-1.11-.27-2.23-.66-3.38-.13-.12.06-.27.07-.4.09-1.37.27-2.73.42-4.11.05-3.33-.89-5.9-2.83-7.69-5.72-2.36-3.8-3.26-8-3.09-12.44Z"/>
            </g>
            <path class="st8" d="M381.29,371.95c-.91.91-.2,3.08,1.57,4.86s3.95,2.48,4.86,1.57.2-3.08-1.57-4.86c-1.78-1.78-3.95-2.48-4.86-1.57Z"/>
          </g>
        </g>
        <rect class="st23" x="-.14" y="428.07" width="500.28" height="2.74" transform="translate(500 858.88) rotate(-180)"/>
      </g>
      <g>
        <path class="st3" d="M272.32,164.8l-12.78-10.97c4.09-6.01,6.48-13.28,6.48-21.1,0-20.73-16.77-37.54-37.46-37.54-.58,0-1.15.02-1.71.04-.14,0-.28.01-.42.02-.57.03-1.13.07-1.69.13-.01,0-.03,0-.04,0-.55.06-1.09.13-1.63.21-.14.02-.27.04-.41.06-.55.09-1.09.18-1.63.29-.03,0-.06.01-.08.02-.52.11-1.03.23-1.54.36-.13.03-.26.07-.39.1-.53.14-1.05.29-1.57.45-.04.01-.07.02-.11.04-.49.15-.97.32-1.45.49-.13.05-.25.09-.38.14-.5.19-1,.38-1.5.59-.05.02-.09.04-.14.06-.46.2-.91.4-1.35.61-.12.06-.24.11-.36.17-.48.23-.95.48-1.42.73-.05.03-.1.06-.15.08-.28.16-.57.31-.85.48v.02c-11.15,6.51-18.64,18.6-18.64,32.45,0,20.73,16.77,37.54,37.46,37.54h41.75c2.88,0,4.2-3.59,2.02-5.47Z"/>
        <path class="st3" d="M245.08,190.4c11.69,0,21.17,9.5,21.17,21.22,0,4.42-1.35,8.53-3.66,11.93l7.23,6.2c1.24,1.06.49,3.09-1.14,3.09h-23.6c-11.69,0-21.17-9.5-21.17-21.22,0-11.72,9.48-21.22,21.17-21.22Z"/>
        <path class="st3" d="M308.75,115.06c0-13.18,10.68-23.86,23.86-23.86,13.18,0,23.86,10.68,23.86,23.86,0,10.85-7.25,20.01-17.17,22.9l-2.62,8.05c-.54,1.66-2.87,1.75-3.54.14l-3.06-7.36c-11.99-1.26-21.33-11.4-21.33-23.73Z"/>
      </g>
      <text class="st9" transform="translate(314.33 118.7)"><tspan x="0" y="0">ХВАЛА</tspan></text>
      <text class="st7" transform="translate(228.13 214.2)"><tspan x="0" y="0">ЗДРАВО</tspan></text>
      <text class="st6" transform="translate(199.9 130.72)"><tspan x="0" y="0">ДОБАР</tspan><tspan x="10.34" y="18.56">ДАН</tspan></text>
    </g>
    <g id="_Слой_4" data-name="Слой_4">
      <g>
        <g>
          <path class="st4" d="M239.1,268.12s43.12,57.02,52.75,49.88c0,0,11.06-8.19,4.67-40.44-.08-3.14-.15-5.32-.05-5.82,0,0,1.7-32.03,6.81-38.77.56-.74,2.27-2.13,2.04-2.18-16.14-3.65-21.37,36.84-25.37,55.61-.17.78-31.48-28.36-31.48-28.36,0,0-16.53-20.86-17.62-19.62-1.58,1.79,4.85,11.12,4.85,11.12,0,0-.38,1.09-1.59,1.66-1.2.57-1.86,1.39-2.23,3.03-.37,1.63-1.97,2.61-2.22,3.57-.25.95,5.95,7.94,9.43,10.34Z"/>
          <path class="st4" d="M247.93,257.91s-3.45-9.12-4.8-8.82c-1.35.3-7.24,3-7.05,5.3.19,2.3,5.28.29,5.28.29,0,0-.83,5.16,1.75,5.78,2.58.62,4.81-2.54,4.81-2.54Z"/>
          <g>
            <path class="st18" d="M239.87,254.31s.19,2.3-1.7,2.74c0,0-.35,2.44-2.8,1.96,0,0,.7,1.07-.78,1.37,0,0,6.51,6.75,5.27-6.07Z"/>
            <path class="st23" d="M240.99,249.84c-1.66,1.13-3.51,2.08-5.16,3.15-1.9,1.73,2.27,2.25,3.39,2.17.38.02.78-.08,1.12.2.35.36.09.78.05,1.15,0,0-.47,1.98-.47,1.98-.09.07.32-2.02.29-2.01.01-.27.22-.75-.02-.95-.27-.19-.64-.09-.97-.1-1.33.03-2.8-.03-3.89-.91-.26-.23-.41-.6-.31-.95.36-1.01,1.53-1.32,2.36-1.84.02.04,3.61-2.01,3.59-1.89h0Z"/>
            <path class="st23" d="M235.57,249.25c.95.39,1.72,1.12,2.13,2.06-.69-.55-1.56-1.39-2.13-2.06h0Z"/>
            <path class="st23" d="M232.9,252.73c.97.78,2.31,1.92,3.31,2.62,1.01.63,2.32,2.19,3.52,1.23-1.16,1.94-5.99-2.74-6.84-3.85h0Z"/>
            <path class="st23" d="M238.3,257.05c-.17,4.22-3.62,2.55-5.33.25-.5-.63-1.13-1.32-1.45-2.01.53.63,1.08,1.23,1.64,1.82,1.83,2.04,4.42,3.82,5.14-.07h0Z"/>
            <path class="st23" d="M235.52,258.6c.23,2.8-1.45,3.23-3.67,2.07-.17-.11-.52-.5-.49-.63.17.18.36.35.58.46,2.37.8,3.24.73,3.59-1.9h0Z"/>
          </g>
        </g>
        <path class="st16" d="M309.15,230.07s-14.26-.5-18.21,8.06c-3.95,8.57-12.29,46.63-12.29,46.63l-7.94-6.76-9.5,18.25s19.25,27.96,29.63,24.48c10.38-3.48,18.71-79.11,18.32-90.66Z"/>
        <path class="st15" d="M277.06,293.36c-2.39,4.62-4.87,9.18-7.38,13.72,6.47,7.44,15.24,15.63,21.15,13.65,9.37-3.14,17.06-65.02,18.19-85.56-10.33,19.55-21.78,38.54-31.96,58.19Z"/>
        <path class="st16" d="M309.03,230.49c.48,1.09-17.47,35.29-16.69,46.03.79,10.82,8.56,29.74,8.02,31.38,0,0,31.9-3.09,51.9-3.3,13.97-12.8,6.49-60.42,1.39-73.73,0,0-15.98-6.86-19.92-7.06,0,0-29.06,49.72-24.71,6.69Z"/>
        <g class="st19">
          <path class="st14" d="M354.57,238.34s-3.63-3.07-7.91-6.39c-.29.52-.6,1.03-.89,1.54,2.03,2.58,1.42,5.63.45,9.85-5.22,22.64-7.59,35.75-16.49,62.07,11.59,0,8.56-.66,22.54-.81,13.97-12.8,7.4-52.95,2.3-66.26Z"/>
        </g>
        <g>
          <path class="st14" d="M314.29,351.41s5.06,17.24-12.96,18.19c-43.8,2.32-119.3-41.08-119.3-41.08l-76.31,75.31-39.08-32.76s51.24-54.43,66.44-69.3c6.34-6.2,19.34-20.07,35.68-20.94,16.34-.87,112.32,23.78,112.32,23.78"/>
          <path class="st22" d="M314.29,351.41s5.06,17.24-12.96,18.19c-43.8,2.32-119.3-41.08-119.3-41.08l-76.31,75.31-39.08-32.76s51.24-54.43,66.44-69.3c6.34-6.2,19.34-20.07,35.68-20.94,16.34-.87,112.32,23.78,112.32,23.78"/>
          <path class="st13" d="M300.83,360.09c-37.76,2-99.2-31.94-115.3-39.23-2.43-1.1-5.27-.59-7.17,1.29l-77.76,77.4"/>
          <path class="st24" d="M352.9,304s15.06,63.45-38.92,66.31c-38.05,2.02-91.96-45.98-91.96-45.98l-21.19,69.47-51.34-8.71s16.99-64.17,22.84-85.97c4.98-18.55,16.14-34,28.75-37.22,12.61-3.22,26.83,1.01,43.94,8.35,13.8,5.92,58.21,36.38,58.21,36.38"/>
          <path class="st13" d="M338.59,304.76s9.6,52.79-29.02,54.84c-23.15,1.23-73.78-38.93-87.9-48.42-1.88-1.26-4.43-.34-5.09,1.82l-24.03,79.39"/>
          <path class="st13" d="M339.76,318.1s-15.42-.04-18.11-12.44"/>
          <line class="st13" x1="203.77" y1="384.15" x2="152.11" y2="375.17"/>
          <line class="st13" x1="113.03" y1="396.62" x2="73.78" y2="363.51"/>
        </g>
        <path class="st4" d="M403.99,282.73c-5.49,10.01-14.74,22.88-21.95,32.43,0,0-.03.05-.08.11-.32.5-1.52,2.37-1.54,2.41-3.27,4.55-7.23,10-10.85,14.87-1.84,2.45-3.58,4.76-5.12,6.75-.02.04-.06.06-.08.09-3.07,4-5.31,6.65-5.63,6.43-.8-.51,1.89-5.23,3.5-7.76-1.36,1.82-2.86,3.92-4.14,5.58-1.43,1.82-2.61,3.08-3.09,2.81-.81-.45,1.44-4.94,3.41-8.16.23-.39.46-.75.68-1.08-.21.26-.43.54-.68.87-2.41,3.15-6.59,9.37-7.37,8.91-1.1-.66,3.43-8.87,4.16-10.22-.77,1.2-5.29,8.23-6.25,7.1-.39-.46,1.18-3.23,2.79-5.98,1.56-2.66,3.15-5.28,3.03-5.78-.16-.68-1.46,1-2.47,1.89-.52.47-.95.7-1.12.34-.13-.3.86-2.31,2.36-5.06,3.97-7.22,11.5-19.6,11.82-20.13h.01c4.82-9.07,10.41-22.06,13.71-29.05-3.82-3.46-46.5-47.09-46.5-47.09,0,0,13.01-11.36,33.44,4.31,18.75,14.39,30.93,25.17,37.14,32.8,3.63,4.45,3.53,7.6.78,12.62Z"/>
        <path class="st16" d="M379.13,280.09c-.81,1.7-6.19,11.67-7.23,13.95,6.28,3.58,17.86,10.93,24.08,14.62,3.36-4.96,7.7-21.37,10.1-25.75,2.76-5.03.76-8.35-2.86-12.8-6.22-7.62-18.4-18.41-37.15-32.79-20.43-15.67-33.44-4.32-33.44-4.32,0,0-17.43,11.8,46.51,47.09Z"/>
        <g>
          <g class="st19">
            <path class="st0" d="M299.56,258.51c3.87,2.32,7.57,4.92,11.06,7.78,3.36,2.76,6.62,5.73,9.46,9.03,2.66,3.1,5.02,6.73,5.69,10.83.31,1.89.26,3.9-.45,5.71-.66,1.69-1.99,3.26-3.88,3.48-2,.23-3.95-1-5.04-2.6-1.22-1.8-1.6-4.03-1.72-6.17-.24-4.21.43-8.43,1.72-12.43,2.66-8.23,7.73-15.49,13.19-22.1,5.76-6.98,12.13-13.47,19.02-19.36.86-.74,1.73-1.46,2.6-2.18.37-.3-.16-.83-.53-.53-7.44,6.1-14.33,12.88-20.53,20.23-5.8,6.87-11.24,14.36-14.2,22.94-1.43,4.14-2.21,8.51-2.04,12.9.15,3.93,1.34,8.76,5.71,9.89,3.89,1.01,6.49-2.56,6.96-6.01.57-4.19-1.1-8.34-3.4-11.77-2.49-3.71-5.75-6.88-9.07-9.85-3.49-3.12-7.22-5.99-11.15-8.55-1-.65-2.01-1.28-3.03-1.9-.41-.25-.79.4-.38.65h0Z"/>
          </g>
          <g class="st19">
            <path class="st0" d="M360.92,235.83c.64,9.08,3.89,17.92,9.28,25.26s12.89,13,21.41,16.29c4.79,1.85,9.87,2.93,15,3.18.48.02.48-.72,0-.75-8.98-.44-17.77-3.5-25.12-8.67s-13.05-12.46-16.42-20.75c-1.88-4.64-3.04-9.56-3.39-14.55-.03-.48-.78-.48-.75,0h0Z"/>
          </g>
          <g class="st19">
            <path class="st0" d="M391.5,259.37c-3.29,10.07-2.77,21.27,1.3,31.04,1.14,2.75,2.56,5.37,4.23,7.82.27.39.92.02.65-.38-5.89-8.62-8.46-19.32-7.32-29.69.32-2.92.95-5.81,1.87-8.6.15-.46-.57-.65-.72-.2h0Z"/>
          </g>
          <g class="st19">
            <path class="st0" d="M295.4,234.46c.52,1.72.52,3.59.46,5.37-.08,2.46-.37,4.91-.73,7.34-.79,5.34-1.95,10.63-3.29,15.86-1.19,4.66-2.7,9.21-4.14,13.81-1.53,4.87-2.97,9.82-5.26,14.4-2.41,4.82-5.79,9-9.57,12.81-.61.62-1.24,1.23-1.87,1.84-.35.33.18.86.53.53,4.09-3.92,7.93-8.19,10.7-13.17,2.45-4.4,3.99-9.21,5.5-14s3.13-9.55,4.41-14.41c1.39-5.22,2.58-10.51,3.45-15.84.42-2.54.76-5.09.93-7.66.13-1.98.19-4.02-.16-5.99-.06-.37-.15-.73-.26-1.09-.14-.46-.86-.26-.72.2h0Z"/>
          </g>
          <g class="st19">
            <path class="st0" d="M265.03,296.27c3.97-2.42,8.94-2.06,13.06-.2,4.42,1.99,7.73,5.68,10.39,9.64,1.55,2.31,2.91,4.74,4.27,7.17.23.42.88.04.65-.38-2.5-4.48-5.07-9.05-8.74-12.7-3.39-3.37-7.82-5.76-12.67-5.97-2.57-.11-5.13.46-7.33,1.8-.41.25-.03.9.38.65h0Z"/>
          </g>
        </g>
      </g>
    </g>
  </g>
</svg>