<?xml version="1.0" encoding="UTF-8"?>
<svg xmlns="http://www.w3.org/2000/svg" version="1.1" xmlns:xlink="http://www.w3.org/1999/xlink" viewBox="0 0 421.36 410.13">
  <!-- Generator: Adobe Illustrator 29.3.0, SVG Export Plug-In . SVG Version: 2.1.0 Build 146)  -->
  <defs>
    <style>
      .st0, .st1, .st2, .st3, .st4, .st5, .st6, .st7, .st8, .st9, .st10, .st11 {
        fill-rule: evenodd;
      }

      .st0, .st1, .st12, .st8, .st13 {
        fill: #fff;
      }

      .st0, .st1, .st3, .st4, .st5, .st6, .st7, .st8, .st9, .st10, .st11, .st13 {
        stroke-width: .25px;
      }

      .st0, .st1, .st3, .st4, .st14, .st6, .st7, .st8, .st9, .st10, .st11, .st13 {
        stroke: #222221;
      }

      .st0, .st4, .st5, .st14, .st7, .st9, .st10, .st11, .st13 {
        stroke-miterlimit: 22.93;
      }

      .st15 {
        fill: #576daf;
      }

      .st16 {
        stroke-width: 1.03px;
      }

      .st16, .st1, .st17, .st18, .st19, .st6, .st20, .st21, .st22, .st11 {
        stroke-linecap: round;
      }

      .st16, .st1, .st3, .st6, .st21, .st8, .st22 {
        stroke-linejoin: round;
      }

      .st16, .st17, .st18, .st23, .st14, .st19, .st6, .st24, .st20, .st21, .st9, .st22, .st11 {
        fill: none;
      }

      .st16, .st21 {
        stroke: #efac95;
      }

      .st25 {
        fill: #efc83e;
      }

      .st2 {
        fill: #222221;
      }

      .st26 {
        mix-blend-mode: soft-light;
        opacity: .15;
      }

      .st17, .st18, .st19, .st20 {
        stroke: #304886;
        stroke-miterlimit: 10;
      }

      .st17, .st20 {
        stroke-width: 1.35px;
      }

      .st3, .st10 {
        fill: #e8c12b;
      }

      .st4, .st27 {
        fill: #244484;
      }

      .st5, .st28, .st7 {
        fill: #b7343c;
      }

      .st5, .st22 {
        stroke: #fff;
      }

      .st18, .st19 {
        stroke-width: 1.13px;
      }

      .st29 {
        fill: #c94b58;
      }

      .st14 {
        stroke-width: .62px;
      }

      .st30 {
        fill: #192e5e;
      }

      .st31 {
        fill: #cd5b62;
      }

      .st19 {
        stroke-dasharray: 6.52 6.52;
      }

      .st32 {
        clip-path: url(#clippath-1);
      }

      .st33 {
        isolation: isolate;
      }

      .st24 {
        clip-path: url(#clippath);
      }

      .st20 {
        stroke-dasharray: 7.77 7.77;
      }

      .st21 {
        stroke-width: 1.2px;
      }

      .st34 {
        fill: #afbee2;
        mix-blend-mode: multiply;
        opacity: .5;
      }

      .st35 {
        fill: #304886;
      }

      .st22 {
        stroke-width: 1.4px;
      }
    </style>
    <clipPath id="clippath">
      <circle class="st23" cx="211.82" cy="235.72" r="60.95" transform="translate(-57.82 402.23) rotate(-79.75)"/>
    </clipPath>
    <clipPath id="clippath-1">
      <circle class="st24" cx="211.69" cy="235.36" r="56.62"/>
    </clipPath>
  </defs>
  <g class="st33">
    <g id="OBJECTS">
      <path class="st34" d="M379.73,201.33c0,82.62-73.98,149.6-165.24,149.6S49.24,283.95,49.24,201.33s78.55-124.4,169.81-124.4,160.68,41.78,160.68,124.4Z"/>
      <g>
        <g>
          <g>
            <path class="st30" d="M113.28,83.05c-5.11,3.71,14.07,269.84,19.76,274.48,5.69,4.64,193.34-9.62,195.62-15.37,2.28-5.75-19.47-264.88-21.91-269.19-2.44-4.3-193.46,10.08-193.46,10.08Z"/>
            <g>
              <path class="st12" d="M300.02,80.96c-3.11-3.71-33.57-.7-33.57-.7l22.05,249.03s31.24-1.46,33.21-4.45c1.96-2.99-18.58-240.18-21.69-243.89Z"/>
              <g>
                <line class="st16" x1="293.4" y1="98.4" x2="311.88" y2="295.37"/>
                <line class="st16" x1="300.93" y1="118.46" x2="316.08" y2="279.29"/>
              </g>
            </g>
            <g>
              <path class="st12" d="M321.87,340.02c2.73-3.23-1.31-37.59-1.31-37.59l-187.61,18.1s4.37,31.02,6.67,33.18c2.3,2.16,179.51-10.46,182.24-13.69Z"/>
              <g>
                <line class="st21" x1="307.65" y1="334.69" x2="158.93" y2="345.86"/>
                <line class="st21" x1="296.05" y1="339.3" x2="174.71" y2="349.68"/>
              </g>
            </g>
          </g>
          <g>
            <path class="st35" d="M116.24,73.88h176.37c3.81,0,6.91,3.1,6.91,6.91v250.19c0,3.81-3.1,6.91-6.91,6.91H116.24V73.88h0Z" transform="translate(-13.77 14.9) rotate(-3.97)"/>
            <path class="st22" d="M125.33,92.22c1.83,106.4,16.31,234.82,16.31,234.82"/>
            <g class="st26">
              <path class="st12" d="M147.51,79.53c-12.15,18.04-24.34,36.08-36.51,54.12.35,6.62.74,13.62,1.18,20.84,21.1-25.39,41.92-51,62.5-76.81-9.52.62-18.78,1.26-27.17,1.84Z"/>
              <path class="st12" d="M181.99,77.2c-22.25,30.4-45.28,60.24-69.05,89.49.89,13.74,1.87,27.96,2.91,41.65,35.55-44.52,71.09-89.04,106.62-133.56-12.52.67-26.62,1.53-40.48,2.43Z"/>
            </g>
            <path class="st22" d="M299.38,314.09c-.06,3.8-2.97,6.95-6.75,7.32-46.72,4.62-93.71,7.55-140.17,8.53"/>
            <g class="st32">
              <g>
                <g>
                  <rect class="st28" x="109.2" y="171.43" width="201.2" height="44.71" transform="translate(-11.6 13.36) rotate(-3.55)"/>
                  <rect class="st27" x="111.97" y="216.05" width="201.2" height="44.71" transform="translate(-14.36 13.62) rotate(-3.55)"/>
                  <rect class="st12" x="114.74" y="260.68" width="201.2" height="44.71" transform="translate(-17.11 13.88) rotate(-3.55)"/>
                </g>
                <rect class="st14" x="111.97" y="171.34" width="201.2" height="134.13" transform="translate(-14.36 13.62) rotate(-3.55)"/>
              </g>
            </g>
            <g>
              <g>
                <path class="st10" d="M227.48,204.04c.24-.62-.04-1.45-.14-1.64-.05-.09.07-.32.13-.4,1.73-2.79,1.75-3.03.38-3.95-1.24-.83-3.96-1.54-5.91-2.01-.42-.28-.69-.67-1.08-.99,3.69.03,7.75,1.27,9.87,2.87,1.12.85-.06,2.77-1.46,5.68-.93.76-1.37,1.11-1.79.44Z"/>
                <path class="st10" d="M228.07,204.22c.07-.25.11-.48.14-.7.06-.4,0-.81-.16-1.19.4-.64.85-1.34,1.16-2.03.22-.49.39-1.03.2-1.56-.19-.57-.72-.93-1.2-1.25-.57-.38-1.32-.7-2.07-.97-1.69-.57-3.01-.83-3.97-.8l.64.52c1.82.46,3.97,1.09,5.03,1.8,1.37.92,1.35,1.16-.38,3.95-.05.09-.18.31-.13.4.1.19.33,1.06.08,1.68.18.3.41.12.65.14Z"/>
                <path class="st10" d="M211.28,193.33c-.04-.34-.01-.28.07.24.05-.11.12-.16.2-.16.15,0,.26.22.31.75,0,.14,0,.27,0,.4,4.86-.41,7.79.14,8.62,1.51.68,1.12-.24,3.1-1.67,5.39-.17.28-.17.25.03.46.29.3.6.82.42,1.3.98.46,2.12.52,3.09.03.14-.44.48-.67.76-.88.06-.04.26-.16.28-.23.42-1.69.84-3.26,1.2-4.71,1.13-4.57-11.38-4.21-13.3-4.08Z"/>
                <path class="st3" d="M225.33,211.81c.42-.99.87-1.97,1.49-2.83-1.65,1.38-2.57,1.25-2.8-.41-.1-.03-.24-.02-.38-.01-1.19,2.12-2.49,1.92-3.9-.61-1.53,2.79-2.99,2.83-4.31.1-1.81,2.57-3.46,2.67-4.95.36l-.02-.3c.08.03.03.04-.15.03l-.03-.05c-.05.01-.1.03-.14.04-.04,0-.09-.01-.15-.02l-.02.06c-.17.04-.23.03-.15,0l.02.3c-1.19,2.48-2.84,2.58-4.96.26-.97,2.87-2.43,3.01-4.29.43-1.09,2.69-2.35,3.05-3.8,1.09-.14,0-.28.02-.38.06-.02,1.67-.92,1.92-2.73.75.73.78,1.29,1.69,1.83,2.63,4.97-.52,9.92-1.08,14.87-1.65,4.98-.05,9.96-.1,14.96-.2Z"/>
                <path class="st3" d="M227.12,207.67l-.55-.06c-.88,2.61-1.81,2.72-2.14.32.23-.1.11-.5.38-.35.14.08.3-.18.18-.3-.31-.2-.57-.15-.81.11-.15-.38-.45-.54-.82-.35-.16.08-.08.37.08.34.26-.04.17.23.26.41-1.7,2.52-2.66,2.29-2.63-.88-.45-.06-.96-.12-1.43-.26-1.49,3.52-2.69,3.74-3.86.74.2-.17.12-.56.43-.45.18.06.3-.25.14-.37-.38-.28-.76-.15-.99.25-.23-.4-.62-.53-.99-.25-.16.12-.04.43.14.37.34-.11.21.35.48.49-.57,2.92-4.35,3.35-4-.94-.35.03-.66.06-.97.1-.31,0-.63.02-.98.03.88,4.22-2.92,4.26-3.85,1.43.25-.17.07-.62.42-.55.18.04.27-.29.09-.39-.41-.23-.77-.06-.95.37-.28-.37-.68-.45-1.02-.13-.15.14.02.44.19.35.3-.14.26.25.48.39-.79,3.12-2.01,3.05-3.92-.26-.45.19-.95.31-1.39.43.43,3.15-.5,3.49-2.5,1.2.07-.19-.05-.45.21-.44.16,0,.2-.29.03-.35-.38-.14-.67.06-.77.45-.27-.23-.54-.24-.82,0-.11.14.08.37.22.28.25-.18.19.23.42.3-.03,2.43-.96,2.42-2.16-.05l-.54.12c.02.6.27,1.22.67,1.66,1.68,1.88,2.82,1.36,2.72-.86,2.19,2.27,3.72,1.87,3.84-.67,1.92,3.08,4.58,1.38,4.52-.55.93,2.76,5.13,2.48,5.2-.76.47,3.21,4.67,2.97,5.25.12.18,1.93,3.03,3.28,4.55-.01.43,2.51,2,2.72,3.89.19.18,2.22,1.37,2.59,2.81.52.34-.49.51-1.14.45-1.73Z"/>
                <g>
                  <path class="st10" d="M213.46,205.27c-.24-.13-.28-.09-.36-.18-.1-.12-.12-.32-.1-.51.07-.78-.38-.64-.89-.27-.25.19-.49.6-.7.82-.21.22-.4.25-.45.34.01.3.03.55.04.67h0c0,.12.02.37.05.67.06.08.25.08.49.28.24.19.52.57.8.73.54.31,1.01.39.85-.38-.04-.19-.05-.39.03-.52.07-.1.12-.06.34-.22.14-.1.25-.22.32-.35.07-.13.02-.26.01-.39s.02-.27-.06-.38c-.08-.12-.2-.22-.36-.31Z"/>
                  <path class="st2" d="M210.99,206.25l.03.13c.56.03,1.03.23,1.45.55-.29-.37-.87-.63-1.47-.68Z"/>
                  <path class="st2" d="M210.98,206.02v-.13c.56-.1,1-.35,1.38-.72-.24.41-.79.73-1.38.85Z"/>
                  <path class="st10" d="M212.99,204.23c-.16.08-.34.16-.49.32-.22.24-.05.61.28.95.1.11.16.31.17.51.01.2-.02.41-.11.52-.28.38-.41.77-.16.98.16.14.35.2.52.26.01-.09,0-.2-.03-.35-.04-.19-.05-.39.03-.52.07-.1.12-.06.34-.22.14-.1.25-.22.32-.35.07-.13.02-.26.01-.39s.02-.27-.06-.38c-.08-.12-.2-.22-.36-.31-.24-.13-.28-.09-.36-.18-.1-.12-.12-.32-.1-.51.01-.15,0-.26-.01-.35Z"/>
                </g>
                <path class="st10" d="M192.41,206.22c-.32-.59-.14-1.45-.06-1.64.04-.1-.11-.3-.17-.38-2.07-2.55-2.11-2.79-.87-3.87,1.13-.98,3.74-2.02,5.61-2.73.38-.33.61-.75.95-1.11-3.65.49-7.54,2.22-9.44,4.07-1,.98.4,2.75,2.15,5.45,1.02.64,1.5.94,1.83.21Z"/>
                <path class="st10" d="M191.85,206.47c-.1-.24-.17-.46-.23-.68-.1-.39-.1-.8.01-1.2-.48-.59-1.01-1.23-1.4-1.87-.28-.46-.51-.97-.4-1.52.12-.59.6-1.01,1.03-1.39.52-.45,1.22-.86,1.94-1.21,1.6-.78,2.89-1.19,3.85-1.28l-.57.6c-1.75.68-3.8,1.57-4.77,2.4-1.25,1.08-1.2,1.32.87,3.87.06.08.21.28.17.38-.08.2-.19,1.09.12,1.68-.15.32-.39.17-.62.22Z"/>
                <path class="st10" d="M207.16,193.58c0-.34-.02-.28-.04.24-.06-.1-.14-.14-.22-.14-.15.01-.23.25-.21.78.02.14.04.27.05.4-4.87.19-7.71,1.11-8.37,2.56-.54,1.2.62,3.05,2.33,5.14.21.25.2.23.03.46-.25.33-.5.88-.25,1.34-.92.58-2.04.78-3.06.41-.19-.42-.56-.61-.86-.78-.06-.04-.28-.13-.3-.19-.62-1.63-1.24-3.13-1.77-4.53-1.68-4.4,10.77-5.58,12.69-5.7Z"/>
                <path class="st10" d="M209.16,212.08l.13,4.87c4.83-.16,10.55-.3,15.38-.46l.68-4.6c-11.63-.01-16.99.09-16.19.19Z"/>
                <path class="st10" d="M209.16,212.08v.03c-2.57.27-7.11.81-13.66,1.63l1.24,4.48c4.36-.39,9.44-.9,13.93-1.31,4.51-.14,9.62-.27,13.99-.42l.68-4.6c-6.6,0-11.17.02-13.75.07v-.03c.25-.07-.15-.05-1.22.05-1.07.03-1.48.06-1.21.1Z"/>
                <path class="st10" d="M210.41,212.54c-.18.01-.35.02-.53.03h-.18s-.09.02-.09.02h-.16s-.1.02-.1.02h-.06s-.11.01-.11.01h-.18s-.16.02-.16.02h-.03s-.13.01-.13.01c-.13,0-.26.02-.39.03h-.04s-.02,0-.02,0h-.16s-.05.02-.05.02h-.07s-.17.02-.17.02h0s-.18.01-.18.01h-.06s-.12.01-.12.01h-.04s-.14.01-.14.01h-.17s0,.02,0,.02h-.17s-.07.02-.07.02h0c-.21.02-.41.04-.62.06h-.08s-.24.03-.24.03h-.03s-.21.02-.21.02h-.14s-.1.02-.1.02h-.03s-.21.02-.21.02h-.01s-.17.02-.17.02h0s-.17.02-.17.02h-.11s-.23.03-.23.03h0c-.31.03-.61.06-.92.1h-.04c-.45.05-.9.11-1.35.16h-.03s-.07.01-.07.01c-.9.11-1.79.22-2.67.34h-.03s-.01,0-.01,0c-1.3.18-2.58.38-3.85.59-.72.11-.92-.74-.05-.87,1.27-.21,2.56-.41,3.85-.59h.01c1.78-.25,3.59-.46,5.41-.65l.15-.02h.02s.05,0,.05,0l.17-.02h.01c.75-.07,1.5-.14,2.25-.2h.12s0-.01,0-.01l.2-.02h.03s0,0,0,0h.17s.07-.02.07-.02h.11s.13-.02.13-.02h.04s.06,0,.06,0c.15-.01.31-.02.47-.03h.15s.03-.01.03-.01h.18c.17-.02.34-.04.51-.05h.01s.18-.01.18-.01c.18-.01.35-.02.53-.03s.35-.02.53-.03h.18s.01-.01.01-.01c.17,0,.34-.02.52-.03h.18s.03-.01.03-.01h.15c.16-.02.31-.02.47-.03h.06s.04,0,.04,0h.13s.11-.01.11-.01h.07s.17-.01.17-.01h0s.03,0,.03,0h.2s0,0,0,0h.12c.76-.04,1.51-.06,2.26-.08h.01s.17,0,.17,0h.05s.02,0,.02,0h.15c1.83-.05,3.65-.06,5.45-.03h.01c1.31.02,2.61.05,3.9.11.87.03.79.89.05.87-1.29-.05-2.59-.09-3.9-.11h-.01s-.03,0-.03,0c-.89-.01-1.79-.02-2.7-.01h-.07s-.03,0-.03,0c-.45,0-.9,0-1.36.01h-.04c-.31,0-.62.01-.93.02h0s-.24,0-.24,0h-.11s-.17,0-.17,0h0s-.17,0-.17,0h-.01s-.21,0-.21,0h-.03s-.1,0-.1,0h-.14s-.21.01-.21.01h-.03s-.24,0-.24,0h-.08c-.21,0-.42.02-.62.03h0s-.07,0-.07,0h-.17s0,0,0,0h-.18s-.14.01-.14.01h-.04s-.12,0-.12,0h-.06s-.18.01-.18.01h0s-.17,0-.17,0h-.07s-.05,0-.05,0h-.16s-.02,0-.02,0h-.04c-.13,0-.26.01-.39.02h-.13s-.03,0-.03,0h-.16s-.18.02-.18.02h-.11s-.06,0-.06,0h-.1s-.16.01-.16.01h-.09s-.18.02-.18.02c-.18.01-.35.02-.53.03Z"/>
                <path class="st0" d="M198.51,204.5c.52-.03.91-.48.88-1s-.48-.91-1-.88-.91.48-.88,1,.48.91,1,.88Z"/>
                <circle class="st13" cx="190.58" cy="205.95" r=".87" transform="translate(-12.39 12.2) rotate(-3.55)"/>
                <path class="st0" d="M189.71,205.29c.48-.03.85-.44.82-.92s-.44-.85-.92-.82-.85.44-.82.92.44.85.92.82Z"/>
                <path class="st0" d="M188.83,203.73c.48-.03.85-.44.82-.92s-.44-.85-.92-.82-.85.44-.82.92.44.85.92.82Z"/>
                <path class="st10" d="M210.08,207.34c.63-.04,1.11-.58,1.07-1.21s-.58-1.11-1.21-1.07-1.11.58-1.07,1.21.58,1.11,1.21,1.07Z"/>
                <g>
                  <path class="st10" d="M204.28,204.02c.5-.07.43.84.34,1.04-.11.27-.23.28-.41.05-.14-.18-.43-1.03.07-1.1Z"/>
                  <path class="st0" d="M204.34,204.5c1.18-.15,1.02,1.97.81,2.45-.27.63-.55.67-.97.13-.32-.41-1.02-2.42.16-2.58Z"/>
                </g>
                <g>
                  <path class="st10" d="M194.86,205.87c.47-.18.62.71.58.93-.05.29-.16.33-.39.15-.17-.14-.67-.9-.2-1.08Z"/>
                  <path class="st0" d="M195.04,206.33c1.11-.43,1.45,1.67,1.37,2.19-.11.68-.37.78-.91.35-.41-.33-1.57-2.11-.46-2.54Z"/>
                </g>
                <path class="st3" d="M206.63,194.43c-2.55-.07-5.13.35-7.63,1.53-2.11.99-1.74,3.49,1.11,6.81-.21.46-.31,1.01-.3,1.65.28-.03.47-.04.72-.06-.22-.41-.04-.94.18-1.32.14-.25.18-.21-.03-.46-1.71-2.09-2.87-3.95-2.33-5.14.66-1.45,3.5-2.37,8.37-2.56-.02-.13-.03-.26-.05-.39-.02-.02-.03-.03-.05-.05Z"/>
                <path class="st0" d="M194.48,197.72c.5-.03.88-.46.85-.96s-.46-.88-.96-.85-.88.46-.85.96.46.88.96.85Z"/>
                <path class="st0" d="M196.22,197.03c.5-.03.88-.46.85-.96s-.46-.88-.96-.85-.88.46-.85.96.46.88.96.85Z"/>
                <path class="st10" d="M196.39,195.98c.1.11.19.23.29.34-1.38.87-1.92,1.73-1.73,2.56.03.14.56,1.63,1.71,4.52.69.42,1.21.8,1.56,1.14-.03.04.12.16.08.2.13.44-.39.38-.73.29-.19-.42-.72-.85-1.02-1.03-.06-.04-.28-.13-.3-.19-.62-1.63-1.24-3.13-1.77-4.53-.54-1.41.37-2.48,1.92-3.3Z"/>
                <path class="st3" d="M191.41,206.98l-.04.29c-.41.12-.76.17-1.06.14.46-.51.83-.64,1.1-.43Z"/>
                <path class="st10" d="M191.33,206.32c.26.04.29.08.41.1.15.02.35,0,.48-.14.54-.37.59.24.4.71-.14.34-.03.71.14.98.2.32.17.48.05.58-.08.06-.16.12-.24.17-.14.19-.26.17-.29-.07-.58-.2-.8-.73-1-1.19-.29-.68-1.2-.79.06-1.14Z"/>
                <path class="st10" d="M191.55,206.33c.5.14.54-.13.87-.14-.08.76-.19,1.16-1,.8-.45-.2-.98.16-1.07.41-.03.09-.3-.08-.4-.27-.44-.82.93-1,1.6-.8Z"/>
                <path class="st0" d="M205.83,194.34c.5-.03.87-.46.84-.96s-.46-.87-.96-.84-.87.46-.84.96.46.87.96.84Z"/>
                <path class="st0" d="M203.99,194.45c.5-.03.87-.46.84-.96s-.46-.87-.96-.84-.87.46-.84.96.46.87.96.84Z"/>
                <path class="st0" d="M202.15,194.71c.5-.03.87-.46.84-.96s-.46-.87-.96-.84-.87.46-.84.96.46.87.96.84Z"/>
                <path class="st0" d="M200.48,195.14c.5-.03.87-.46.84-.96s-.46-.87-.96-.84-.87.46-.84.96.46.87.96.84Z"/>
                <path class="st0" d="M189.59,200.48c.5-.03.88-.46.85-.96s-.46-.88-.96-.85-.88.46-.85.96.46.88.96.85Z"/>
                <path class="st0" d="M191.07,199.41c.5-.03.88-.46.85-.96s-.46-.88-.96-.85-.88.46-.85.96.46.88.96.85Z"/>
                <path class="st0" d="M192.78,198.47c.5-.03.88-.46.85-.96s-.46-.88-.96-.85-.88.46-.85.96.46.88.96.85Z"/>
                <path class="st0" d="M188.48,202.02c.5-.03.88-.46.85-.96s-.46-.88-.96-.85-.88.46-.85.96.46.88.96.85Z"/>
                <polygon class="st10" points="207.18 214.69 210.42 212.81 213.87 214.28 210.63 216.16 207.18 214.69"/>
                <path class="st4" d="M210.59,215.47c.83-.05,1.48-.54,1.44-1.1s-.74-.96-1.57-.91-1.48.54-1.44,1.1.74.96,1.57.91Z"/>
                <polygon class="st10" points="199.76 215.58 202.89 213.5 206.42 214.75 203.3 216.83 199.76 215.58"/>
                <path class="st7" d="M202.97,214.14c.83-.1,1.55.26,1.62.81.07.55-.55,1.08-1.37,1.18-.83.1-1.55-.26-1.62-.81-.07-.55.55-1.08,1.37-1.18Z"/>
                <path class="st10" d="M195.79,214.47l3.58,1.11-2.77,2.11c-.76-.2-1.52-2.71-.81-3.22Z"/>
                <path class="st4" d="M195.89,215.11c.82-.14,1.56.2,1.65.75.09.55-.5,1.1-1.33,1.24-.53.09-.9-.36-.99-.86-.09-.5.1-1.04.66-1.13Z"/>
                <path class="st0" d="M206.99,216.27c.26-.02.46-.24.44-.5s-.24-.46-.5-.44-.46.24-.44.5.24.46.5.44Z"/>
                <path class="st0" d="M199.84,217.11c.26-.02.46-.24.44-.5s-.24-.46-.5-.44-.46.24-.44.5.24.46.5.44Z"/>
                <path class="st0" d="M199.45,214.96c.26-.02.46-.24.44-.5s-.24-.46-.5-.44-.46.24-.44.5.24.46.5.44Z"/>
                <path class="st0" d="M206.84,214.19c.26-.02.46-.24.44-.5s-.24-.46-.5-.44-.46.24-.44.5.24.46.5.44Z"/>
                <path class="st10" d="M193.81,209.84c.35-.13.95.62,1.09.6.15-.46-.28-1.51-.96-2.32-.44-.11-.49-.39-.62-1.02-.04-.19-.4-.04-.38.29.01.35,0,.54.1.84.04.12.03.23-.1.34.69.22.87.54.88,1.27Z"/>
                <path class="st3" d="M193.32,207.1c-.05.15-.06.27-.06.5,0,.17.07.33.19.46.12.14.28.25.47.34.11.06.25.22.36.41.11.19.2.41.21.57.05.52.18.97.42,1.05.16.05.22.04.34,0-.04-.09-.04-.22-.13-.35-.12-.16-.23-.35-.25-.52-.02-.13-.08-.22-.05-.48.02-.17.13-.24.1-.4-.06-.3-.33-.86-.68-.84-.34.02-.51,0-.71-.45-.07-.15-.15-.22-.21-.29Z"/>
                <g>
                  <path class="st10" d="M192.1,208.43c.09-.08.2-.14.3-.19.18-.08.37-.1.56-.06.84.2,1.29,1.63.41,2.04-.18.03-.35-.12-.53-.46-.22-.45-.44-.76-.67-.95-.14-.16-.16-.3-.07-.38Z"/>
                  <path class="st10" d="M192.52,208.5c.77-.36,1.45,1.12.73,1.45-.39.18-.46-.31-.55-.58-.13-.36-.92-.52-.18-.87Z"/>
                  <path class="st4" d="M192.62,208.72c.38-.17.96.69.49.93-.32.16-.59,0-.71-.27-.12-.26-.05-.53.22-.66Z"/>
                </g>
                <polygon class="st10" points="221.34 214.24 217.98 212.56 214.63 214.24 217.99 215.92 221.34 214.24"/>
                <path class="st7" d="M217.98,213.21c-.83,0-1.51.45-1.51,1.01,0,.56.68,1.01,1.51,1,.83,0,1.51-.45,1.51-1.01,0-.56-.68-1.01-1.51-1Z"/>
                <path class="st10" d="M225.15,212.65l-3.42,1.54,3.01,1.75c.73-.3,1.17-2.88.41-3.3Z"/>
                <path class="st4" d="M225.13,213.3c-.83-.03-1.53.39-1.55.95-.02.56.64,1.03,1.47,1.06.54.02.85-.47.87-.97.03-.5-.22-1.02-.79-1.04Z"/>
                <path class="st0" d="M214.26,215.82c.26-.02.46-.24.44-.5s-.24-.46-.5-.44-.46.24-.44.5.24.46.5.44Z"/>
                <path class="st0" d="M221.46,215.77c.26-.02.46-.24.44-.5s-.24-.46-.5-.44-.46.24-.44.5.24.46.5.44Z"/>
                <path class="st0" d="M221.57,213.59c.26-.02.46-.24.44-.5s-.24-.46-.5-.44-.46.24-.44.5.24.46.5.44Z"/>
                <path class="st0" d="M214.14,213.74c.26-.02.46-.24.44-.5s-.24-.46-.5-.44-.46.24-.44.5.24.46.5.44Z"/>
                <path class="st0" d="M197.69,203.01c.52-.03.91-.48.88-1s-.48-.91-1-.88-.91.48-.88,1,.48.91,1,.88Z"/>
                <path class="st0" d="M196.91,201.5c.52-.03.91-.48.88-1s-.48-.91-1-.88-.91.48-.88,1,.48.91,1,.88Z"/>
                <path class="st0" d="M198.81,195.81c.5-.03.88-.46.85-.96s-.46-.88-.96-.85-.88.46-.85.96.46.88.96.85Z"/>
                <path class="st0" d="M197.34,196.66c.52-.03.91-.48.88-1s-.48-.91-1-.88-.91.48-.88,1,.48.91,1,.88Z"/>
                <path class="st0" d="M196.3,198.05c.52-.03.91-.48.88-1s-.48-.91-1-.88-.91.48-.88,1,.48.91,1,.88Z"/>
                <path class="st0" d="M196.22,199.73c.52-.03.91-.48.88-1s-.48-.91-1-.88-.91.48-.88,1,.48.91,1,.88Z"/>
                <path class="st10" d="M209.25,186.51c.25-.02.43-.24.42-.49s-.23-.44-.47-.43c-.02-.25-.23-.44-.49-.43s-.44.23-.43.48c-.25.02-.43.24-.42.49s.23.44.47.43l.06.94-.81.05c-.02-.25-.23-.44-.49-.43s-.44.23-.43.47c-.25.02-.44.23-.43.49s.23.44.48.43c.02.25.24.43.49.42s.43-.22.43-.46l.81-.05.19,3.12.92-.06-.19-3.12.81-.05c.03.24.24.42.48.41s.44-.23.43-.47c.25-.02.44-.23.43-.49s-.23-.44-.48-.43c-.02-.25-.24-.43-.49-.42s-.44.23-.43.48l-.81.05-.06-.94Z"/>
                <path class="st4" d="M209.29,194.54c1.39-.09,2.46-1.29,2.37-2.68s-1.29-2.46-2.68-2.37-2.46,1.29-2.37,2.68,1.29,2.46,2.68,2.37Z"/>
                <path class="st10" d="M208.98,189.49c.16,0,.31,0,.46.01l.12,1.99-.92.06-.12-1.99c.15-.04.3-.06.46-.07Z"/>
                <path class="st10" d="M211.57,191.35c.04.16.07.33.08.51,0,.12,0,.24,0,.36-.83.02-1.67.05-2.5.11s-1.67.12-2.5.2c-.02-.12-.04-.23-.05-.36-.01-.18,0-.35.02-.52.82-.08,1.64-.15,2.47-.2s1.65-.08,2.48-.11Z"/>
                <path class="st3" d="M207.27,193.72c-.56-.3-.62.22-.57.73.17,1.93.66,3.75.28,6.15-.15.96-.45,1.51-.11,1.68.86.41,1.27.82,1.15,1.05.28.45.89.33,1.82.12.95.09,1.58.14,1.79-.34-.15-.22.21-.67,1.01-1.19.32-.2-.05-.71-.32-1.65-.67-2.33-.41-4.2-.48-6.13-.02-.51-.14-1.02-.66-.66-1.01.71-2.82.83-3.92.24Z"/>
                <path class="st0" d="M209.81,202.88c.55-.03.98-.51.94-1.07s-.51-.98-1.07-.94-.98.51-.94,1.07.51.98,1.07.94Z"/>
                <path class="st0" d="M209.7,201.14c.55-.03.98-.51.94-1.07s-.51-.98-1.07-.94-.98.51-.94,1.07.51.98,1.07.94Z"/>
                <path class="st0" d="M209.59,199.47c.55-.03.98-.51.94-1.07s-.51-.98-1.07-.94-.98.51-.94,1.07.51.98,1.07.94Z"/>
                <path class="st0" d="M209.3,194.71c.55-.03.98-.51.94-1.07s-.51-.98-1.07-.94-.98.51-.94,1.07.51.98,1.07.94Z"/>
                <path class="st0" d="M209.39,196.19c.55-.03.98-.51.94-1.07s-.51-.98-1.07-.94-.98.51-.94,1.07.51.98,1.07.94Z"/>
                <path class="st0" d="M209.49,197.79c.55-.03.98-.51.94-1.07s-.51-.98-1.07-.94-.98.51-.94,1.07.51.98,1.07.94Z"/>
                <path class="st3" d="M208.68,203.14c-.44-.71-.89-1.15-1.35-1.33.5-1.96.49-4.45-.07-7.49-.06-.46-.19-.65-.37-.63-.15.01-.23.25-.21.78.22,1.68.44,3.14.45,4.4,0,1.12-.21,2.07-.43,3.13-.03.15.08.26.6.51.39.19.64.43.73.7.11-.05.18-.04.22-.03.38.08.54.05.43-.03Z"/>
                <path class="st3" d="M210.96,203c.35-.76.74-1.26,1.18-1.49-.73-1.88-1.03-4.36-.86-7.44,0-.46.11-.66.29-.67.15,0,.26.22.31.75,0,1.69-.05,3.17.1,4.42.14,1.11.46,2.02.82,3.05.05.14-.05.26-.54.58-.36.23-.58.51-.64.78-.11-.04-.18-.02-.22,0-.37.13-.53.11-.43.03Z"/>
                <g>
                  <path class="st10" d="M210.51,202.66c.16.22.12.27.22.34.13.09.33.08.52.03.76-.17.69.3.38.85-.15.27-.53.56-.73.8-.19.24-.2.42-.28.49-.3.03-.55.04-.67.05h0c-.12,0-.37.02-.67.04-.09-.05-.11-.24-.34-.45-.22-.21-.63-.45-.82-.7-.37-.5-.51-.96.27-.89.19.02.39,0,.51-.1.09-.08.05-.12.18-.36.08-.16.19-.27.31-.36.12-.08.25-.05.38-.06s.26-.06.39.01c.13.07.25.17.35.32Z"/>
                  <path class="st2" d="M209.83,205.23h-.13c-.1-.56-.35-1-.72-1.38.41.24.73.79.85,1.38Z"/>
                  <path class="st2" d="M210.07,205.22l.13-.03c.04-.56.23-1.03.55-1.45-.37.29-.63.87-.68,1.47Z"/>
                  <path class="st10" d="M211.6,203c-.06.17-.12.36-.26.52-.21.25-.6.12-.98-.16-.12-.09-.33-.12-.53-.11-.2.01-.4.07-.51.17-.35.33-.71.5-.95.28-.16-.15-.24-.32-.32-.49.09-.02.2-.03.35-.01.19.02.39,0,.51-.1.09-.08.05-.12.18-.36.08-.16.19-.27.31-.36.12-.08.25-.05.38-.06s.26-.06.39.01c.13.07.25.17.35.32.16.22.12.27.22.34.13.09.33.08.52.03.15-.03.26-.04.35-.03Z"/>
                </g>
                <g>
                  <path class="st10" d="M206.47,205.7c.22-.16.27-.12.34-.22.09-.13.08-.33.03-.52-.17-.76.3-.69.85-.38.27.15.56.53.8.73.24.19.42.2.49.28.03.3.04.55.05.67h0c0,.12.02.37.04.67-.05.09-.24.11-.45.34-.21.22-.45.63-.7.82-.5.37-.96.51-.89-.27.02-.19,0-.39-.1-.51-.08-.09-.12-.05-.36-.18-.16-.08-.27-.19-.36-.31-.08-.12-.05-.25-.06-.38s-.06-.26.01-.39c.07-.13.17-.25.32-.35Z"/>
                  <path class="st2" d="M209.04,206.37v.13c-.56.1-1,.35-1.38.72.24-.41.79-.73,1.38-.85Z"/>
                  <path class="st2" d="M209.03,206.14l-.03-.13c-.56-.03-1.03-.23-1.45-.55.29.37.87.63,1.47.68Z"/>
                  <path class="st10" d="M206.81,204.61c.17.06.36.12.52.26.25.21.12.6-.16.98-.09.12-.12.33-.11.53.01.2.07.4.17.51.33.35.5.71.28.95-.15.16-.32.24-.49.32-.02-.09-.03-.2-.01-.35.02-.19,0-.39-.1-.51-.08-.09-.12-.05-.36-.18-.16-.08-.27-.19-.36-.31-.08-.12-.05-.25-.06-.38s-.06-.26.01-.39c.07-.13.17-.25.32-.35.22-.16.27-.12.34-.22.09-.13.08-.33.03-.52-.03-.15-.04-.26-.03-.35Z"/>
                </g>
                <g>
                  <path class="st10" d="M213.55,206.69c-.22.16-.27.12-.34.22-.09.13-.08.33-.03.52.17.76-.3.69-.85.38-.27-.15-.56-.53-.8-.73-.24-.19-.42-.2-.49-.28-.03-.3-.04-.55-.05-.67h0c0-.12-.02-.37-.04-.67.05-.09.24-.11.45-.34.21-.22.45-.63.7-.82.5-.37.96-.51.89.27-.02.19,0,.39.1.51.08.09.12.05.36.18.16.08.27.19.36.31.08.12.05.25.06.38s.06.26-.01.39c-.07.13-.17.25-.32.35Z"/>
                  <path class="st2" d="M210.98,206.02v-.13c.56-.1,1-.35,1.38-.72-.24.41-.79.73-1.38.85Z"/>
                  <path class="st2" d="M210.99,206.25l.03.13c.56.03,1.03.23,1.45.55-.29-.37-.87-.63-1.47-.68Z"/>
                  <path class="st10" d="M213.21,207.78c-.17-.06-.36-.12-.52-.26-.25-.21-.12-.6.16-.98.09-.12.12-.33.11-.53-.01-.2-.07-.4-.17-.51-.33-.35-.5-.71-.28-.95.15-.16.32-.24.49-.32.02.09.03.2.01.35-.02.19,0,.39.1.51.08.09.12.05.36.18.16.08.27.19.36.31.08.12.05.25.06.38s.06.26-.01.39c-.07.13-.17.25-.32.35-.22.16-.27.12-.34.22-.09.13-.08.33-.03.52.03.15.04.26.03.35Z"/>
                </g>
                <g>
                  <path class="st10" d="M210.08,207.34c.63-.04,1.11-.58,1.07-1.21s-.58-1.11-1.21-1.07-1.11.58-1.07,1.21.58,1.11,1.21,1.07Z"/>
                  <path class="st10" d="M210.06,207.03c.46-.03.81-.43.78-.89s-.43-.81-.89-.78-.81.43-.78.89.43.81.89.78Z"/>
                  <path class="st4" d="M210.04,206.72c.29-.02.51-.27.49-.56s-.27-.51-.56-.49-.51.27-.49.56.27.51.56.49Z"/>
                </g>
                <path class="st2" d="M192.24,208.3l.1-.05c-.25-.3-.31-.6-.25-.9-.18.25-.11.62.15.95Z"/>
                <path class="st10" d="M199.33,204c.21.23.19.29.3.36.14.08.33.04.5-.04.7-.32.73.25.57.91-.08.32-.37.68-.48.95-.12.27-.08.46-.13.53-.26.06-.48.1-.58.12h0c-.1.02-.32.06-.57.11-.09-.04-.16-.22-.41-.41-.25-.19-.67-.39-.91-.62-.48-.48-.75-.95-.04-.98.18,0,.35-.05.42-.18.06-.1,0-.14.05-.43.03-.19.09-.34.17-.46.08-.12.22-.1.34-.13.12-.03.23-.11.37-.05.14.06.28.16.42.32Z"/>
                <path class="st2" d="M199.4,206.86s-.08,0-.12,0c-.24-.55-.58-.98-1.01-1.34.43.2.87.74,1.13,1.33Z"/>
                <path class="st2" d="M199.6,206.81s.07-.03.11-.04c-.11-.58-.06-1.1.13-1.6-.27.36-.34,1.02-.23,1.65Z"/>
                <path class="st10" d="M200.46,204.23c-.01.21-.03.43-.12.64-.14.31-.53.22-.96-.04-.14-.08-.34-.09-.52-.05-.18.04-.34.14-.41.26-.21.4-.48.63-.76.43-.18-.14-.31-.32-.44-.48.07-.04.17-.06.3-.06.18,0,.35-.05.42-.18.06-.1,0-.14.05-.43.03-.19.09-.34.17-.46.08-.12.22-.1.34-.13.12-.03.23-.11.37-.05.14.06.28.16.42.32.21.23.19.29.3.36.14.08.33.04.5-.04.13-.06.24-.09.33-.09Z"/>
                <path class="st10" d="M196.73,207.28c.11-.14.15-.12.17-.2.02-.11-.06-.28-.15-.45-.38-.65-.02-.61.5-.38.13.06.28.17.43.28.15.11.31.23.43.31.26.16.41.16.48.22.13.26.23.49.27.6t0,0c.05.1.15.33.26.6-.01.08-.15.11-.24.31-.09.2-.15.55-.27.72-.17.25-.33.41-.47.39-.13-.02-.24-.2-.3-.62-.02-.16-.13-.33-.25-.43-.09-.08-.11-.04-.33-.15-.14-.07-.26-.15-.36-.25-.1-.1-.12-.21-.17-.32-.05-.11-.13-.22-.12-.32,0-.11.04-.21.11-.31Z"/>
                <path class="st2" d="M198.94,207.87s.03.09.04.14c-.21.06-.38.16-.52.29-.14.13-.25.29-.33.48.02-.21.11-.39.25-.55.14-.16.33-.28.56-.35Z"/>
                <path class="st2" d="M198.84,207.63s-.05-.09-.07-.13c-.24,0-.47-.05-.7-.13-.23-.08-.45-.2-.68-.35.18.18.41.33.66.43.25.11.53.17.79.18Z"/>
                <path class="st3" d="M196.6,206.2c.15.04.25.1.43.23.13.1.21.24.25.42.04.17.03.37,0,.57-.02.12.03.33.11.53.08.2.2.39.32.49.38.34.66.7.57.94-.06.16-.1.2-.2.28-.05-.08-.16-.16-.2-.3-.06-.19-.14-.38-.26-.5-.09-.09-.12-.19-.35-.31-.15-.08-.27-.03-.37-.15-.2-.22-.48-.76-.26-1.03.22-.27.3-.41.07-.83-.08-.14-.08-.25-.11-.34Z"/>
                <g>
                  <path class="st10" d="M203,207.63c-.18.17-.23.14-.27.24-.06.13-.02.31.05.49.27.68-.16.65-.69.41-.26-.12-.58-.44-.82-.59-.24-.15-.41-.14-.47-.21-.08-.27-.15-.51-.18-.62t0,0c-.03-.11-.1-.35-.17-.64.03-.09.18-.14.33-.38.14-.25.28-.7.47-.92.4-.47.81-.68.89.16.02.2.07.41.19.51.09.08.13.04.37.14.16.07.29.16.39.27.1.11.09.25.12.38.03.13.09.25.05.38-.04.13-.12.26-.24.37Z"/>
                  <path class="st2" d="M200.58,207.25s-.01-.08-.02-.13c.46-.16.81-.45,1.09-.86-.14.43-.57.81-1.07.99Z"/>
                  <path class="st2" d="M200.65,207.46s.03.08.05.12c.5-.02.95.11,1.38.38-.32-.32-.89-.51-1.43-.49Z"/>
                  <path class="st10" d="M202.86,208.68c-.16-.04-.34-.08-.51-.19-.26-.17-.21-.54-.02-.93.06-.12.06-.33,0-.52-.05-.2-.14-.39-.25-.48-.37-.31-.6-.66-.44-.94.11-.19.26-.3.4-.41.04.09.06.21.08.37.02.2.07.41.18.51.09.08.13.04.37.14.16.07.29.16.39.27.1.11.09.25.12.38.03.13.09.25.05.38-.04.13-.12.26-.24.37-.18.17-.23.14-.27.24-.06.13-.02.31.05.49.05.13.08.24.08.32Z"/>
                </g>
                <g>
                  <path class="st10" d="M199.45,206.41c.59-.07,1.19.41,1.32,1.04.12.62-.26,1.14-.83,1.18-.57.04-1.12-.39-1.27-.99-.15-.6.19-1.17.78-1.23Z"/>
                  <path class="st10" d="M199.52,206.72c.43-.05.87.3.96.76.09.46-.18.84-.6.87-.42.03-.83-.29-.94-.73-.11-.45.15-.85.58-.9Z"/>
                  <path class="st4" d="M199.58,207.03c.27-.03.54.19.6.47.06.29-.11.53-.38.55-.27.02-.53-.18-.59-.46-.06-.28.1-.54.37-.56Z"/>
                </g>
                <path class="st0" d="M221.22,203.09c.52-.03.91-.48.88-1s-.48-.91-1-.88-.91.48-.88,1,.48.91,1,.88Z"/>
                <path class="st0" d="M229.31,204.43c.48-.03.85-.44.82-.92s-.44-.85-.92-.82-.85.44-.82.92.44.85.92.82Z"/>
                <path class="st0" d="M230.05,202.78c.48-.03.85-.44.82-.92s-.44-.85-.92-.82-.85.44-.82.92.44.85.92.82Z"/>
                <path class="st0" d="M230.73,201.13c.48-.03.85-.44.82-.92s-.44-.85-.92-.82-.85.44-.82.92.44.85.92.82Z"/>
                <g>
                  <path class="st10" d="M215.43,203.33c-.5,0-.33.88-.21,1.08.15.25.27.25.41,0,.11-.19.3-1.08-.2-1.08Z"/>
                  <path class="st0" d="M215.43,203.81c-1.19,0-.76,2.08-.5,2.53.34.59.63.59.98,0,.27-.45.71-2.53-.47-2.54Z"/>
                </g>
                <g>
                  <path class="st10" d="M225.01,204c-.49-.12-.53.78-.46,1,.08.28.2.31.4.1.16-.16.55-.97.06-1.1Z"/>
                  <path class="st0" d="M224.89,204.47c-1.15-.29-1.24,1.84-1.09,2.34.19.66.47.73.95.24.37-.37,1.3-2.29.14-2.58Z"/>
                </g>
                <path class="st3" d="M211.91,194.1c2.52-.39,5.13-.29,7.76.57,2.22.72,2.16,3.25-.26,6.89.27.43.44.97.5,1.6-.28,0-.48.02-.72.03.16-.43-.08-.94-.35-1.29-.17-.23-.2-.18-.03-.46,1.43-2.29,2.36-4.27,1.67-5.39-.83-1.36-3.76-1.92-8.62-1.51,0-.13,0-.26,0-.39.01-.02.03-.04.04-.06Z"/>
                <path class="st0" d="M224.37,195.86c.5-.03.88-.46.85-.96s-.46-.88-.96-.85-.88.46-.85.96.46.88.96.85Z"/>
                <path class="st0" d="M222.57,195.39c.5-.03.88-.46.85-.96s-.46-.88-.96-.85-.88.46-.85.96.46.88.96.85Z"/>
                <path class="st10" d="M222.27,194.37c-.08.13-.16.25-.25.38,1.48.69,2.12,1.48,2.03,2.32-.02.14-.35,1.69-1.14,4.7-.63.5-1.1.94-1.41,1.32.04.04-.09.18-.05.21-.07.46.43.33.76.2.14-.44.61-.93.88-1.15.06-.04.26-.16.28-.23.42-1.69.84-3.26,1.2-4.71.36-1.46-.68-2.42-2.31-3.04Z"/>
                <path class="st3" d="M228.56,204.67l.07.29c.42.07.78.07,1.07,0-.52-.45-.9-.53-1.14-.29Z"/>
                <path class="st10" d="M228.57,204c-.26.07-.28.12-.39.15-.14.03-.35.04-.49-.08-.59-.3-.56.31-.31.75.18.32.12.7-.01.99-.16.35-.11.5.02.58.09.05.18.1.26.14.16.17.28.13.28-.1.55-.27.7-.82.84-1.31.2-.71,1.09-.93-.2-1.13Z"/>
                <path class="st10" d="M228.35,204.04c-.48.21-.55-.06-.88-.03.18.74.33,1.12,1.09.67.42-.25.99.04,1.11.28.04.09.28-.11.36-.32.33-.86-1.04-.88-1.69-.6Z"/>
                <path class="st0" d="M212.69,193.91c.5-.03.87-.46.84-.96s-.46-.87-.96-.84-.87.46-.84.96.46.87.96.84Z"/>
                <path class="st0" d="M214.54,193.8c.5-.03.87-.46.84-.96s-.46-.87-.96-.84-.87.46-.84.96.46.87.96.84Z"/>
                <path class="st0" d="M216.39,193.83c.5-.03.87-.46.84-.96s-.46-.87-.96-.84-.87.46-.84.96.46.87.96.84Z"/>
                <path class="st0" d="M218.11,194.05c.5-.03.87-.46.84-.96s-.46-.87-.96-.84-.87.46-.84.96.46.87.96.84Z"/>
                <path class="st0" d="M229.57,198c.5-.03.88-.46.85-.96s-.46-.88-.96-.85-.88.46-.85.96.46.88.96.85Z"/>
                <path class="st0" d="M227.96,197.12c.5-.03.88-.46.85-.96s-.46-.88-.96-.85-.88.46-.85.96.46.88.96.85Z"/>
                <path class="st0" d="M226.15,196.4c.5-.03.88-.46.85-.96s-.46-.88-.96-.85-.88.46-.85.96.46.88.96.85Z"/>
                <path class="st0" d="M230.86,199.39c.5-.03.88-.46.85-.96s-.46-.88-.96-.85-.88.46-.85.96.46.88.96.85Z"/>
                <path class="st10" d="M226.54,207.8c-.36-.09-.87.73-1,.73-.2-.44.09-1.54.67-2.43.42-.17.44-.45.49-1.09.01-.19.39-.08.42.24.03.35.07.54,0,.84-.02.12,0,.23.14.33-.65.31-.8.64-.72,1.37Z"/>
                <path class="st3" d="M226.69,205.03c.07.14.1.26.13.49.02.17-.03.33-.13.48-.1.15-.25.28-.42.4-.11.07-.22.25-.31.46-.09.2-.14.43-.14.59.02.52-.06.99-.29,1.09-.15.07-.22.06-.34.04.03-.1,0-.23.08-.36.1-.18.18-.38.18-.55,0-.13.06-.22-.01-.48-.04-.17-.16-.22-.15-.38.02-.3.22-.9.57-.92.34-.02.5-.07.65-.53.05-.16.13-.24.17-.32Z"/>
                <g>
                  <path class="st10" d="M228.06,206.2c-.1-.07-.21-.11-.32-.15-.19-.06-.38-.06-.56,0-.81.3-1.08,1.78-.16,2.07.18.01.33-.16.47-.52.16-.48.34-.81.54-1.02.12-.17.12-.31.03-.39Z"/>
                  <path class="st10" d="M227.65,206.32c-.81-.26-1.3,1.29-.54,1.53.41.13.41-.37.48-.65.08-.38.85-.63.07-.88Z"/>
                  <path class="st4" d="M227.58,206.55c-.4-.13-.87.81-.37.98.34.12.58-.08.67-.36.09-.28-.02-.54-.3-.62Z"/>
                </g>
                <path class="st0" d="M221.85,201.51c.52-.03.91-.48.88-1s-.48-.91-1-.88-.91.48-.88,1,.48.91,1,.88Z"/>
                <path class="st0" d="M222.43,199.91c.52-.03.91-.48.88-1s-.48-.91-1-.88-.91.48-.88,1,.48.91,1,.88Z"/>
                <path class="st0" d="M219.85,194.5c.5-.03.88-.46.85-.96s-.46-.88-.96-.85-.88.46-.85.96.46.88.96.85Z"/>
                <path class="st0" d="M221.41,195.16c.52-.03.91-.48.88-1s-.48-.91-1-.88-.91.48-.88,1,.48.91,1,.88Z"/>
                <path class="st0" d="M222.61,196.42c.52-.03.91-.48.88-1s-.48-.91-1-.88-.91.48-.88,1,.48.91,1,.88Z"/>
                <path class="st0" d="M222.89,198.07c.52-.03.91-.48.88-1s-.48-.91-1-.88-.91.48-.88,1,.48.91,1,.88Z"/>
                <path class="st2" d="M227.9,206.09l-.1-.04c.21-.33.24-.63.13-.93.21.23.18.61-.03.96Z"/>
                <g>
                  <path class="st10" d="M220.34,202.69c-.18.26-.15.32-.25.39-.13.1-.32.08-.5.02-.73-.23-.7.34-.45.97.12.31.45.63.6.89.15.25.13.45.2.51.26.03.49.04.59.05h0c.1,0,.32.02.58.04.08-.05.13-.24.36-.46.22-.22.62-.47.83-.73.42-.54.62-1.04-.08-.98-.18.02-.35,0-.44-.13-.07-.09-.02-.14-.1-.42-.05-.18-.13-.33-.23-.43-.1-.1-.23-.07-.35-.09-.12-.02-.24-.08-.37,0-.13.08-.26.2-.38.37Z"/>
                  <path class="st2" d="M220.62,205.54s.08,0,.12-.01c.17-.57.45-1.04.84-1.45-.4.26-.77.84-.96,1.46Z"/>
                  <path class="st2" d="M220.42,205.52s-.07-.02-.11-.03c.04-.59-.08-1.1-.32-1.58.31.33.47.97.44,1.6Z"/>
                  <path class="st10" d="M219.25,203.06c.04.21.08.43.2.62.18.29.55.15.95-.16.12-.1.32-.13.51-.11.18.02.36.09.44.21.26.37.55.57.8.33.17-.16.27-.35.37-.53-.07-.03-.17-.04-.31-.02-.18.02-.35,0-.44-.13-.07-.09-.02-.14-.1-.42-.05-.19-.13-.33-.23-.43-.1-.1-.23-.07-.35-.09-.12-.02-.24-.08-.37,0-.13.08-.26.2-.38.37-.18.26-.15.32-.25.39-.13.1-.32.08-.5.02-.14-.04-.25-.06-.34-.05Z"/>
                </g>
                <path class="st10" d="M223.33,205.63c-.12-.13-.17-.1-.19-.18-.03-.11.02-.29.1-.46.3-.69-.06-.61-.54-.32-.12.07-.26.2-.4.33-.14.13-.28.27-.39.36-.23.19-.39.21-.45.28-.09.28-.17.52-.2.63t0,0c-.04.11-.11.35-.19.62.02.07.16.09.28.27.12.18.22.52.36.68.2.23.38.37.51.33.13-.03.21-.23.22-.66,0-.17.09-.35.19-.46.08-.09.1-.05.31-.18.13-.08.24-.19.33-.29.09-.11.09-.22.13-.34.04-.12.1-.23.08-.34-.02-.11-.07-.21-.14-.29Z"/>
                <path class="st2" d="M221.2,206.48s-.02.09-.02.14c.22.04.4.11.55.22.15.11.28.26.39.43-.05-.2-.16-.38-.32-.51-.16-.14-.36-.24-.6-.28Z"/>
                <path class="st2" d="M221.28,206.23s.04-.09.06-.14c.24-.03.46-.11.68-.22.22-.11.43-.25.63-.43-.16.2-.37.38-.61.51-.24.14-.5.23-.76.28Z"/>
                <path class="st3" d="M223.32,204.54c-.14.06-.24.14-.4.28-.12.11-.18.27-.2.44-.01.18.02.37.08.56.04.12.01.33-.05.54-.06.21-.15.41-.26.53-.34.38-.57.77-.45,1,.08.15.13.19.23.25.04-.09.13-.17.16-.33.03-.19.09-.4.2-.52.08-.1.1-.2.31-.35.14-.1.26-.07.35-.19.17-.24.38-.81.13-1.05-.25-.24-.34-.37-.17-.82.06-.15.05-.26.06-.35Z"/>
                <g>
                  <path class="st10" d="M217.15,206.75c.2.15.24.11.3.21.07.12.05.31,0,.49-.18.71.24.62.74.32.25-.15.52-.5.74-.69.22-.18.38-.19.44-.27.05-.28.09-.52.1-.63t0,0c.02-.11.05-.36.09-.65-.04-.08-.2-.11-.37-.34-.17-.23-.36-.66-.58-.86-.45-.41-.89-.58-.86.27,0,.21-.02.41-.12.53-.08.09-.12.05-.35.18-.15.09-.27.2-.35.32-.08.12-.06.26-.07.39-.01.13-.06.26,0,.39.06.12.15.24.28.34Z"/>
                  <path class="st2" d="M219.5,206.07s0-.08,0-.13c-.48-.1-.86-.35-1.19-.72.19.41.67.73,1.18.85Z"/>
                  <path class="st2" d="M219.46,206.3s-.02.08-.04.12c-.49.04-.93.23-1.32.54.28-.36.82-.61,1.36-.67Z"/>
                  <path class="st10" d="M217.42,207.77c.16-.06.33-.12.48-.25.23-.2.14-.56-.09-.93-.07-.12-.1-.32-.07-.52.02-.2.09-.4.19-.51.32-.35.51-.73.32-.99-.13-.17-.29-.27-.45-.35-.03.09-.04.22-.03.38,0,.21-.02.41-.12.53-.08.09-.12.05-.35.18-.15.09-.27.2-.35.32-.08.12-.06.26-.07.39-.01.13-.06.26,0,.39.06.12.15.24.28.34.2.15.24.11.3.21.07.12.05.31,0,.49-.04.14-.05.24-.04.33Z"/>
                </g>
                <g>
                  <path class="st10" d="M220.52,205.11c-.59,0-1.13.56-1.18,1.19-.05.63.4,1.1.97,1.07.57-.03,1.07-.52,1.14-1.14.07-.61-.33-1.13-.93-1.12Z"/>
                  <path class="st10" d="M220.49,205.42c-.43,0-.83.41-.86.87-.04.46.28.81.71.79.42-.02.79-.39.84-.84.05-.46-.25-.83-.69-.82Z"/>
                  <path class="st4" d="M220.46,205.74c-.27,0-.52.25-.54.55-.02.29.18.51.44.5.27-.01.5-.25.53-.53.03-.29-.16-.52-.43-.51Z"/>
                </g>
                <path class="st10" d="M224.64,216.16c.3.03.46.2.47.39.02.19-.12.38-.41.45-.07.02-.14.04-.22.05-8.9,1.32-18.46,1.91-27.45,1.7-.08,0-.16-.01-.23-.03-.3-.03-.47-.2-.47-.39-.02-.19.12-.38.41-.45.07-.02.14-.04.22-.05,8.9-1.32,18.46-1.91,27.45-1.7.08,0,.16.01.23.02Z"/>
                <path class="st11" d="M200.42,218.26c1.14-.14,2.28-.27,3.42-.39,1.14-.12,2.28-.22,3.43-.32s2.29-.18,3.43-.25c1.14-.07,2.29-.13,3.44-.18s2.29-.08,3.44-.11c1.15-.02,2.29-.04,3.44-.04"/>
                <path class="st11" d="M200.42,218.28c1.15,0,2.29-.01,3.44-.04M217.6,217.39c1.14-.12,2.28-.25,3.42-.39"/>
              </g>
              <g>
                <path class="st5" d="M185.64,219.59l2.52,40.57h0c.45,7.26,3.68,13.68,8.52,18.17,4.84,4.49,11.3,7.07,18.22,6.64h0s0,0,0,0c6.91-.43,13-3.78,17.25-8.84,4.25-5.06,6.66-11.83,6.21-19.09h0s-2.52-40.57-2.52-40.57l-50.2,3.11Z"/>
                <path class="st0" d="M215,282.86c.22-.05.59-.03.85-.26.35-.31.13-1.48.05-2.22-.41-3.78-.96-10.15-1.71-19.1-.32-.02-.55.01-.76.06-.22-.02-.45-.03-.76.04.36,8.98.6,15.37.67,19.17.01.74-.06,1.93.33,2.19.29.2.66.13.88.15l.46-.03Z"/>
                <g>
                  <path class="st0" d="M217.37,282.61c-.22,0-.58.1-.89-.07-.41-.23-.52-1.43-.6-2.17-.41-3.78-1.15-10.11-2.33-19.02.31-.09.54-.1.76-.1.03-.01.07-.02.1-.03,1.98,8.76,2.9,15,4.12,18.73.17.51.54,1.81.11,2.26-.24.26-.61.27-.82.34l-.45.07Z"/>
                  <path class="st0" d="M220.14,282.03c-.22.02-.57.15-.89,0-.43-.19-.49-1.39-.72-2.1-1.21-3.73-2.14-9.97-4.12-18.73.3-.12.53-.15.74-.17h.03c2.8,8.45,3.86,14.47,5.85,18.11.2.51.72,1.86.33,2.37-.22.28-.59.32-.79.41l-.44.11Z"/>
                  <path class="st0" d="M222.9,281.07c-.22.04-.58.27-.91.15-.45-.15-.59-1.43-.95-2.07-2-3.65-3.06-9.71-5.89-18.24.28-.15.51-.2.72-.25.19-.1.15-.15.47-.21,3.2,8.39,4.43,14.29,7.18,17.83.44.57.81,1.75.56,2.15-.19.3-.55.38-.75.49l-.43.15Z"/>
                </g>
                <path class="st0" d="M212.16,282.93c.22-.03.59.03.87-.18.38-.28.34-1.48.33-2.23-.06-3.8-.1-10.18-.04-19.16-.32-.05-.55-.04-.76-.01-.03,0-.07-.01-.11-.02-.88,8.94-1.03,15.25-1.77,19.09-.1.53-.31,1.86.17,2.26.27.23.64.19.86.23h.46Z"/>
                <path class="st0" d="M209.34,282.7c.22,0,.58.08.88-.1.4-.24.31-1.44.45-2.17.74-3.85.89-10.16,1.77-19.1-.31-.08-.54-.09-.76-.08h-.03c-1.74,8.74-2.04,14.84-3.57,18.7-.13.53-.49,1.94-.03,2.39.25.25.62.25.83.31l.45.05Z"/>
                <path class="st0" d="M206.47,282.09c.22.01.6.19.92.04.43-.2.41-1.49.69-2.18,1.54-3.87,1.84-10.02,3.59-18.83-.3-.11-.53-.14-.75-.15-.2-.08-.17-.13-.49-.15-2.13,8.73-2.63,14.73-4.92,18.58-.37.62-.59,1.83-.29,2.2.22.27.59.31.8.39l.45.1Z"/>
                <g>
                  <path class="st0" d="M221.01,274.69c-.2.02-.49.17-.82.04-.43-.17-.78-1.31-1.05-2.02-2-3.41-4.02-9.56-7.23-18.08.25-.12.46-.17.65-.19.17-.09.36-.17.65-.21,3.41,8.42,5.09,14.56,8.12,17.81.5.54.92,1.75.72,2.12-.15.28-.48.33-.65.43l-.39.12Z"/>
                  <path class="st0" d="M218.77,275.28c-.2,0-.51.13-.82-.03-.41-.21-.62-1.37-.81-2.1-.95-3.7-2.67-9.91-5.1-18.62.26-.1.47-.13.67-.14.18-.07.38-.14.67-.16,2.77,8.63,3.69,15.17,6.01,18.41.42.59.71,1.82.47,2.17-.18.27-.52.29-.7.37l-.4.09Z"/>
                  <path class="st0" d="M216.46,275.69c-.2,0-.52.08-.81-.1-.38-.24-.46-1.42-.56-2.16-.52-3.77-1.51-10.1-2.92-18.98.28-.08.48-.09.68-.09.19-.06.39-.11.68-.11,1.76,8.83,2.86,15.24,3.85,18.85.2.72.5,1.87.22,2.2-.21.25-.55.25-.74.32l-.41.06Z"/>
                  <path class="st0" d="M207.56,275.53c.2,0,.51.1.82-.07.41-.23.61-1.4.79-2.13,1.57-3.63,2.81-9.98,4.94-18.84-.27-.09-.47-.11-.67-.11-.18-.07-.38-.12-.67-.13-2.35,8.78-3.25,15.07-5.85,18.67-.43.59-.7,1.85-.46,2.19.18.26.52.27.7.34l.4.07Z"/>
                  <path class="st0" d="M209.87,275.83c.2-.02.52.06.81-.13.38-.26.45-1.44.54-2.18.49-3.79,1.42-10.16,2.76-19.1-.28-.07-.49-.07-.68-.06-.19-.05-.39-.09-.68-.08-1.68,8.91-1.79,15.51-3.69,19.01-.35.64-.48,1.89-.2,2.21.21.24.55.23.74.28l.41.04Z"/>
                  <path class="st0" d="M212.2,275.95c.2-.03.53.02.79-.19.35-.29.28-1.46.29-2.21.05-3.8.25-10.21.56-19.19-.28-.05-.49-.03-.69,0-.19-.04-.4-.06-.69-.02-.65,8.98-.95,15.48-1.49,19.18-.11.74-.26,1.92.05,2.21.24.22.57.18.77.22h.41Z"/>
                  <path class="st0" d="M214.54,275.88c.19-.05.53-.02.77-.26.32-.31.11-1.48.03-2.22-.39-3.78-.92-10.16-1.66-19.11-.29-.03-.49,0-.69.05-.2-.02-.41-.03-.69.03.38,8.97.64,15.37.72,19.17.02.74-.04,1.93.31,2.2.26.2.59.14.79.16l.41-.03Z"/>
                </g>
                <g>
                  <path class="st0" d="M219.12,269.58c-.15.02-.38.16-.63.02-.33-.18-.61-1.32-.83-2.03-1.59-3.44-3.22-9.61-5.81-18.17.19-.12.35-.16.5-.18.13-.09.27-.17.49-.2,2.74,8.46,4.11,14.62,6.48,17.91.39.54.73,1.76.58,2.13-.11.28-.36.33-.49.42l-.3.12Z"/>
                  <path class="st0" d="M217.4,270.13c-.15,0-.39.12-.63-.04-.32-.21-.5-1.38-.65-2.11-.78-3.71-2.19-9.94-4.18-18.67.2-.1.36-.12.51-.13.14-.07.29-.14.51-.15,2.25,8.67,3.05,15.21,4.88,18.48.33.6.57,1.83.39,2.18-.13.26-.39.29-.53.36l-.3.08Z"/>
                  <path class="st0" d="M215.64,270.5c-.15-.01-.4.08-.62-.11-.3-.25-.37-1.42-.46-2.16-.45-3.77-1.3-10.11-2.52-19,.21-.08.37-.08.52-.08.14-.06.3-.11.52-.1,1.48,8.85,2.41,15.27,3.23,18.89.16.72.41,1.88.2,2.21-.16.25-.42.24-.56.31l-.31.05Z"/>
                  <path class="st0" d="M208.81,270.22c.15,0,.39.11.63-.05.31-.22.45-1.39.57-2.12,1.15-3.6,2.01-9.93,3.52-18.75-.21-.1-.37-.11-.52-.12-.14-.07-.29-.13-.51-.14-1.67,8.73-2.28,15.01-4.22,18.57-.32.59-.51,1.84-.32,2.18.14.26.4.28.54.35l.31.08Z"/>
                  <path class="st0" d="M210.58,270.55c.15-.01.4.07.62-.12.29-.25.32-1.43.38-2.17.32-3.78.94-10.13,1.84-19.05-.21-.07-.37-.08-.53-.07-.14-.05-.3-.1-.52-.09-1.16,8.88-1.15,15.47-2.55,18.94-.26.63-.34,1.88-.12,2.21.17.24.42.24.57.29l.31.05Z"/>
                  <path class="st0" d="M212.38,270.71c.15-.03.41.03.6-.18.26-.28.19-1.46.19-2.2-.02-3.8.04-10.19.15-19.17-.22-.05-.38-.04-.53-.01-.15-.04-.31-.07-.53-.03-.37,8.97-.51,15.45-.87,19.14-.07.74-.18,1.91.07,2.21.19.23.44.19.59.23h.32Z"/>
                  <path class="st0" d="M214.17,270.67c.15-.05.41-.01.58-.25.24-.31.06-1.47,0-2.21-.35-3.78-.86-10.16-1.55-19.12-.22-.03-.38,0-.53.04-.15-.02-.31-.04-.53.02.42,8.97.71,15.36.83,19.16.02.74,0,1.92.27,2.2.21.21.46.14.61.17l.31-.02Z"/>
                </g>
                <g>
                  <path class="st3" d="M202.89,261.06c-.48.05-1.05.36-2.68,1.96-.66,1.58-1.32,3.16-2.28,4.56-.34.26-.61.44-.89.55-.29.12-2.46.18-2.52.09-.71-.57-1.72-.07-1.33.55-.25.27.39,1.16.84.75.41-.38,1.94-.14,2.44-.35-.16.47-1.51.85-2.46.97-.87.09-.76.96-.36,1.6.42.23.07-.07.23.11.43.55,1.26.43,1.25-.14,0-.59,1.98-1.48,2.26-1.94-.32.91-1.13,1.79-1.5,2.69-.43.49-.7.6-.05,1.49.65-.12.68-.29,1.11.06.89-.15,1.02-.43.83-1.13-.2-.74.34-2.14.53-2.54.17-.37.2-.74.37-.97.3-.41,1.81-1.28,2.22-1.09.76.34,1.3.07,1.35-.64-.25-.17-.13-1.19-.64-1.2-.42,0-.66.13-1.02.47-.57.53-.86.81-1.06.77-.48-.1.8-.83,1.9-2.47,1.52-2.28,1.57-3.39,1.45-4.13Z"/>
                  <path class="st10" d="M193.32,269.16c-.62-.31-.97-.28-1.18,0-.12.15-.29.09-.21-.14.34-.97.97-1.13,1.57-.72.17.14.31.26.44.38-.09.15-.55.38-.62.49Z"/>
                  <path class="st10" d="M201.88,267.78c.61-.47,1.2-.6,1.55-.37.19.12.36.02.19-.2-.72-.89-1.5-.89-2.05-.33-.15.18-.27.34-.38.49.21.21.67.43.7.41Z"/>
                  <path class="st10" d="M197.18,273.43c-.34.8-.52,1.34-.32,1.75.11.24.02.47-.24.27-1.05-.79-1.11-1.77-.52-2.48.2-.24.42-.39.61-.57.27.23.49.99.47,1.03Z"/>
                  <path class="st10" d="M194.57,271.54c-.58.28-.76.61-.72,1.01.03.22-.12.32-.22.06-.83-1.64-.1-2,.99-2,.08.29-.04.92-.06.93Z"/>
                  <path class="st9" d="M199.44,267.48c-.4-.2-.44-.45-.35-.63.19-.37.42-.21.85.09"/>
                  <path class="st9" d="M199.91,266.9c-.4-.2-.44-.45-.35-.63.19-.37.42-.21.85.09"/>
                  <path class="st9" d="M200.44,266.35c-.45-.27-.49-.59-.4-.82.21-.48.46-.27.94.13"/>
                  <path class="st9" d="M201.01,265.65c-.48-.31-.53-.67-.42-.93.22-.54.49-.3,1,.15"/>
                  <path class="st9" d="M201.61,264.92c-.45-.33-.6-.67-.43-.99.27-.5.49-.32,1,.17"/>
                </g>
                <path class="st3" d="M205.04,226.74c-.29.29-1.29.35-2.67.53-2.21.22-3.54-.37-3.91-1.78.89.94,1.92,1.37,3.03,1.02,1.5-.47,2.35-.8,2.7-.75.24.07.61.47.85.98Z"/>
                <g>
                  <path class="st0" d="M212.05,256.68c.03.64.06,1.35.1,2.08h0s-1.57.43-1.57.43c.04.72,2.3,8.18,3.22,8.12s2.24-7.74,2.19-8.46l-1.61-.23h0c-.05-.73-.1-1.45-.15-2.08-.32.3-.65.8-1.01,1.26-.41-.41-.81-.87-1.16-1.13Z"/>
                  <path class="st8" d="M210.41,260l-1.47-.72c-.57.47-.92,2.09.19,3.32,1.37,1.54,1.96,2.69,2.36,3.98.85-1.24,1.1-2.51.43-3.69-.9-1.59-1.47-2.49-1.5-2.9Z"/>
                  <path class="st8" d="M211.5,258.8l-1.47-.72c-.57.47-1.73,2.09-.62,3.32,1.37,1.54,2.77,2.69,3.17,3.98.85-1.24,1.17-2.52.51-3.7-.9-1.59-1.55-2.48-1.58-2.89Z"/>
                  <path class="st8" d="M216.26,259.64l1.37-.89c.62.39,1.17,1.96.22,3.32-1.17,1.7-1.62,2.91-1.85,4.24-1-1.13-1.4-2.36-.88-3.61.69-1.69,1.15-2.65,1.13-3.06Z"/>
                  <path class="st8" d="M215.03,258.58l1.37-.89c.62.39,1.97,1.86,1.03,3.22-1.17,1.7-2.42,3.01-2.65,4.34-1-1.13-1.47-2.35-.96-3.6.69-1.69,1.23-2.65,1.21-3.06Z"/>
                  <path class="st8" d="M208.33,258.42l-1.47-.72c-.57.47-.92,2.09.19,3.32,1.37,1.54,1.96,2.69,2.36,3.98.85-1.24,1.1-2.51.43-3.69-.9-1.59-1.47-2.49-1.5-2.9Z"/>
                  <path class="st8" d="M218.13,257.81l1.37-.89c.62.39,1.17,1.96.22,3.32-1.17,1.7-1.62,2.91-1.85,4.24-1-1.13-1.4-2.36-.88-3.61.69-1.69,1.15-2.65,1.13-3.06Z"/>
                </g>
                <path class="st0" d="M200.82,243.84c.11,1.3.41,9.97.42,11.19,0,1.22-.49,2.09-1.03,2.6-.57-.69-.95-1.65-1.1-2.81-.08-.59-.47-8.79-.53-10.47.81-2.63,1.53-2.77,2.24-.51Z"/>
                <path class="st0" d="M195.05,242.08l.37,11.92c-.05,1.06,1.72,7.26,2.55,8.45,1.81-.91,1.94-5.2,1.33-9.33-.61-4.13-.42-7.74-.18-8.51-.03-.94-.25-1.91-.32-2.89-1.18.14-2.56.2-3.74.35Z"/>
                <path class="st0" d="M192.97,244.16l.99,11.89c0,1.06,2.09,7.16,2.98,8.3,1.8-1.58,1.05-7.54.65-9.33-.8-3.57-.96-7.76-.81-8.45-.08-.94-.18-2.06-.3-3.03-1.17.21-2.34.42-3.52.63Z"/>
                <path class="st0" d="M191.5,247.08l3.13-.27c-.19,1.31.28,5.33,1.01,8.38.69,2.85,1.86,10.28-1.04,12.26-2.11-3.83-.93-7.75-2.08-11.12-.96-3.59-1.29-6.63-1.02-9.25Z"/>
                <path class="st0" d="M203.18,241.5c.07,1.3.11,9.97.08,11.2-.03,1.22-.55,2.07-1.11,2.56-.55-.71-.9-1.68-1.01-2.84-.06-.59-.21-8.8-.22-10.48.89-2.6,1.61-2.72,2.26-.44Z"/>
                <path class="st0" d="M197.18,234.8c.09,2.79.42,8.85.47,9.36.11,1.16.66,2.61,1.21,3.32.56-.49,1.08-1.34,1.11-2.56.03-1-.24-5.91-.38-8.37-.66-.37-1.34-.83-1.9-1.34,0,0-.49-.38-.51-.41Z"/>
                <path class="st0" d="M199.53,236.46c.13,3.01.46,7.74.49,8.12.11,1.16.46,2.13,1.01,2.84.56-.49,1.13-1.37,1.17-2.6.02-.75.03-3.97-.1-6.44-.81-.2-1.89-1.44-2.57-1.93Z"/>
                <path class="st0" d="M197.47,234.53l-2.32-2.94c-.34,1.54-.19,12.44.48,13.29.11,1.16.59,2.12,1.15,2.83.56-.49,1.39-1.37,1.06-2.58-.33-1.21-.55-9.31-.37-10.59Z"/>
                <path class="st0" d="M193.52,241.63c0,1.69.01,2.83.07,3.42.11,1.16.46,2.13,1.01,2.84.56-.49,1.26-1.35,1.11-2.56-.59-4.69-.35-9.15-.01-13.45-.53-.34-1.41-.69-1.94-1.03-.66,5.8-.77,9.38-.24,10.77Z"/>
                <path class="st8" d="M191.58,244.84l.71,2.15c.11,1.16.89,2.08,1.44,2.79.56-.49,1.05-1.28.83-2.48-1.3-6.89-1.27-11.51-.16-17.26-3.16,2.45-4.4,7.3-2.82,14.8Z"/>
                <path class="st0" d="M191.88,246.98l-3.09-.82c-.2,3.05.63,6.81,1.76,11.77.97,4.26.81,7.68.41,9.9,3.2-.64,4.31-4.89,2.21-12.61-.55-2.02-1.14-4.61-1.28-8.24Z"/>
                <path class="st11" d="M192.7,261.62c-.05-2.01-.52-4.17-1.02-5.99-.68-2.49-1.1-4.9-1.27-7.44"/>
                <path class="st8" d="M190.66,229.2l2.01.21c-.07.43-.41,3.07-.48,3.53-.52,3.68-.74,7.98.11,12.64.32,1.73.77,3.13,1.39,4.2-2.2-.11-3.73-2.15-3.78-5.87-.65-4.31-.69-7.76-.15-10.4.16-.77.64-3.67.9-4.31Z"/>
                <path class="st0" d="M189.48,229.75l1.04,1.05c-.26.21.26,1.04.11,2.71-.1.95-.6,2.09-.64,3.3-.14,4,.17,8.98,1.56,12.09-2.2-.11-3.07-2.04-3.37-5.75-.25-3.07-.48-6.68.03-10.91.1-.99.52-1.79,1.26-2.5Z"/>
                <path class="st0" d="M195.11,232.34l-2.03-.11c-.25,1.92-.45,3.28-.48,3.96-.05,1.34.43,2.53.94,3.41.71-.49,1-1.49,1.23-2.88.23-1.39.21-2.9.34-4.38Z"/>
                <path class="st0" d="M200.6,236.29l-1.79.13c.04,1.64.07,2.75.13,3.33.13,1.13.47,2.07,1,2.76.51-.49.98-1.31.99-2.5,0-1.2-.24-2.45-.33-3.72Z"/>
                <path class="st0" d="M202.58,237.02l-1.78.19c.1,1.64.16,2.75.25,3.32.17,1.12.54,2.05,1.09,2.72.5-.5.93-1.35.9-2.54-.03-1.19-.33-2.44-.46-3.7Z"/>
                <path class="st0" d="M198.72,235.48l-1.79-.02c-.09,1.64-.16,2.75-.14,3.33.04,1.14.3,2.1.77,2.83.55-.44,1.08-1.23,1.19-2.42.1-1.19-.04-2.46-.03-3.73Z"/>
                <path class="st0" d="M196.94,233.67l-2-.69c-.25,1.34-.43,5.71.48,7.5.62-.48,1.23-1.35,1.37-2.67.14-1.32.12-2.72.16-4.14Z"/>
                <path class="st1" d="M194.22,231.67l-3.11.47c-.61,1.83-.98,3.45-1.12,4.9,1.43-.35,2.44-1.12,2.73-2.44.4-1.78,1.25-2.6,1.49-2.93Z"/>
                <g>
                  <path class="st10" d="M200.32,278.73c1.25.88,2.21-1.37.97-4.19-.92-2.09-4.69-1.02-2.38,1.72.11.13.25.06.22-.1-.16-.58.2-.95.78-.87,1.6.2,1.84,3.2.07,2.62-.32,0,0,.59.33.82Z"/>
                  <path class="st10" d="M204.23,278.48c-1.13,1.03-2.36-1.09-1.48-4.04.65-2.18,4.53-1.59,2.57,1.41-.09.14-.24.09-.23-.07.08-.6-.31-.92-.89-.77-1.57.39-1.43,3.4.25,2.61.31-.04.07.58-.23.85Z"/>
                  <path class="st10" d="M201.58,269.34v.02c-.12.51-.66,1.17-1.09,1.67-.65.77-.42,1.86.1,2.42.57.61.85,1.31.99,1.87.1.34.29,1.1.26,2.31-.01.59-.35.92-.67,1.21-.16.15.1.45.69.84.06.04.24.15.34.44.04.07.3.05.32-.02.06-.3.23-.42.28-.47.54-.46.76-.79.58-.92-.35-.24-.73-.53-.82-1.12-.18-1.2-.08-1.98-.03-2.33.07-.57.26-1.3.75-1.97.45-.62.54-1.73-.2-2.41-.48-.44-1.1-1.03-1.29-1.52v-.02c-.02-.1-.07-.14-.13-.14s-.1.06-.11.15Z"/>
                  <path class="st10" d="M201.27,276.31l1.72-.11c.3-.02.55.2.57.5h0c.02.29-.21.54-.51.56l-1.72.11c-.3.02-.55-.2-.57-.5h0c-.02-.29.21-.54.51-.56Z"/>
                </g>
                <g>
                  <path class="st10" d="M224.68,277.22c1.25.88,2.21-1.37.97-4.19-.92-2.09-4.69-1.02-2.38,1.72.11.13.25.06.22-.1-.16-.58.2-.95.78-.87,1.6.2,1.84,3.2.07,2.62-.32,0,0,.59.33.82Z"/>
                  <path class="st10" d="M228.6,276.97c-1.13,1.03-2.36-1.09-1.48-4.04.65-2.18,4.53-1.59,2.57,1.41-.09.14-.24.09-.23-.07.08-.6-.31-.92-.89-.77-1.57.39-1.43,3.4.25,2.61.31-.04.07.58-.23.85Z"/>
                  <path class="st10" d="M225.95,267.83v.02c-.12.51-.66,1.17-1.09,1.67-.65.77-.42,1.86.1,2.42.57.61.85,1.31.99,1.87.1.34.29,1.1.26,2.31-.01.59-.35.92-.67,1.21-.16.15.1.45.69.84.06.04.24.15.34.44.04.07.3.05.32-.02.06-.3.23-.42.28-.47.54-.46.76-.79.58-.92-.35-.24-.73-.53-.82-1.12-.18-1.2-.08-1.98-.03-2.33.07-.57.26-1.3.75-1.97.45-.62.54-1.73-.2-2.41-.48-.44-1.1-1.03-1.29-1.52v-.02c-.02-.1-.07-.14-.13-.14s-.1.06-.11.15Z"/>
                  <path class="st10" d="M225.63,274.8l1.72-.11c.3-.02.55.2.57.5h0c.02.29-.21.54-.51.56l-1.72.11c-.3.02-.55-.2-.57-.5h0c-.02-.29.21-.54.51-.56Z"/>
                </g>
                <path class="st0" d="M223.79,242.42c.05,1.3.82,9.94.97,11.16.15,1.21.74,2.01,1.35,2.45.48-.76.74-1.76.74-2.92,0-.59-.62-8.78-.77-10.46-1.13-2.51-1.86-2.56-2.29-.23Z"/>
                <path class="st0" d="M229.29,239.95l1.11,11.88c.18,1.05-.81,7.42-1.48,8.7-1.91-.68-2.57-4.92-2.48-9.09.09-4.17-.54-7.74-.87-8.47-.08-.94.01-1.93-.04-2.91,1.19,0,2.57-.11,3.76-.12Z"/>
                <path class="st0" d="M231.62,241.76l.49,11.92c.13,1.06-1.19,7.36-1.93,8.61-1.98-1.35-1.97-7.35-1.79-9.18.35-3.64,0-7.82-.25-8.48-.03-.94-.08-2.07-.08-3.05,1.19.06,2.38.13,3.57.19Z"/>
                <path class="st0" d="M233.43,244.48l-3.14.11c.35,1.28.38,5.33.03,8.44-.33,2.91-.57,10.43,2.55,12.04,1.62-4.06-.04-7.81.69-11.29.51-3.69.46-6.74-.13-9.3Z"/>
                <path class="st0" d="M221.16,240.39c.09,1.3,1.12,9.91,1.31,11.12.18,1.21.8,1.99,1.42,2.41.46-.77.68-1.78.65-2.94-.02-.59-.88-8.76-1.08-10.43-1.21-2.47-1.93-2.5-2.3-.16Z"/>
                <path class="st0" d="M226.28,232.99c.26,2.78.68,8.83.69,9.35.03,1.17-.33,2.67-.79,3.45-.62-.42-1.23-1.2-1.42-2.41-.15-.99-.49-5.9-.66-8.35.61-.45,1.23-.99,1.72-1.57,0,0,.44-.44.46-.47Z"/>
                <path class="st0" d="M224.16,234.93c.24,3,.5,7.73.51,8.12.03,1.17-.19,2.17-.65,2.94-.62-.42-1.29-1.22-1.48-2.43-.11-.74-.52-3.94-.69-6.4.78-.3,1.7-1.66,2.31-2.23Z"/>
                <path class="st0" d="M225.96,232.76l1.94-3.2c.52,1.49,1.72,12.32,1.16,13.25.03,1.17-.33,2.18-.79,2.95-.62-.42-1.55-1.19-1.37-2.43.18-1.25-.61-9.31-.95-10.56Z"/>
                <path class="st0" d="M230.75,239.32c.2,1.68.34,2.81.36,3.4.03,1.17-.19,2.17-.65,2.94-.62-.42-1.42-1.18-1.42-2.41,0-4.72-.78-9.12-1.65-13.34.48-.4,1.31-.85,1.79-1.26,1.37,5.67,1.93,9.21,1.57,10.66Z"/>
                <path class="st8" d="M233.08,242.27l-.44,2.22c.03,1.17-.63,2.17-1.09,2.94-.62-.42-1.2-1.14-1.13-2.36.43-7-.16-11.58-1.97-17.15,3.44,2.04,5.27,6.7,4.63,14.34Z"/>
                <path class="st0" d="M233.04,244.43l2.97-1.19c.57,3,.22,6.83-.29,11.89-.43,4.34.15,7.72.82,9.87-3.26-.24-4.88-4.32-3.75-12.24.3-2.07.56-4.72.25-8.34Z"/>
                <path class="st11" d="M234.04,259.06c-.19-2,0-4.21.27-6.07.37-2.56.49-5,.34-7.54"/>
                <path class="st8" d="M232.06,226.63l-1.97.46c.12.42.79,3,.91,3.44.97,3.58,1.72,7.83,1.45,12.56-.1,1.75-.38,3.2-.86,4.33,2.17-.38,3.43-2.6,3.02-6.29.11-4.35-.27-7.79-1.13-10.33-.25-.75-1.09-3.57-1.43-4.16Z"/>
                <path class="st0" d="M233.29,227.03l-.91,1.17c.29.18-.13,1.06.23,2.7.22.93.85,2,1.04,3.2.63,3.95.94,8.93-.06,12.19,2.17-.38,2.79-2.4,2.63-6.12-.13-3.07-.35-6.69-1.38-10.82-.22-.97-.74-1.72-1.56-2.32Z"/>
                <path class="st0" d="M228.03,230.3l2-.36c.49,1.88.85,3.2.96,3.88.22,1.32-.11,2.56-.51,3.5-.77-.4-1.18-1.35-1.57-2.7-.4-1.35-.57-2.85-.88-4.31Z"/>
                <path class="st0" d="M223.07,234.9l1.79-.09c.16,1.64.28,2.74.28,3.32.01,1.14-.21,2.11-.65,2.86-.57-.42-1.13-1.18-1.29-2.36-.16-1.18-.06-2.46-.13-3.73Z"/>
                <path class="st0" d="M221.2,235.86l1.79-.03c.11,1.64.18,2.75.17,3.33-.03,1.14-.28,2.11-.75,2.84-.56-.44-1.09-1.22-1.2-2.41-.11-1.19.02-2.46,0-3.73Z"/>
                <path class="st0" d="M224.83,233.86l1.77-.24c.29,1.62.5,2.71.55,3.29.11,1.13-.04,2.12-.42,2.91-.6-.37-1.23-1.09-1.48-2.25-.25-1.17-.26-2.45-.43-3.7Z"/>
                <path class="st0" d="M226.38,231.84l1.9-.93c.42,1.3,1.13,5.61.45,7.5-.68-.4-1.39-1.19-1.69-2.48-.3-1.3-.45-2.69-.67-4.09Z"/>
                <path class="st1" d="M228.83,229.52l3.14.08c.83,1.74,1.4,3.3,1.72,4.73-1.46-.17-2.56-.81-3.02-2.09-.62-1.72-1.56-2.43-1.84-2.72Z"/>
                <path class="st8" d="M219.92,234.54c.23-.06.47-.15.71-.25-1.19-.64-2.19-1.45-3.42-3.11-1.26-1.7.2-4.96.78-6.68,1.36-1.14,2.6-2.77,2.9-4.84.1-1.11-2.9-.52-4.93.59-2.47,1.36-2.84,1.05-3.73,1.31-.23,1.58.46,1.67,1.1,1.55-1.26,2.33-1.71,4.61-1.79,7.84-.48-3.2-1.2-5.4-2.75-7.56.65.04,1.32-.14.9-1.68-.92-.15-1.25.21-3.87-.84-2.14-.85-5.2-1.06-4.96.02.55,2.01,1.99,3.47,3.48,4.44.78,1.63,2.64,4.69,1.6,6.53-1.02,1.8-1.91,2.72-3.01,3.51.25.07.5.12.74.16-.16.25-1.61.8-1.79.69-1.18-.73-2.41-2.55-3.44-3.58-2.93-2.93-4.44-5.23-4.07-7.19.56-2.12,2.86-4.6-.36-4-3.22.6-5.63,5.22-6.16,10.62-.2,2-.28,3.68-.41,5.05,1.73-.74,2.48-1.42,2.9-2.22-.17.75-.28,1.46-.35,2.14,1.43-.35,2.44-1.12,2.73-2.44.12-.53.28-.98.45-1.36.45.13,1.03.09,1.72-.13.31.62,2.44,2.72,3.61,4.28,1.32,1.77,3.23,3.06,3.84,3.1.3.02.35-.65.23-1.56,3.17-.17,6.33-.35,9.42-.65,3.11-.09,6.27-.3,9.43-.52,0,.92.12,1.58.42,1.52.59-.11,2.33-1.64,3.42-3.55.97-1.7,2.83-4.04,3.06-4.7.71.13,1.29.1,1.73-.08.22.35.43.78.62,1.29.46,1.27,1.55,1.92,3.02,2.09-.15-.66-.35-1.35-.61-2.08.52.75,1.34,1.33,3.15,1.85-.3-1.35-.59-3-1.03-4.96-1.2-5.3-4.16-9.57-7.43-9.78-3.27-.2-.68,1.98.14,4.01.6,1.9-.61,4.37-3.15,7.64-.9,1.15-1.89,3.1-2.97,3.98-.17.13-1.68-.24-1.86-.46Z"/>
                <path class="st3" d="M217.49,225.97c.32.25,1.33.19,2.71.19,2.22-.06,3.47-.81,3.67-2.25-.77,1.04-1.73,1.59-2.88,1.39-1.55-.28-2.43-.5-2.78-.41-.23.1-.54.54-.72,1.08Z"/>
                <path class="st10" d="M222.32,219.81c2.51.11,2.49,1.75.3,4.19-.42.47-.57.46-.7.01-.22-.79-1.13-1.21-1.56-.57-.29.43-.21.67-1.27.59-1.26,1.2-2.3,2.05-.56,1.88.76-.08,1.38.33,2.38.23-.26.59-.31.66-.47.72-.96.25-2.01-.29-2.98-.05-2.12.53,3.07-5.99,2.99-6.23-.21-.61,1.23-1.82,1.86-.77Z"/>
                <path class="st11" d="M222.26,219.76c-.17.6-.53,1.16-1.08,1.69"/>
                <path class="st2" d="M222.86,220.92c-.02-.11-.13-.19-.25-.17-.11.02-.19.12-.16.24.02.11.13.19.25.17.11-.02.19-.12.16-.24Z"/>
                <path class="st11" d="M201.57,221.72c.67-.08,1.37.17,2.28.44.26.08,1.15.36,1.41.31"/>
                <path class="st11" d="M208.84,223.4c-.73-.07-1.14-.14-1.49-.22"/>
                <path class="st9" d="M202.1,221.74c.31.5.69,1.17,1.3,1.47.46.22.93-.2,1.25-.9"/>
                <path class="st2" d="M203.15,222.97l-.35-.31c-.17-.19-.1-.47.23-.82.26.09.47.17.67.24-.11.46-.29.76-.55.9Z"/>
                <path class="st9" d="M219.79,220.64c-.25.53-.54,1.25-1.11,1.62-.43.28-.95-.09-1.35-.74"/>
                <path class="st2" d="M218.9,222l.31-.35c.15-.21.04-.48-.33-.79-.25.13-.44.22-.64.32.16.45.38.72.66.82Z"/>
                <path class="st11" d="M220.31,220.56c-.67,0-1.34.34-2.21.72-.25.11-1.09.5-1.36.48"/>
                <path class="st11" d="M213.3,223.13c.72-.16,1.11-.28,1.45-.4"/>
                <g>
                  <path class="st6" d="M202.94,235.39c1.45.41,2.73.23,3.63-.78.14-.16.28-.31.41-.46"/>
                  <path class="st6" d="M207.1,233.28c-.07.96-.27,1.74-.56,2.52.99-.32,1.75-.83,2.19-1.55"/>
                  <path class="st6" d="M211.84,235.93c-.84-.9-1.39-1.97-1.52-3.19"/>
                  <path class="st6" d="M208.45,233.05c.15.95.47,1.76.96,2.36.46-.39.89-1.02,1.05-1.88"/>
                  <path class="st6" d="M220.64,234.29c-1.39.59-2.68.57-3.7-.32-.16-.14-.31-.27-.46-.4"/>
                  <path class="st6" d="M216.25,232.71c.19.95.48,1.7.87,2.44-1.02-.2-1.84-.61-2.36-1.27"/>
                  <path class="st6" d="M214.88,232.65c-.03.96-.25,1.8-.66,2.46-.51-.33-1.01-.9-1.27-1.74"/>
                  <path class="st6" d="M211.87,235.93c.72-1,1.13-2.12,1.11-3.36"/>
                </g>
                <path class="st11" d="M192.84,228.43c-1.08.87-2.79,6.82-2.84,8.54-.12,3.97.19,8.86,1.57,11.93"/>
                <path class="st11" d="M229.8,226.14c1.18.73,3.61,6.43,3.88,8.12.61,3.93.9,8.82-.08,12.03"/>
                <path class="st3" d="M199.48,221.23c-2.47.42-2.25,2.04.22,4.2.47.41.62.39.69-.07.12-.81.97-1.34,1.48-.76.34.39.29.64,1.33.42,1.4,1.03,2.53,1.75.79,1.79-.77.02-1.33.5-2.33.52.33.55.39.62.55.66.98.13,1.96-.54,2.95-.42,2.16.26-3.79-5.56-3.73-5.81.14-.63-1.45-1.65-1.94-.53Z"/>
                <path class="st11" d="M199.54,221.17c.24.57.67,1.09,1.28,1.54"/>
                <path class="st2" d="M199.08,222.4c0-.11.11-.2.23-.2.12,0,.2.1.19.21,0,.11-.11.2-.23.2-.12,0-.2-.1-.19-.21Z"/>
                <g>
                  <path class="st8" d="M203.59,260.22l-.04-1.64c-.68-.29-2.27.15-2.86,1.7-.73,1.93-1.48,2.98-2.44,3.93,1.5.18,2.73-.19,3.47-1.32,1-1.53,1.53-2.45,1.88-2.67Z"/>
                  <path class="st0" d="M204.8,260.36l-1.81-.63c-.63,1.52-1.06,2.54-1.24,3.1-.34,1.09-.38,2.09-.14,2.94.71-.23,1.5-.79,2-1.87.5-1.09.77-2.34,1.2-3.53Z"/>
                  <path class="st0" d="M205.31,260.32l-1.91-.17c-.24,1.63-.41,2.73-.44,3.31-.06,1.13.14,2.12.58,2.89.63-.39,1.26-1.13,1.48-2.3.22-1.18.17-2.46.3-3.72Z"/>
                  <path class="st8" d="M205.43,257.73l1.13-.08c.68.29,1.46,1.74.75,3.24-.88,1.87-1.13,3.13-1.14,4.48-1.17-.95-1.76-2.1-1.45-3.42.41-1.78.79-3.82.71-4.22Z"/>
                  <path class="st0" d="M205.89,256.91l-1.85-.53c-.54,1.55-.92,2.6-1.06,3.16-.27,1.1-.26,2.11.02,2.94.69-.27,1.56-.78,1.99-1.89.43-1.12.53-2.47.89-3.69Z"/>
                  <path class="st8" d="M204.58,255.73l-.55-2.43c-.42-.09-.91.92-1.42,1.52-.12.14-.25.27-.35.44-.21.35-.36.76-.44,1.22-.33,2.04-.92,3.13-1.67,4.25,1.5-.12,2.64-.74,3.13-2,.67-1.7,1-2.71,1.29-3Z"/>
                </g>
                <g>
                  <path class="st3" d="M223.86,259.76c.48,0,1.09.23,2.9,1.61.85,1.48,1.7,2.98,2.82,4.24.37.21.66.36.95.43.3.08,2.46-.13,2.51-.22.64-.65,1.69-.28,1.39.38.28.24-.25,1.2-.74.84-.46-.33-1.95.1-2.46-.05.22.44,1.6.65,2.56.66.87-.02.87.86.55,1.55-.39.29-.08-.06-.21.14-.35.6-1.19.58-1.26.02-.07-.58-2.15-1.22-2.48-1.65.43.87,1.34,1.64,1.82,2.49.49.43.77.51.24,1.47-.66-.03-.71-.21-1.09.2-.91-.04-1.07-.3-.97-1.02.11-.76-.61-2.08-.84-2.46-.22-.34-.29-.71-.49-.92-.35-.37-1.95-1.04-2.34-.81-.71.44-1.28.23-1.42-.47.22-.2-.01-1.2.49-1.27.41-.06.67.05,1.07.34.63.45.96.69,1.15.63.46-.16-.9-.72-2.19-2.22-1.8-2.07-1.98-3.17-1.95-3.92Z"/>
                  <path class="st10" d="M234.36,266.61c.58-.39.93-.4,1.17-.15.14.14.3.05.19-.17-.46-.92-1.1-1-1.65-.52-.15.16-.27.29-.39.43.1.14.59.3.68.41Z"/>
                  <path class="st10" d="M225.7,266.3c-.66-.39-1.27-.44-1.58-.18-.17.15-.36.06-.21-.17.6-.97,1.38-1.07,1.99-.58.17.16.3.3.44.44-.19.23-.61.51-.64.49Z"/>
                  <path class="st10" d="M231.05,271.32c.44.75.68,1.27.53,1.69-.08.25.04.46.27.24.94-.92.89-1.9.21-2.52-.23-.21-.46-.34-.67-.49-.24.26-.36,1.04-.34,1.08Z"/>
                  <path class="st10" d="M233.42,269.13c.61.21.83.51.84.92,0,.23.16.3.22.03.62-1.73-.15-1.99-1.23-1.87-.04.3.15.9.17.91Z"/>
                  <path class="st9" d="M228.08,265.71c.38-.25.38-.5.27-.67-.24-.34-.45-.16-.83.2"/>
                  <path class="st9" d="M227.54,265.19c.38-.25.38-.5.27-.67-.24-.34-.45-.16-.83.2"/>
                  <path class="st9" d="M226.94,264.7c.41-.32.42-.65.29-.86-.27-.45-.49-.21-.92.25"/>
                  <path class="st9" d="M226.29,264.09c.44-.36.44-.73.31-.98-.29-.51-.53-.24-.97.27"/>
                  <path class="st9" d="M225.6,263.43c.4-.38.51-.74.3-1.03-.33-.46-.53-.26-.97.29"/>
                </g>
                <g>
                  <path class="st8" d="M223.07,259.01l-.16-1.63c.64-.37,2.27-.13,3.05,1.33.97,1.83,1.83,2.78,2.91,3.59-1.46.37-2.73.15-3.61-.88-1.18-1.39-1.82-2.24-2.19-2.42Z"/>
                  <path class="st0" d="M221.88,259.3l1.72-.85c.82,1.43,1.37,2.39,1.61,2.92.47,1.04.64,2.03.51,2.9-.73-.14-1.59-.6-2.21-1.61-.63-1.02-1.05-2.23-1.62-3.36Z"/>
                  <path class="st0" d="M221.37,259.33l1.88-.41c.44,1.58.74,2.66.85,3.23.2,1.12.13,2.12-.22,2.94-.67-.31-1.39-.97-1.75-2.1-.36-1.14-.47-2.42-.75-3.65Z"/>
                  <path class="st8" d="M220.93,256.77l-1.13.06c-.64.37-1.24,1.91-.35,3.31,1.11,1.74,1.51,2.97,1.69,4.31,1.04-1.09,1.48-2.3,1.02-3.57-.63-1.72-1.26-3.69-1.23-4.1Z"/>
                  <path class="st0" d="M220.38,256.02l1.77-.75c.73,1.47,1.23,2.47,1.44,3.01.41,1.06.52,2.06.34,2.93-.72-.18-1.64-.58-2.21-1.63-.57-1.05-.83-2.39-1.34-3.55Z"/>
                  <path class="st8" d="M221.52,254.68l.24-2.48c.41-.14,1.02.8,1.59,1.33.13.12.28.24.4.39.25.32.46.71.59,1.16.58,1.98,1.3,2.99,2.18,4.01-1.51.06-2.71-.41-3.35-1.6-.87-1.61-1.32-2.57-1.65-2.81Z"/>
                </g>
                <g>
                  <path class="st7" d="M221.91,235.49l1.01,16.23h0c.18,2.9-.78,5.61-2.48,7.63-1.7,2.02-4.14,3.36-6.9,3.53h0s0,0,0,0c-2.76.17-5.35-.86-7.29-2.65-1.94-1.8-3.23-4.36-3.41-7.27h0s-1.01-16.23-1.01-16.23l20.08-1.25Z"/>
                  <path class="st0" d="M222.53,245.44l.26,4.18-7.95.49.77,12.4c-.67.19-1.36.32-2.08.36h0s0,0,0,0c-.72.04-1.42,0-2.11-.1l-.77-12.4-7.95.49-.26-4.18,7.95-.49-.62-9.96,4.18-.26.62,9.96,7.95-.49Z"/>
                  <path class="st8" d="M208.57,238.7l.36,5.88c-1.26.42-4.31,1.86-4.64-.86-.15-1.26,1.43-2.19,1.95-1.1.24.51.04.9-.26,1.04-.32.15-.67-.1-.61-.5-1.28.78,1.32,2.09,2.34.11.3-.58-.63-1.11-.66-1.52-.03-.41.81-1.09.46-1.59-1.27-1.84-3.68-.22-2.3.39-.11-.4.2-.68.54-.58.32.1.57.46.39,1-.37,1.14-2.06.41-2.07-.85,0-2.74,3.19-1.69,4.5-1.42Z"/>
                  <path class="st8" d="M215.46,238.27l.36,5.88c1.3.26,4.5,1.31,4.5-1.42,0-1.26-1.69-1.99-2.07-.85-.18.54.07.9.39,1,.34.11.65-.18.54-.58,1.37.61-1.05,2.24-2.3.39-.36-.54.49-1.17.46-1.59s-.94-.98-.66-1.52c1.03-1.98,3.62-.67,2.34.11.06-.41-.28-.65-.61-.5-.3.14-.51.53-.26,1.04.51,1.09,2.1.15,1.95-1.1-.33-2.72-3.38-1.28-4.64-.86Z"/>
                  <path class="st8" d="M209.77,258.05l-.36-5.88c-1.3-.26-4.5-1.31-4.5,1.42,0,1.26,1.69,1.99,2.07.85.18-.54-.07-.9-.39-1-.34-.11-.65.18-.54.58-1.37-.61,1.05-2.24,2.3-.39.36.54-.49,1.17-.46,1.59.02.41.94.98.66,1.52-1.03,1.98-3.62.67-2.34-.11-.06.41.28.65.61.5.3-.14.51-.53.26-1.04-.51-1.09-2.1-.15-1.95,1.1.33,2.72,3.38,1.28,4.64.86Z"/>
                  <path class="st8" d="M216.66,257.62l-.36-5.88c1.26-.42,4.31-1.86,4.64.86.15,1.26-1.43,2.19-1.95,1.1-.24-.51-.04-.9.26-1.04.32-.15.67.1.61.5,1.28-.78-1.32-2.09-2.34-.11-.3.58.63,1.11.66,1.52s-.81,1.09-.46,1.59c1.27,1.84,3.68.22,2.3-.39.11.4-.2.68-.54.58-.32-.1-.57-.46-.39-1,.37-1.14,2.06-.41,2.07.85,0,2.74-3.19,1.69-4.5,1.42Z"/>
                  <path class="st9" d="M221.91,235.49l1.01,16.23h0c.18,2.9-.78,5.61-2.48,7.63-1.7,2.02-4.14,3.36-6.9,3.53h0s0,0,0,0c-2.76.17-5.35-.86-7.29-2.65-1.94-1.8-3.23-4.36-3.41-7.27h0s-1.01-16.23-1.01-16.23l20.08-1.25Z"/>
                </g>
              </g>
            </g>
          </g>
        </g>
        <path class="st25" d="M139.41,342.95c-.97,13.92-3.63,26.73-9.45,36.42-.92,1.53.7,3.32,2.33,2.59l5.18-2.35c.77-.35,1.69-.12,2.21.55l4.56,5.95c.78,1.02,2.36.94,3.02-.16,6.95-11.54,10.16-26,10.02-44.18l-17.86,1.2Z"/>
      </g>
      <g>
        <g>
          <g>
            <path class="st18" d="M276.54,284.68c.73-.8,1.48-1.57,2.24-2.33"/>
            <path class="st19" d="M283.63,278c9.42-7.68,20.9-12.83,32.92-14.66,15.23-2.32,31.23.73,44.54,8.49,14.46,8.43,26.08,23.82,25.18,40.54-.73,13.49-10.15,26.11-22.87,30.64-4.51,1.6-9.53,2.24-14.07.74-4.54-1.5-8.45-5.45-8.95-10.21-.73-7.01,6.62-13.13,13.63-12.48,7.01.65,12.74,6.65,14.66,13.43,1.93,6.78.64,14.1-1.84,20.69-5.29,14.09-16.09,26.02-29.59,32.67-11.55,5.69-24.97,7.47-37.62,5.11"/>
            <path class="st18" d="M296.44,392.28c-1.05-.26-2.09-.54-3.12-.86"/>
          </g>
          <g>
            <path class="st17" d="M192.85,137.05c.84-.97,1.66-1.96,2.46-2.98"/>
            <path class="st20" d="M199.81,127.74c7.81-12.2,12.37-26.5,12.9-40.98.68-18.36-5.11-36.89-16.11-51.61-11.95-15.99-31.76-27.66-51.44-24.33-15.88,2.69-29.55,15.56-33.18,31.25-1.29,5.56-1.36,11.59,1.03,16.77,2.39,5.18,7.6,9.27,13.3,9.22,8.4-.08,14.66-9.62,12.94-17.84s-9.61-14.18-17.9-15.54c-8.29-1.36-16.79,1.16-24.26,4.99-15.97,8.17-28.64,22.59-34.69,39.49-5.18,14.46-5.46,30.59-.95,45.26"/>
            <path class="st17" d="M62.7,128.09c.45,1.21.93,2.4,1.44,3.58"/>
          </g>
        </g>
        <g>
          <polygon class="st29" points="340.52 24.98 335.04 24.98 338.91 21.11 337.77 19.97 333.9 23.84 333.9 18.36 332.27 18.36 332.27 23.84 328.4 19.97 327.26 21.11 331.13 24.98 325.65 24.98 325.65 26.61 331.13 26.61 327.26 30.48 328.4 31.62 332.27 27.75 332.27 33.23 333.9 33.23 333.9 27.75 337.77 31.62 338.91 30.48 335.04 26.61 340.52 26.61 340.52 24.98"/>
          <polygon class="st15" points="48.29 294.88 43.69 294.88 46.94 291.63 45.98 290.67 42.73 293.92 42.73 289.32 41.37 289.32 41.37 293.92 38.12 290.67 37.15 291.63 40.4 294.88 35.81 294.88 35.81 296.25 40.4 296.25 37.15 299.49 38.12 300.46 41.37 297.21 41.37 301.8 42.73 301.8 42.73 297.21 45.98 300.46 46.94 299.49 43.69 296.25 48.29 296.25 48.29 294.88"/>
          <polygon class="st25" points="396.11 265.84 391.93 265.84 394.89 262.88 394.01 262 391.05 264.96 391.05 260.78 389.81 260.78 389.81 264.96 386.85 262 385.97 262.88 388.93 265.84 384.75 265.84 384.75 267.08 388.93 267.08 385.97 270.04 386.85 270.92 389.81 267.96 389.81 272.14 391.05 272.14 391.05 267.96 394.01 270.92 394.89 270.04 391.93 267.08 396.11 267.08 396.11 265.84"/>
          <path class="st25" d="M25.73,184.7l1.01,2.49c.38.92,1.11,1.66,2.03,2.03l2.49,1.01-2.49,1.01c-.92.38-1.66,1.11-2.03,2.03l-1.01,2.49-1.01-2.49c-.38-.92-1.11-1.66-2.03-2.03l-2.49-1.01,2.49-1.01c.92-.38,1.66-1.11,2.03-2.03l1.01-2.49Z"/>
          <path class="st35" d="M350.82,193.92l.69,1.69c.26.63.75,1.13,1.38,1.38l1.69.69-1.69.69c-.63.26-1.13.75-1.38,1.38l-.69,1.69-.69-1.69c-.26-.63-.75-1.13-1.38-1.38l-1.69-.69,1.69-.69c.63-.26,1.13-.75,1.38-1.38l.69-1.69Z"/>
          <path class="st29" d="M82.66,220.12c0,1.36-1.1,2.47-2.47,2.47s-2.47-1.1-2.47-2.47,1.1-2.47,2.47-2.47,2.47,1.1,2.47,2.47Z"/>
          <path class="st35" d="M413.19,310.49c-.04.84-.76,1.49-1.6,1.44-.84-.04-1.49-.76-1.44-1.6.04-.84.76-1.49,1.6-1.44.84.04,1.49.76,1.44,1.6Z"/>
          <path class="st29" d="M333.13,123.61c0,1.08-.87,1.95-1.95,1.95s-1.95-.87-1.95-1.95.87-1.95,1.95-1.95,1.95.87,1.95,1.95Z"/>
          <path class="st29" d="M392.9,141.92l.73,1.8c.27.67.8,1.2,1.47,1.47l1.8.73-1.8.73c-.67.27-1.2.8-1.47,1.47l-.73,1.8-.73-1.8c-.27-.67-.8-1.2-1.47-1.47l-1.8-.73,1.8-.73c.67-.27,1.2-.8,1.47-1.47l.73-1.8Z"/>
          <path class="st29" d="M223.37,31.62l.73,1.8c.27.67.8,1.2,1.47,1.47l1.8.73-1.8.73c-.67.27-1.2.8-1.47,1.47l-.73,1.8-.73-1.8c-.27-.67-.8-1.2-1.47-1.47l-1.8-.73,1.8-.73c.67-.27,1.2-.8,1.47-1.47l.73-1.8Z"/>
          <path class="st25" d="M173.55,58.25c0,1.08-.87,1.95-1.95,1.95s-1.95-.87-1.95-1.95.87-1.95,1.95-1.95,1.95.87,1.95,1.95Z"/>
          <polygon class="st31" points="282.32 374.99 276.99 374.99 280.76 371.22 279.64 370.11 275.87 373.87 275.87 368.55 274.29 368.55 274.29 373.87 270.52 370.11 269.41 371.22 273.18 374.99 267.85 374.99 267.85 376.57 273.18 376.57 269.41 380.34 270.52 381.46 274.29 377.69 274.29 383.02 275.87 383.02 275.87 377.69 279.64 381.46 280.76 380.34 276.99 376.57 282.32 376.57 282.32 374.99"/>
          <path class="st35" d="M196.77,374.96l.79,1.93c.29.72.86,1.28,1.57,1.58l1.93.79-1.93.79c-.72.29-1.28.86-1.57,1.57l-.79,1.93-.79-1.93c-.29-.72-.86-1.28-1.57-1.57l-1.93-.79,1.93-.79c.72-.29,1.28-.86,1.57-1.58l.79-1.93Z"/>
          <path class="st25" d="M232.69,393.23c0,1.08-.87,1.95-1.95,1.95s-1.95-.87-1.95-1.95.87-1.95,1.95-1.95,1.95.87,1.95,1.95Z"/>
        </g>
      </g>
      <g>
        <g>
          <path class="st25" d="M282.61,33.76c-13.16.91-23.09,12.35-22.17,25.54.35,4.98,2.19,9.49,5.05,13.14l-7.65,7.55c-1.31,1.29-.31,3.52,1.52,3.39l26.56-1.84c13.16-.91,23.09-12.35,22.17-25.54-.92-13.19-12.33-23.14-25.49-22.23Z"/>
          <path class="st35" d="M272.88,65.93l8.45-20.36,5.62-.13,9.38,19.96-5.93.13-7.36-17.21,2.25-.05-6.58,17.52-5.82.13ZM277.66,61.9l1.38-4.24,9.85-.22,1.56,4.17-12.79.29Z"/>
        </g>
        <g>
          <path class="st25" d="M108.02,139.84c17.96,0,32.53,14.6,32.53,32.6,0,6.79-2.08,13.1-5.62,18.33l11.1,9.53c1.9,1.63.75,4.75-1.75,4.75h-36.25c-17.97,0-32.53-14.6-32.53-32.6s14.56-32.6,32.53-32.6Z"/>
          <path class="st29" d="M90.6,144.91"/>
          <g>
            <path class="st35" d="M119.49,167.88c.83,0,1.51-.68,1.51-1.51s-.68-1.51-1.51-1.51h-22.26c-.83,0-1.51.68-1.51,1.51s.68,1.51,1.51,1.51h22.26Z"/>
            <path class="st35" d="M114.8,180.02c.83,0,1.51-.68,1.51-1.51s-.68-1.51-1.51-1.51h-14.6c-.83,0-1.51.68-1.51,1.51s.68,1.51,1.51,1.51h14.6Z"/>
          </g>
        </g>
      </g>
    </g>
    <g id="TEXTS">
      <g>
        <g>
          <path class="st12" d="M176.08,140.5c-.86.05-1.68-.06-2.46-.33-.78-.27-1.39-.64-1.81-1.1l.22-.23c.4.42.96.76,1.69,1.02.73.26,1.5.37,2.33.32.86-.05,1.56-.21,2.09-.48.53-.27.92-.61,1.16-1.03.24-.42.35-.87.32-1.36-.03-.56-.2-1.01-.49-1.34-.29-.33-.67-.58-1.13-.75-.46-.17-.97-.31-1.51-.4-.54-.1-1.08-.2-1.63-.3-.55-.1-1.05-.25-1.52-.45-.47-.19-.85-.47-1.14-.84-.29-.37-.46-.86-.5-1.49-.03-.52.08-1.01.33-1.48.25-.47.66-.86,1.22-1.18.57-.32,1.31-.5,2.24-.56.63-.04,1.26.02,1.89.18.63.16,1.17.39,1.62.7l-.17.28c-.5-.32-1.04-.55-1.62-.69-.59-.14-1.15-.19-1.68-.16-.83.05-1.5.21-2.03.49-.53.27-.91.62-1.15,1.04-.24.42-.34.87-.31,1.37.03.58.2,1.03.49,1.36.29.33.67.58,1.13.75.46.17.97.31,1.51.4.54.1,1.09.2,1.63.31.54.11,1.04.26,1.51.45.47.19.85.47,1.14.83.29.36.46.84.5,1.45.03.52-.08,1.02-.34,1.49-.26.47-.68.86-1.26,1.17-.58.31-1.34.5-2.28.55Z"/>
          <path class="st12" d="M183.37,140.01l-.71-11.87,7.65-.46.02.32-7.31.44.67,11.23,7.56-.45.02.32-7.9.47ZM183.28,134.13l-.02-.32,6.63-.4.02.32-6.63.4Z"/>
          <path class="st12" d="M194.7,139.34l-.71-11.87,4.02-.24c1.46-.09,2.62.19,3.49.82.87.64,1.34,1.57,1.41,2.8.05.81-.1,1.52-.44,2.13-.34.61-.85,1.08-1.52,1.44-.68.35-1.5.56-2.47.62l-3.83.23.14-.16.25,4.22-.34.02ZM194.79,135.06l-.16-.13,3.87-.23c1.39-.08,2.44-.46,3.13-1.13.7-.67,1.01-1.57.94-2.7-.07-1.14-.49-2-1.26-2.58-.77-.58-1.85-.83-3.24-.74l-3.87.23.14-.15.44,7.43ZM203.13,138.83l-3.36-4.12.42-.03,3.36,4.12-.42.03Z"/>
          <path class="st12" d="M206.85,138.61l-.71-11.87,4.7-.28c1.22-.07,2.21.12,2.95.58.75.46,1.15,1.19,1.21,2.18.04.66-.09,1.21-.38,1.67-.29.45-.71.81-1.27,1.05-.55.25-1.2.4-1.93.44l.27-.24c.92-.05,1.68.02,2.3.21.62.2,1.09.51,1.43.94.33.43.52.98.56,1.65.06,1-.25,1.78-.92,2.36s-1.74.91-3.18,1l-5.04.3ZM207.16,138.27l4.77-.29c1.27-.08,2.22-.36,2.85-.84.63-.49.92-1.21.87-2.17-.06-.96-.43-1.64-1.12-2.04-.69-.4-1.67-.56-2.93-.49l-4.85.29-.02-.32,4.51-.27c1.13-.07,2-.35,2.6-.84.6-.49.87-1.18.82-2.06s-.41-1.53-1.06-1.94c-.66-.41-1.55-.59-2.68-.52l-4.43.26.67,11.23Z"/>
          <path class="st12" d="M219.53,137.85l-.71-11.87.34-.02.71,11.87-.34.02Z"/>
          <path class="st12" d="M222.28,137.69l4.8-12.2.34-.02,6.22,11.54-.39.02-6.07-11.28h.17s-4.68,11.91-4.68,11.91l-.39.02ZM223.88,134l.15-.33,7.38-.44.19.31-7.72.46Z"/>
          <path class="st12" d="M236.05,136.87l-.71-11.87.29-.02,9.57,10.95h-.19s-.69-11.47-.69-11.47l.34-.02.71,11.87-.29.02-9.57-10.95h.19s.69,11.47.69,11.47l-.34.02Z"/>
          <path class="st12" d="M159.39,161.87l-.71-11.87,4.49-.27c1.25-.08,2.37.12,3.34.57.97.46,1.74,1.12,2.31,1.98.57.86.89,1.86.96,3.01.07,1.14-.13,2.17-.6,3.1-.47.93-1.15,1.67-2.06,2.24-.91.57-1.99.89-3.24.97l-4.49.27ZM159.71,161.53l4.12-.25c1.21-.07,2.25-.38,3.11-.92.86-.54,1.51-1.25,1.95-2.12.44-.87.62-1.85.56-2.94-.06-1.09-.37-2.04-.9-2.85-.54-.81-1.27-1.44-2.19-1.87-.92-.43-1.99-.61-3.2-.54l-4.12.25.67,11.23Z"/>
          <path class="st12" d="M173.39,161.04l-.71-11.87.34-.02.71,11.87-.34.02Z"/>
          <path class="st12" d="M183.08,160.51c-.87.05-1.69-.05-2.44-.3-.76-.26-1.43-.64-2.01-1.15-.58-.51-1.05-1.12-1.39-1.82-.35-.7-.55-1.49-.6-2.35-.05-.86.05-1.66.32-2.4.26-.74.65-1.4,1.17-1.98s1.13-1.04,1.86-1.38c.72-.34,1.52-.54,2.39-.59.78-.05,1.53.03,2.24.24.72.21,1.34.55,1.88,1.03l-.19.25c-.57-.49-1.19-.82-1.85-1-.66-.18-1.35-.24-2.07-.2-.81.05-1.56.24-2.25.57-.68.33-1.27.77-1.76,1.31-.49.54-.86,1.17-1.1,1.87-.25.7-.35,1.45-.3,2.26.05.8.24,1.54.56,2.2.33.67.77,1.24,1.32,1.73s1.19.85,1.9,1.09c.72.25,1.48.35,2.3.3.72-.04,1.4-.19,2.03-.45.63-.26,1.2-.66,1.72-1.22l.22.23c-.48.54-1.06.96-1.75,1.25-.69.3-1.42.47-2.2.51Z"/>
          <path class="st12" d="M192.19,159.91l-.69-11.55-4.41.26-.02-.32,9.16-.55.02.32-4.41.26.69,11.55-.34.02Z"/>
          <path class="st12" d="M199.26,159.49l-.71-11.87.34-.02.71,11.87-.34.02Z"/>
          <path class="st12" d="M208.95,158.96c-.87.05-1.69-.05-2.44-.3-.76-.26-1.43-.64-2.01-1.15-.58-.51-1.05-1.12-1.39-1.82-.35-.7-.55-1.49-.6-2.35-.05-.86.05-1.66.32-2.4.26-.74.65-1.4,1.17-1.98s1.14-1.04,1.86-1.38,1.52-.54,2.39-.59c.87-.05,1.69.05,2.44.3.76.26,1.43.64,2.01,1.15.58.51,1.05,1.12,1.39,1.82s.55,1.49.6,2.35c.05.86-.05,1.66-.32,2.4-.26.74-.65,1.4-1.17,1.98-.52.58-1.13,1.04-1.86,1.38-.72.34-1.52.54-2.39.59ZM208.93,158.64c.81-.05,1.56-.23,2.25-.56.68-.32,1.27-.76,1.76-1.31s.86-1.17,1.11-1.87c.25-.7.35-1.46.3-2.27-.05-.82-.24-1.55-.57-2.22-.33-.67-.77-1.24-1.32-1.73-.55-.48-1.19-.84-1.9-1.09-.72-.24-1.48-.34-2.3-.29-.81.05-1.56.24-2.25.56-.68.32-1.27.76-1.76,1.3-.49.55-.86,1.17-1.1,1.87-.25.7-.35,1.46-.3,2.27.05.81.24,1.55.57,2.22.33.67.77,1.24,1.32,1.72.55.48,1.19.85,1.9,1.09.72.24,1.48.34,2.3.29Z"/>
          <path class="st12" d="M218.29,158.35l-.71-11.87.29-.02,9.57,10.95h-.19s-.69-11.47-.69-11.47l.34-.02.71,11.87-.29.02-9.57-10.95h.19s.69,11.47.69,11.47l-.34.02Z"/>
          <path class="st12" d="M230.02,157.65l4.8-12.2.34-.02,6.22,11.54-.39.02-6.07-11.28h.17s-4.68,11.91-4.68,11.91l-.39.02ZM231.63,153.96l.15-.33,7.38-.44.19.31-7.72.46Z"/>
          <path class="st12" d="M243.8,156.83l-.71-11.87,4.02-.24c1.46-.09,2.62.19,3.49.82s1.34,1.57,1.41,2.8c.05.81-.1,1.52-.43,2.13-.34.61-.84,1.08-1.52,1.44-.68.35-1.5.56-2.47.62l-3.83.23.14-.16.25,4.22-.34.02ZM243.88,152.55l-.16-.13,3.87-.23c1.39-.08,2.43-.46,3.13-1.13.7-.67,1.01-1.57.94-2.7-.07-1.14-.49-2-1.26-2.58s-1.85-.83-3.24-.74l-3.87.23.15-.15.44,7.43ZM252.23,156.32l-3.36-4.12.42-.03,3.36,4.12-.42.03Z"/>
          <path class="st12" d="M258.52,155.95l-.25-4.16.1.25-5.39-7.68.39-.02,5.13,7.3h-.13s4.23-7.85,4.23-7.85l.39-.02-4.44,8.26.07-.26.25,4.16-.34.02Z"/>
        </g>
        <text/>
      </g>
    </g>
  </g>
</svg>